<svg xmlns="http://www.w3.org/2000/svg" viewBox="0 0 94.82 92.17"><defs><style>.cls-1{fill:none;stroke:#02539b;stroke-width:2.66px;}</style></defs><g id="Layer_2" data-name="Layer 2"><g id="Layer_1-2" data-name="Layer 1"><path class="cls-1" d="M8.09,26.75H9.54a6.76,6.76,0,0,1,6.76,6.76V90.84a0,0,0,0,1,0,0h-15a0,0,0,0,1,0,0V33.51A6.76,6.76,0,0,1,8.09,26.75Z"/><path class="cls-1" d="M33.82,16.93h1.44A6.76,6.76,0,0,1,42,23.69V90.84a0,0,0,0,1,0,0h-15a0,0,0,0,1,0,0V23.69A6.76,6.76,0,0,1,33.82,16.93Z"/><path class="cls-1" d="M59.55,30.41H61a6.76,6.76,0,0,1,6.76,6.76V90.84a0,0,0,0,1,0,0h-15a0,0,0,0,1,0,0V37.17A6.76,6.76,0,0,1,59.55,30.41Z"/><path class="cls-1" d="M85.28,1.33h1.44a6.76,6.76,0,0,1,6.76,6.76V90.84a0,0,0,0,1,0,0h-15a0,0,0,0,1,0,0V8.09a6.76,6.76,0,0,1,6.76-6.76Z"/></g></g></svg>