<svg xmlns="http://www.w3.org/2000/svg" viewBox="0 0 100.76 136.83"><defs><style>.cls-1{fill:#02539b;}.cls-2{fill:none;stroke:#02539b;stroke-miterlimit:10;stroke-width:1.6px;}</style></defs><g id="Layer_2" data-name="Layer 2"><g id="Layer_1-2" data-name="Layer 1"><path class="cls-1" d="M27.61,96.57a.77.77,0,0,0,.48-.72V77a.77.77,0,0,0-.77-.77,19.54,19.54,0,0,0-13.66,5.54.77.77,0,0,0-.24.54.82.82,0,0,0,.22.55L26.77,96.39a.79.79,0,0,0,.55.24A.72.72,0,0,0,27.61,96.57Zm-1.06-2.63L15.3,82.33a18,18,0,0,1,11.25-4.56Z"/><path class="cls-1" d="M27.26,99.89a.79.79,0,0,0-.21-.61L13.92,85.73a.79.79,0,0,0-.54-.24.82.82,0,0,0-.55.22,19.62,19.62,0,0,0-2.36,25.46.76.76,0,0,0,.63.33.79.79,0,0,0,.44-.14l15.4-10.91A.79.79,0,0,0,27.26,99.89Zm-16,9.75a18.08,18.08,0,0,1,2.07-22.27l12,12.34Z"/><rect class="cls-2" x="0.8" y="0.8" width="99.16" height="135.23" rx="23.8"/><path class="cls-1" d="M60.83,103.19a.63.63,0,0,0-.67.54.64.64,0,0,0,.49.71,30,30,0,0,0,6.39.74c9.11,0,13.83-5.22,17.19-10.76l2,1.22a.63.63,0,0,0,1-.65l-1.3-7.71a.62.62,0,0,0-.32-.45.66.66,0,0,0-.55,0l-6.9,2.93a.65.65,0,0,0-.39.57.63.63,0,0,0,.35.58l2.09,1C74.62,104.12,61.4,103.23,60.83,103.19ZM81.58,91.84a.62.62,0,0,0-.3-.81l-1.38-.68,4.89-2.07.94,5.57L84.33,93a.61.61,0,0,0-.48-.07.67.67,0,0,0-.39.29C80.08,99,75.65,104.1,66.62,103.92A20.14,20.14,0,0,0,81.58,91.84Z"/><path class="cls-1" d="M62.86,111.25A2.46,2.46,0,0,0,60.68,114v4.76a2.46,2.46,0,0,0,2.18,2.71h3A2.46,2.46,0,0,0,68,118.72V114a2.46,2.46,0,0,0-2.17-2.71ZM66.75,114v4.76c0,.77-.43,1.45-.91,1.45h-3c-.49,0-.91-.68-.91-1.45V114c0-.77.42-1.44.91-1.44h3C66.32,112.52,66.75,113.19,66.75,114Z"/><path class="cls-1" d="M71.85,106.79a2.47,2.47,0,0,0-2.17,2.72v9.21a2.46,2.46,0,0,0,2.17,2.71h3A2.46,2.46,0,0,0,77,118.72v-9.21a2.47,2.47,0,0,0-2.17-2.72Zm3.89,2.72v9.21c0,.77-.43,1.45-.91,1.45h-3c-.48,0-.91-.68-.91-1.45v-9.21c0-.77.43-1.45.91-1.45h3C75.31,108.06,75.74,108.74,75.74,109.51Z"/><path class="cls-1" d="M84.71,101.45h-3a2.46,2.46,0,0,0-2.17,2.71v14.56a2.46,2.46,0,0,0,2.17,2.71h3a2.46,2.46,0,0,0,2.18-2.71V104.16A2.46,2.46,0,0,0,84.71,101.45Zm.91,17.27c0,.77-.42,1.45-.91,1.45h-3c-.48,0-.91-.68-.91-1.45V104.16c0-.77.43-1.45.91-1.45h3c.49,0,.91.68.91,1.45Z"/><path class="cls-1" d="M50.5,99.2c0-.32-.09-.63-.15-1h0a17.87,17.87,0,0,0-.47-2q-.12-.42-.27-.84a18.08,18.08,0,0,0-.7-1.77c-.11-.26-.23-.51-.35-.75-.27-.54-.57-1.07-.9-1.6-.14-.22-.28-.45-.43-.66-.37-.54-.77-1.07-1.18-1.57l-.52-.6c-.38-.42-.8-.84-1.23-1.25l-.58-.52c-.44-.38-.91-.75-1.38-1.09-.22-.15-.44-.31-.66-.45-.51-.34-1-.66-1.55-.93-.24-.13-.48-.26-.73-.38-.62-.3-1.28-.58-1.93-.82l-.83-.28c-.64-.2-1.3-.37-2-.51l-.94-.16a18.41,18.41,0,0,0-2.26-.22l-.81,0A1.15,1.15,0,0,0,29.52,83v18.28L14.61,111.81a1.16,1.16,0,0,0-.28,1.6l.08.1a17.5,17.5,0,0,0,1.1,1.39c.17.2.34.39.52.58.38.41.8.83,1.25,1.23l.59.51c.55.46,1.07.85,1.57,1.19l.57.36.11.07c.52.32,1.05.62,1.59.89l.74.36c.55.24,1.13.47,1.79.69.27.1.55.19.83.27.7.2,1.35.36,2,.48q.48.09,1,.15a22.5,22.5,0,0,0,2.56.18h.07q.54,0,1.08,0a19.69,19.69,0,0,0,2.84-.36c.47-.09.94-.21,1.45-.35a19.88,19.88,0,0,0,7.86-4.27,18.79,18.79,0,0,0,1.78-1.79A19.94,19.94,0,0,0,50,107.21c.14-.52.25-1,.34-1.46a19.17,19.17,0,0,0,.36-2.84c0-.35,0-.71,0-1.07v-.06A19.2,19.2,0,0,0,50.5,99.2Zm-1.39,3.63a19.14,19.14,0,0,1-.33,2.62c-.09.43-.19.87-.32,1.34A18.28,18.28,0,0,1,44.52,114a19.17,19.17,0,0,1-5.06,4,18.06,18.06,0,0,1-3.84,1.55c-.47.13-.91.24-1.34.33a19.55,19.55,0,0,1-2.62.33c-.33,0-.66,0-1,0h-.06a19.29,19.29,0,0,1-2.38-.16l-.88-.14a18.19,18.19,0,0,1-1.85-.44l-.77-.25c-.6-.21-1.14-.42-1.64-.64l-.69-.33c-.49-.25-1-.53-1.47-.83l-.11-.07-.51-.32c-.46-.32-.94-.67-1.45-1.1l-.55-.47a15.49,15.49,0,0,1-1.15-1.14c-.17-.17-.33-.35-.48-.53-.32-.36-.59-.71-.85-1l14.9-10.56a.77.77,0,0,0,.33-.63V83.37l.35,0a17.83,17.83,0,0,1,2.09.19l.86.16a15.66,15.66,0,0,1,1.82.47l.76.26a18.77,18.77,0,0,1,1.79.75l.67.35c.47.25,1,.54,1.43.86l.6.41c.44.32.87.66,1.28,1l.54.49c.4.37.78.76,1.14,1.15l.47.54c.39.47.75,1,1.09,1.46.14.2.27.41.4.61a15.21,15.21,0,0,1,.82,1.47q.18.34.33.69a17.46,17.46,0,0,1,.65,1.64c.09.26.17.51.25.78a17.25,17.25,0,0,1,.43,1.85c.06.29.1.58.14.88a19.6,19.6,0,0,1,.17,2.38v0C49.14,102.17,49.13,102.51,49.11,102.83Z"/><path class="cls-1" d="M11.3,34.63H66.62"/><path class="cls-1" d="M11.3,37H66.62c3.06,0,3.07-4.76,0-4.76H11.3c-3.06,0-3.07,4.76,0,4.76Z"/><path class="cls-1" d="M11.3,43.33H66.62"/><path class="cls-1" d="M11.3,45.71H66.62c3.06,0,3.07-4.76,0-4.76H11.3c-3.06,0-3.07,4.76,0,4.76Z"/><path class="cls-1" d="M11.3,52H66.62"/><path class="cls-1" d="M11.3,54.41H66.62c3.06,0,3.07-4.77,0-4.77H11.3c-3.06,0-3.07,4.77,0,4.77Z"/><path class="cls-1" d="M11.3,60.72H66.62"/><path class="cls-1" d="M11.3,63.1H66.62c3.06,0,3.07-4.76,0-4.76H11.3c-3.06,0-3.07,4.76,0,4.76Z"/><path class="cls-1" d="M28.64,12.11H72.12"/><path class="cls-1" d="M28.64,14.49H72.12c3.07,0,3.07-4.77,0-4.77H28.64c-3.06,0-3.07,4.77,0,4.77Z"/></g></g></svg>