<svg xmlns="http://www.w3.org/2000/svg" viewBox="0 0 103.92 103.94"><defs><style>.cls-1{fill:none;stroke:#02539b;stroke-width:2.66px;}</style></defs><g id="Layer_2" data-name="Layer 2"><g id="Layer_1-2" data-name="Layer 1"><path class="cls-1" d="M50.55,96.88a6.72,6.72,0,0,0,2-6h0a2,2,0,0,1,.56-1.73,2,2,0,0,1,2.24-.41l13.27,13.27h0L81.45,89.22a2,2,0,0,1,3.27,1.88h0a6.75,6.75,0,0,0,2,6A7.33,7.33,0,0,0,97.09,86.71a6.79,6.79,0,0,0-6-2h0a2,2,0,0,1-1.88-3.27L102,68.61,89.31,55.87a2,2,0,0,0-3.44,1.71h0a6.69,6.69,0,0,1-2,6A7.36,7.36,0,0,1,73.5,53.13a6.72,6.72,0,0,1,6-2h0a2,2,0,0,0,1.73-.56,2,2,0,0,0,0-2.87L68.43,35,55.6,47.8a2,2,0,0,1-2.7-.14,2,2,0,0,1-.57-1.74h0a6.74,6.74,0,0,0-2-6A7.33,7.33,0,0,0,40,50.31a6.79,6.79,0,0,0,6,2h0a2,2,0,0,1,1.74.57,2,2,0,0,1,.14,2.7L35.07,68.33l-.1.1,0,0L48.24,81.7a2,2,0,0,1-2.14,2.8h0a6.72,6.72,0,0,0-6,2A7.36,7.36,0,0,0,50.55,96.88Z"/><path class="cls-1" d="M35.32,68.82,48.13,56a2,2,0,0,0-1.88-3.27h0a6.73,6.73,0,0,1-6-2,7.3,7.3,0,0,1,0-10.33c4.79-4.79,13.25-1,12.34,5.95h0a2,2,0,0,0,3.28,1.88L68.76,35.36,56,22.57a2.1,2.1,0,0,1,.19-2.75,2,2,0,0,1,1.74-.57h0a6.75,6.75,0,0,0,6-2A7.33,7.33,0,0,0,53.5,6.9a6.74,6.74,0,0,0-2,6h0a2,2,0,0,1-.57,1.74,2,2,0,0,1-2.69.13L35.5,2l-.11-.11v0L22.18,15.1A2,2,0,0,1,19.38,13h0A6.72,6.72,0,0,0,17.4,7,7.33,7.33,0,0,0,7,17.38a6.71,6.71,0,0,0,6,2h0a2,2,0,0,1,2.14,2.8L1.9,35.38h0L14.73,48.24a2,2,0,0,1-1.87,3.27h0a6.74,6.74,0,0,0-6,2A7.33,7.33,0,0,0,17.26,63.86a6.73,6.73,0,0,0,2-6h0A2,2,0,0,1,22.52,56L35.34,68.84h0Z"/></g></g></svg>