<svg xmlns="http://www.w3.org/2000/svg" viewBox="0 0 106.89 112.9"><defs><style>.cls-1{fill:none;stroke:#02539b;stroke-width:2.66px;}</style></defs><g id="Layer_2" data-name="Layer 2"><g id="Layer_1-2" data-name="Layer 1"><line class="cls-1" x1="1.62" y1="111.57" x2="106.89" y2="111.57"/><polyline class="cls-1" points="7.77 93.51 19.68 93.51 99.21 93.51"/><line class="cls-1" x1="12" y1="111.57" x2="19.68" y2="93.51"/><line class="cls-1" x1="94.98" y1="111.57" x2="86.53" y2="93.51"/><path class="cls-1" d="M30.47,92.44,15.06,77.63a3.84,3.84,0,0,1,.17-5.69l1.94-1.65a3.83,3.83,0,0,1,5,0L36,82.26a3.82,3.82,0,0,0,2.37.93L84.26,85a3.84,3.84,0,0,1,3.28,2.12L88,88a3.84,3.84,0,0,1-3.43,5.56H33.14A3.84,3.84,0,0,1,30.47,92.44Z"/><line class="cls-1" x1="35.81" y1="42.1" x2="47.31" y2="83.54"/><path class="cls-1" d="M69.28,32.22c-.44.8-1.74.61-2.45,1-2,1.15-5.11,1.48-7.33,2.11L14,48.47,1.62,52C1,43.1,1,36,6.53,28.48c6.59-8.95,15.52-15,26.9-15.15S56.49,17,64.49,25.3c.94,1,5.36,5.3,4.87,6.75A.89.89,0,0,1,69.28,32.22Z"/><path class="cls-1" d="M10.56,23.69c0,13.7,1.52,24.78,3.4,24.78"/><path class="cls-1" d="M27.28,14.88C29.93,31,33.75,43.79,35.81,43.45"/><path class="cls-1" d="M54.26,36.08C54.26,23.5,47,13.32,38,13.32"/><circle class="cls-1" cx="97.45" cy="8.97" r="7.64"/></g></g></svg>