<svg xmlns="http://www.w3.org/2000/svg" viewBox="0 0 122.81 106.4"><defs><style>.cls-1{fill:none;stroke:#02539b;stroke-width:2.66px;}</style></defs><g id="Layer_2" data-name="Layer 2"><g id="Layer_1-2" data-name="Layer 1"><path class="cls-1" d="M28.69,106.4V92.21l-14-1s-4.12,1.65-4.12-11.93V63.82h-7S-.1,62,2,58.89s6.17-9.46,8.23-12.34c2.3-3.22,1.83-7.6,2-11.32C12.81,19.6,22.94,5.32,38.86,2.64,53.55.17,74.64-.23,83.09,14.62c4.78,8.39,4.29,20-2.45,27.18a23.49,23.49,0,0,1-11,6.8c-3.54.9-7.54.73-11.16.65-4.23-.1-9.18,0-13-2.16-7.41-4.25-8-15.36-3.63-21.92,3.15-4.74,8.94-7.3,14.5-7.74,2.46-.2,5.15.45,6.68,2.38,2.16,2.7,1.58,7,.53,10-.78,2.25-2.45,4.43-4.84,5"/><path class="cls-1" d="M94.11,106.26V92.07l14-1s4.12,1.65,4.12-11.93V63.68h7s3.7-1.85,1.64-4.93-6.17-9.46-8.22-12.34-1.85-14.4-3.29-21S99.26,6.71,90.21,3.83a58.58,58.58,0,0,0-12.9-1.89"/></g></g></svg>