<svg xmlns="http://www.w3.org/2000/svg" viewBox="0 0 111.43 141"><defs><style>.cls-1{fill:none;stroke:#02539b;stroke-width:2.66px;}.cls-2{fill:#02539b;}</style></defs><g id="Layer_2" data-name="Layer 2"><g id="Layer_1-2" data-name="Layer 1"><rect class="cls-1" x="1.33" y="32.07" width="76.85" height="76.85" rx="5.09"/><rect class="cls-1" x="12.66" y="43.41" width="54.19" height="54.19" rx="3.96"/><circle class="cls-1" cx="54.31" cy="9.02" r="7.69"/><polyline class="cls-1" points="26.08 32.07 26.08 9.02 46.63 9.02"/><circle class="cls-1" cx="102.41" cy="83.01" r="7.69"/><polyline class="cls-1" points="79.36 54.77 102.41 54.77 102.41 75.32"/><circle class="cls-1" cx="26.08" cy="131.98" r="7.69"/><polyline class="cls-1" points="54.31 108.93 54.31 131.98 33.77 131.98"/><path class="cls-2" d="M41.33,89.61h-2.8V85.18q-7.66-.83-9.82-7.18l3.1-1.22A7.39,7.39,0,0,0,38.53,82V71.4q-5.34-1.29-6.94-3.35A7.36,7.36,0,0,1,30,63.46c0-4.43,2.84-7.13,8.53-8.07V51.6h2.8v3.79q6.77.59,8.88,6l-3.1,1c-.85-2.49-2.77-3.84-5.78-4v9.82q9.47,1.69,9.47,8.53a8.24,8.24,0,0,1-2.15,5.45q-2.16,2.51-7.32,3Zm-2.8-31.2a6.26,6.26,0,0,0-3.77,1.45,4.12,4.12,0,0,0-1.41,3.2q0,3.8,5.18,4.78ZM41.33,82a6.66,6.66,0,0,0,4.35-1.54,4.45,4.45,0,0,0,1.57-3.42c0-2.83-2-4.52-5.92-5.07Z"/></g></g></svg>