<svg width="680" height="480" xmlns="http://www.w3.org/2000/svg">
 <!-- Created with ImageBot - http://www.imagebot.com/ -->

 <g id="imagebot_1">
  <title>Layer 1</title>
  <line y2="67.5" x2="53.0147" y1="67.5" x1="19" transform="translate(-7 -12) translate(-8)" stroke-width="8" stroke-linejoin="round" stroke-linecap="round" stroke="#000000" fill="none" id="imagebot_3"/>
  <line y2="67.5" x2="53.0147" y1="67.5" x1="19" transform="translate(-6 -12) matrix(1 0 0 1 49 0)" stroke-width="8" stroke-linejoin="round" stroke-linecap="round" stroke="#000000" fill="none" id="imagebot_4"/>
  <line y2="67.5" x2="53.0147" y1="67.5" x1="19" transform="translate(-1) matrix(1 0 0 1 100 -12)" stroke-width="8" stroke-linejoin="round" stroke-linecap="round" stroke="#000000" fill="none" id="imagebot_5"/>
  <line y2="67.5" x2="53.0147" y1="67.5" x1="19" transform="translate(-1) matrix(1 0 0 1 159 -12)" stroke-width="8" stroke-linejoin="round" stroke-linecap="round" stroke="#000000" fill="none" id="imagebot_6"/>
  <line y2="67.5" x2="53.0147" y1="67.5" x1="19" transform="translate(0 1) matrix(1 0 0 1 217 -13)" stroke-width="8" stroke-linejoin="round" stroke-linecap="round" stroke="#000000" fill="none" id="imagebot_7"/>
  <line y2="67.5" x2="53.0147" y1="67.5" x1="19" transform="translate(-11 -12) matrix(1 0 0 1 288 0)" stroke-width="8" stroke-linejoin="round" stroke-linecap="round" stroke="#000000" fill="none" id="imagebot_1007"/>
  <line y2="67.5" x2="53.0147" y1="67.5" x1="19" transform="translate(0 -1) matrix(1 0 0 1 341 -11)" stroke-width="8" stroke-linejoin="round" stroke-linecap="round" stroke="#000000" fill="none" id="imagebot_1008"/>
  <line y2="67.5" x2="53.0147" y1="67.5" x1="19" transform="translate(-7 -11) matrix(1 0 0 1 409 0)" stroke-width="8" stroke-linejoin="round" stroke-linecap="round" stroke="#000000" fill="none" id="imagebot_1009"/>
  <line y2="67.5" x2="53.0147" y1="67.5" x1="19" transform="rotate(10.165 500.006 60.5001) matrix(1 0 0 1 464 -7)" stroke-width="8" stroke-linejoin="round" stroke-linecap="round" stroke="#000000" fill="none" id="imagebot_1010"/>
  <line y2="67.5" x2="53.0147" y1="67.5" x1="19" transform="rotate(24.4334 557.007 79.5) matrix(1 0 0 1 521 12)" stroke-width="8" stroke-linejoin="round" stroke-linecap="round" stroke="#000000" fill="none" id="imagebot_1011"/>
  <line y2="67.5" x2="53.0147" y1="67.5" x1="19" transform="rotate(48.2322 601.007 112.5) matrix(1 0 0 1 565 45)" stroke-width="8" stroke-linejoin="round" stroke-linecap="round" stroke="#000000" fill="none" id="imagebot_1012"/>
  <line y2="67.5" x2="53.0147" y1="67.5" x1="19" transform="rotate(73.4398 624.007 161.5) matrix(1 0 0 1 588 94)" stroke-width="8" stroke-linejoin="round" stroke-linecap="round" stroke="#000000" fill="none" id="imagebot_1013"/>
  <line y2="67.5" x2="53.0147" y1="67.5" x1="19" transform="rotate(86.4228 633.007 217.5) matrix(1 0 0 1 597 150)" stroke-width="8" stroke-linejoin="round" stroke-linecap="round" stroke="#000000" fill="none" id="imagebot_1014"/>
  <g transform="translate(0 4) matrix(4.35897 0 0 4.35897 113.07 -35.8101)" id="imagebot_1021">
   <g transform="matrix(0.377778 0 0 0.377778 0 0)" id="imagebot_1019">
    <title/>
    <ellipse ry="24.7" rx="24.7" cy="192.9" cx="312.908" stroke-width="2" stroke-miterlimit="10" stroke-linejoin="round" stroke-linecap="round" stroke="#000000" id="imagebot_1020"/>
   </g>
  </g>
 </g>
</svg>