<?xml version="1.0" encoding="UTF-8" standalone="no"?>
<!-- Created with Inkscape (http://www.inkscape.org/) -->
<svg xmlns:inkscape="http://www.inkscape.org/namespaces/inkscape" xmlns:rdf="http://www.w3.org/1999/02/22-rdf-syntax-ns#" xmlns="http://www.w3.org/2000/svg" xmlns:xlink="http://www.w3.org/1999/xlink" xmlns:ns1="http://sozi.baierouge.fr" xmlns:cc="http://creativecommons.org/ns#" xmlns:sodipodi="http://sodipodi.sourceforge.net/DTD/sodipodi-0.dtd" xmlns:dc="http://purl.org/dc/elements/1.1/" id="svg2" xml:space="preserve" viewBox="0 0 289.01 108.26" version="1.1" inkscape:version="0.91 r13725">
  <g id="g10" transform="matrix(1.25 0 0 -1.25 0 108.26)">
    <g id="g12">
      <path id="path14" style="fill-rule:evenodd;fill:#809da1" d="m161.08 26.967c-0.027-0.828-0.746-1.563-2.16-2.203-1.36-0.586-3.051-0.985-5.078-1.2-4.082-0.371-6.614 0.028-7.602 1.2-0.613 0.8-0.148 1.773 1.403 2.921 1.57 1.2 3.425 1.868 5.558 2 2.133 0.211 4 0.028 5.602-0.558 1.519-0.563 2.277-1.281 2.277-2.16z" inkscape:connector-curvature="0"/>
      <path id="path16" style="fill-rule:evenodd;fill:#86abae" d="m171.48 30.287c-0.027-0.348-0.347-0.617-0.961-0.801-0.585-0.187-1.293-0.254-2.121-0.199-0.851 0.078-1.547 0.266-2.078 0.559-0.562 0.265-0.828 0.574-0.801 0.918 0.028 0.32 0.332 0.574 0.918 0.761 0.614 0.188 1.336 0.254 2.161 0.2 0.828-0.055 1.519-0.227 2.082-0.52 0.558-0.266 0.828-0.574 0.8-0.918z" inkscape:connector-curvature="0"/>
      <path id="path18" style="fill-rule:evenodd;fill:#97b3ab" d="m193.04 35.486c1.707-1.308 2.441-2.547 2.199-3.718-0.238-1.176-1.504-1.895-3.801-2.161-2.238-0.293-4.746-0.054-7.519 0.719-2.824 0.774-5.051 1.668-6.68 2.68-1.785 1.121-2.664 2.254-2.64 3.398 0.027 1.254 1.203 2.137 3.519 2.641 2.43 0.562 5.082 0.441 7.961-0.36 2.879-0.8 5.199-1.867 6.961-3.199z" inkscape:connector-curvature="0"/>
      <path id="path20" style="fill-rule:evenodd;fill:#809da1" d="m154.44 42.885c0.481-0.719 0.11-1.664-1.117-2.84-1.281-1.227-2.906-2.106-4.883-2.641-2-0.558-3.718-0.785-5.16-0.679-1.465 0.105-2.371 0.535-2.719 1.281-0.371 0.773 0.083 1.691 1.36 2.758 1.254 1.066 2.855 1.867 4.801 2.402 4.293 1.199 6.867 1.105 7.718-0.281z" inkscape:connector-curvature="0"/>
      <path id="path22" style="fill-rule:evenodd;fill:#97b3ab" d="m133.84 38.525c-0.828-0.425-1.949-0.64-3.36-0.64-0.429 0.027-2.203 0.148-5.32 0.359-2.402 0.242-4.441 0.746-6.121 1.52-1.813 0.855-2.652 1.789-2.52 2.8 0.133 1.039 1.067 1.852 2.801 2.442 1.813 0.664 4.055 0.879 6.719 0.637 1.387-0.133 2.707-0.477 3.961-1.04 1.308-0.558 2.332-1.265 3.078-2.117 0.723-0.801 1.137-1.601 1.242-2.402 0.106-0.719-0.054-1.238-0.48-1.559z" inkscape:connector-curvature="0"/>
      <path id="path24" style="fill-rule:evenodd;fill:#86abae" d="m137.48 32.603c0.211-0.425-0.082-0.785-0.882-1.078-0.797-0.265-1.641-0.308-2.52-0.121-0.906 0.16-1.652 0.469-2.238 0.922-0.586 0.426-0.817 0.813-0.68 1.16 0.133 0.317 0.52 0.52 1.16 0.598 0.614 0.082 1.344 0.055 2.199-0.078 1.653-0.266 2.641-0.735 2.961-1.403z" inkscape:connector-curvature="0"/>
      <path id="path26" style="fill-rule:evenodd;fill:#809da1" d="m96.805 44.127c0.851 0.691 1.945 1.211 3.277 1.558 1.359 0.348 2.563 0.442 3.602 0.282s1.625-0.508 1.757-1.043c0.137-0.531-0.226-1.106-1.078-1.719-0.828-0.613-1.906-1.094-3.242-1.441-1.332-0.344-2.492-0.481-3.476-0.399-1.016 0.106-1.618 0.426-1.801 0.961-0.215 0.531 0.105 1.133 0.961 1.801z" inkscape:connector-curvature="0"/>
      <path id="path28" style="fill-rule:evenodd;fill:#97b3ab" d="m95.402 55.885c-0.32-0.664-0.984-1.239-2-1.719-0.906-0.453-2.293-0.906-4.16-1.359-1.785-0.43-3.332-0.586-4.64-0.481-1.414 0.106-2.254 0.52-2.52 1.238-0.266 0.746 0.16 1.586 1.281 2.52 1.199 0.988 2.758 1.707 4.68 2.16 1.84 0.563 3.652 0.508 5.441-0.16 1.68-0.641 2.321-1.371 1.918-2.199z" inkscape:connector-curvature="0"/>
      <path id="path30" style="fill-rule:evenodd;fill:#86abae" d="m119.72 50.166c0.16-0.453-0.188-0.906-1.039-1.359-0.883-0.454-1.907-0.668-3.082-0.641-1.172 0.027-2.172 0.238-3 0.641-0.801 0.371-1.172 0.796-1.122 1.277 0.028 0.453 0.454 0.828 1.282 1.121 0.8 0.266 1.761 0.375 2.879 0.32 2.453-0.054 3.816-0.507 4.082-1.359z" inkscape:connector-curvature="0"/>
      <path id="path32" style="fill-rule:evenodd;fill:#86abae" d="m140.92 47.365c0.055-0.16-0.067-0.332-0.36-0.519-0.292-0.215-0.652-0.336-1.082-0.36-0.984-0.109-1.519 0.012-1.597 0.36-0.055 0.16 0.066 0.332 0.359 0.519 0.293 0.215 0.653 0.332 1.082 0.36 0.93 0.082 1.465-0.04 1.598-0.36z" inkscape:connector-curvature="0"/>
      <path id="path34" style="fill-rule:evenodd;fill:#97b3ab" d="m168.64 49.885c-1.497 0.8-2.215 1.652-2.161 2.558 0.051 0.934 0.934 1.641 2.641 2.121 1.703 0.508 3.703 0.586 6 0.243 2.293-0.321 4.238-1.043 5.84-2.161 0.719-0.425 1.265-1.043 1.64-1.839 0.372-0.829 0.29-1.321-0.242-1.481-0.238-0.055-0.625-0.266-1.16-0.641-0.48-0.32-1-0.507-1.558-0.558-1.547-0.27-3.387-0.242-5.52 0.078-2.215 0.32-4.043 0.879-5.48 1.68z" inkscape:connector-curvature="0"/>
      <path id="path36" style="fill-rule:evenodd;fill:#86abae" d="m63.645 57.646c0.132-0.828-0.364-1.773-1.481-2.839-0.855-0.801-2.226-1.817-4.121-3.043-1.895-1.172-3.426-1.973-4.602-2.399-1.492-0.535-2.57-0.547-3.238-0.039-0.773 0.586-0.762 1.707 0.039 3.359 0.856 1.786 2.281 3.321 4.281 4.602 2.028 1.305 4.055 1.934 6.079 1.879 1.894-0.027 2.906-0.535 3.043-1.52z" inkscape:connector-curvature="0"/>
      <path id="path38" style="fill-rule:evenodd;fill:#86abae" d="m75.484 60.084c0.106-0.32-0.136-0.652-0.722-1-0.614-0.348-1.321-0.531-2.117-0.559-1.79-0.132-2.801 0.106-3.043 0.719-0.133 0.32 0.082 0.656 0.64 1 0.613 0.402 1.336 0.629 2.16 0.68 1.786 0.136 2.813-0.145 3.082-0.84z" inkscape:connector-curvature="0"/>
      <path id="path40" style="fill-rule:evenodd;fill:#86abae" d="m83.883 62.045c0.187-0.027 0.172-0.199-0.039-0.52-0.215-0.347-0.52-0.547-0.922-0.601-0.371-0.078-0.707-0.039-1 0.121s-0.399 0.308-0.32 0.441c0.027 0.133 0.16 0.227 0.402 0.278 0.133 0.054 0.371 0.121 0.719 0.203 0.64 0.078 1.027 0.105 1.16 0.078z" inkscape:connector-curvature="0"/>
      <path id="path42" style="fill-rule:evenodd;fill:#809da1" d="m78.363 53.846c-0.265-0.696-1.425-1.039-3.48-1.039-0.934 0.023-1.735 0.171-2.399 0.437-0.695 0.266-1.043 0.586-1.043 0.961 0 0.398 0.336 0.746 1 1.039 0.668 0.293 1.497 0.43 2.481 0.402 0.988 0 1.855-0.203 2.601-0.601 0.692-0.399 0.973-0.801 0.84-1.199z" inkscape:connector-curvature="0"/>
      <path id="path44" style="fill-rule:evenodd;fill:#86abae" d="m86.961 48.646c0.027-0.347-0.305-0.613-1-0.8-0.746-0.188-1.547-0.161-2.399 0.078-0.851 0.269-1.519 0.656-2 1.16-0.48 0.453-0.64 0.84-0.48 1.16 0.293 0.586 1.359 0.613 3.199 0.082 1.707-0.48 2.602-1.039 2.68-1.68z" inkscape:connector-curvature="0"/>
      <path id="path46" style="fill-rule:evenodd;fill:#86abae" d="m116.56 60.006c-0.187-1.067-1.734-1.641-4.64-1.719-1.277-0.055-2.371 0.09-3.277 0.438-0.934 0.32-1.415 0.746-1.442 1.281-0.027 0.531 0.414 1 1.32 1.398 0.907 0.426 2.012 0.668 3.321 0.723 1.304 0.023 2.465-0.188 3.48-0.641 0.957-0.48 1.371-0.976 1.238-1.48z" inkscape:connector-curvature="0"/>
      <path id="path48" style="fill-rule:evenodd;fill:#809da1" d="m89.562 43.924c0.376-0.614 0.016-1.36-1.078-2.239-1.093-0.906-2.457-1.519-4.082-1.839-1.652-0.375-3.066-0.469-4.238-0.282-1.094 0.161-1.801 0.547-2.121 1.161-0.293 0.64 0.133 1.375 1.281 2.199 1.094 0.801 2.426 1.347 4 1.64 3.465 0.746 5.547 0.536 6.238-0.64z" inkscape:connector-curvature="0"/>
      <path id="path50" style="fill-rule:evenodd;fill:#809da1" d="m134.08 60.287c-0.027-0.269-0.277-0.457-0.758-0.562-0.508-0.133-1.109-0.145-1.801-0.04-0.668 0.188-1.199 0.426-1.601 0.719-0.399 0.293-0.559 0.574-0.481 0.84 0.11 0.242 0.403 0.387 0.883 0.441 0.481 0.079 1.012 0.04 1.598-0.121 0.617-0.078 1.121-0.238 1.519-0.48 0.43-0.266 0.641-0.531 0.641-0.797z" inkscape:connector-curvature="0"/>
      <path id="path52" style="fill-rule:evenodd;fill:#86abae" d="m152.4 61.646c0.453-0.613 0.16-1.468-0.879-2.562-1.093-1.172-2.546-2.012-4.359-2.52-1.812-0.504-3.48-0.558-5-0.16-1.441 0.375-2.137 0.949-2.082 1.723 0.082 1.277 1.961 2.453 5.641 3.519 3.707 1.012 5.933 1.012 6.679 0z" inkscape:connector-curvature="0"/>
      <path id="path54" style="fill-rule:evenodd;fill:#86abae" d="m160.2 65.525c-0.027-0.215-0.242-0.398-0.641-0.558-0.398-0.16-0.867-0.242-1.398-0.242-0.562-0.028-1.043 0.039-1.441 0.199-0.399 0.136-0.614 0.32-0.641 0.562-0.027 0.239 0.16 0.453 0.559 0.641 0.402 0.16 0.894 0.266 1.48 0.316 0.617-0.023 1.121-0.117 1.52-0.277 0.402-0.188 0.589-0.402 0.562-0.641z" inkscape:connector-curvature="0"/>
      <path id="path56" style="fill-rule:evenodd;fill:#86abae" d="m164.84 57.646c0.051-0.242-0.121-0.496-0.52-0.761-0.429-0.239-0.933-0.414-1.519-0.52-0.563-0.16-1.067-0.215-1.52-0.16-0.48 0.082-0.762 0.238-0.84 0.48-0.082 0.239 0.078 0.508 0.481 0.801 0.371 0.293 0.879 0.52 1.519 0.68 0.637 0.105 1.184 0.105 1.637 0 0.48-0.082 0.734-0.254 0.762-0.52z" inkscape:connector-curvature="0"/>
      <path id="path58" style="fill-rule:evenodd;fill:#86abae" d="m135.6 53.603c-0.024-0.824-0.84-1.437-2.438-1.839-1.629-0.399-3.441-0.399-5.441 0-2.028 0.402-3.641 0.933-4.84 1.601-1.281 0.719-1.934 1.508-1.961 2.36 0 0.855 0.801 1.496 2.402 1.921 1.653 0.426 3.492 0.438 5.52 0.039 2-0.375 3.625-0.933 4.879-1.679 1.281-0.774 1.906-1.574 1.879-2.403z" inkscape:connector-curvature="0"/>
      <path id="path60" style="fill-rule:evenodd;fill:#809da1" d="m115.52 39.603c-0.054-0.425-0.496-0.718-1.32-0.878-0.855-0.133-1.801-0.055-2.84 0.242-1.039 0.293-1.879 0.73-2.519 1.316-0.641 0.563-0.867 1.043-0.68 1.442 0.184 0.402 0.664 0.613 1.438 0.64 0.746 0.028 1.613-0.105 2.601-0.398 1.012-0.297 1.824-0.657 2.442-1.082 0.636-0.426 0.933-0.852 0.878-1.282z" inkscape:connector-curvature="0"/>
      <path id="path62" style="fill-rule:evenodd;fill:#86abae" d="m106.76 38.084c-0.028-0.211-0.211-0.399-0.559-0.559-0.32-0.132-0.719-0.199-1.199-0.199-1.094-0.133-1.707 0.027-1.84 0.481-0.055 0.187 0.094 0.371 0.438 0.558 0.347 0.215 0.773 0.36 1.281 0.442 0.535 0 0.988-0.067 1.359-0.2 0.375-0.164 0.547-0.336 0.52-0.523z" inkscape:connector-curvature="0"/>
      <path id="path64" style="fill-rule:evenodd;fill:#97b3ab" d="m38.562 47.084c0.188-0.746-0.292-1.547-1.441-2.399-1.066-0.828-2.476-1.535-4.238-2.121-1.762-0.613-3.305-0.918-4.641-0.918-1.414 0-2.281 0.332-2.597 1-0.348 0.692 0.011 1.575 1.078 2.641 1.093 1.09 2.558 1.945 4.398 2.559 1.84 0.613 3.508 0.828 5 0.64 1.441-0.16 2.254-0.629 2.441-1.402z" inkscape:connector-curvature="0"/>
      <path id="path66" style="fill-rule:evenodd;fill:#86abae" d="m46.484 52.084c0.133-0.238 0.012-0.52-0.363-0.84-0.371-0.371-0.863-0.641-1.476-0.801-0.59-0.156-1.149-0.183-1.684-0.078-0.477 0.133-0.719 0.32-0.719 0.559 0 0.48 0.641 0.906 1.922 1.281 1.332 0.32 2.106 0.281 2.32-0.121z" inkscape:connector-curvature="0"/>
      <path id="path68" style="fill-rule:evenodd;fill:#97b3ab" d="m50.762 46.685c0.402 0 0.574-0.332 0.519-1-0.051-0.718-0.359-1.32-0.918-1.8-0.933-0.934-2.359-1.68-4.281-2.239-3.437-0.773-5.574-0.613-6.398 0.481-0.454 0.613-0.122 1.398 1 2.359 1.144 0.961 2.519 1.614 4.121 1.961 1.492 0.399 2.773 0.574 3.84 0.52 0.585-0.028 1.293-0.121 2.117-0.282z" inkscape:connector-curvature="0"/>
      <path id="path70" style="fill-rule:evenodd;fill:#86abae" d="m66.883 48.967c0.187-0.934-0.801-2.055-2.961-3.364-0.984-0.613-1.984-0.945-3-1-0.984-0.05-1.531 0.161-1.641 0.641-0.238 0.961 0.735 2.082 2.922 3.359 1.012 0.618 2.039 0.95 3.078 1 0.989 0.055 1.524-0.16 1.602-0.636z" inkscape:connector-curvature="0"/>
      <path id="path72" style="fill-rule:evenodd;fill:#86abae" d="m64.805 19.326c-0.91-0.43-1.977-0.629-3.203-0.601-1.2 0.027-2.211 0.226-3.04 0.601-0.828 0.371-1.253 0.801-1.281 1.277 0 0.481 0.442 0.883 1.321 1.204 0.855 0.32 1.867 0.464 3.043 0.437 1.199-0.023 2.183-0.172 2.957-0.437 0.8-0.27 1.242-0.641 1.32-1.122 0.133-0.48-0.238-0.933-1.117-1.359z" inkscape:connector-curvature="0"/>
      <path id="path74" style="fill-rule:evenodd;fill:#809da1" d="m88.043 24.924c0.398-0.934-0.305-1.641-2.121-2.117-1.84-0.481-3.641-0.387-5.399 0.277-1.867 0.613-3.347 1.387-4.441 2.32-1.039 0.883-1.48 1.696-1.32 2.442 0.187 0.773 1.043 1.214 2.562 1.32 1.438 0.078 3.039-0.148 4.797-0.68 3.227-1.015 5.203-2.199 5.922-3.562z" inkscape:connector-curvature="0"/>
      <path id="path76" style="fill-rule:evenodd;fill:#86abae" d="m94.484 27.326c0.504 0.027 1.426 0.039 2.758 0.039 1.254 0.028 2.336-0.105 3.242-0.398 1.012-0.321 1.52-0.75 1.52-1.282 0-0.558-0.426-1.054-1.281-1.48-0.934-0.48-2.106-0.734-3.52-0.762-1.519-0.023-2.801 0.426-3.84 1.36-0.988 0.91-1.199 1.574-0.64 2 0.375 0.324 0.961 0.496 1.761 0.523z" inkscape:connector-curvature="0"/>
      <path id="path78" style="fill-rule:evenodd;fill:#86abae" d="m93.961 33.084c-0.023-0.344-0.359-0.625-1-0.84-0.613-0.211-1.359-0.293-2.238-0.238-0.852 0.027-1.575 0.148-2.161 0.359-0.613 0.215-0.933 0.492-0.96 0.84-0.051 0.375 0.242 0.707 0.882 1 0.664 0.293 1.454 0.426 2.36 0.398 0.906-0.05 1.652-0.226 2.238-0.519 0.613-0.293 0.906-0.625 0.879-1z" inkscape:connector-curvature="0"/>
      <path id="path80" style="fill-rule:evenodd;fill:#86abae" d="m122.24 13.365c-0.586-0.453-1.48-0.625-2.68-0.519-0.933 0.105-2.398 0.441-4.398 1-1.816 0.48-3.359 1.347-4.641 2.597-1.226 1.227-1.546 2.16-0.961 2.801 1.067 1.121 3.52 1.133 7.36 0.043 1.949-0.508 3.519-1.496 4.719-2.961 1.121-1.414 1.32-2.402 0.601-2.961z" inkscape:connector-curvature="0"/>
      <path id="path82" style="fill-rule:evenodd;fill:#86abae" d="m124.48 22.564c0.051-0.265-0.187-0.492-0.722-0.679-0.532-0.188-1.133-0.242-1.797-0.16-0.695 0.082-1.254 0.242-1.684 0.48-0.453 0.238-0.664 0.492-0.636 0.762 0.023 0.265 0.293 0.476 0.796 0.636 0.481 0.137 1.055 0.161 1.723 0.082 1.465-0.187 2.238-0.558 2.32-1.121z" inkscape:connector-curvature="0"/>
      <path id="path84" style="fill-rule:evenodd;fill:#86abae" d="m138.44 18.443c-0.023-0.586-0.519-1.09-1.48-1.515-0.934-0.43-2.117-0.707-3.559-0.844-1.441-0.133-2.707 0-3.8 0.402-1.09 0.399-1.614 0.891-1.559 1.481 0.055 0.586 0.559 1.093 1.519 1.519 0.907 0.399 2.083 0.668 3.52 0.801 1.414 0.133 2.68 0 3.801-0.402 1.094-0.371 1.613-0.852 1.558-1.442z" inkscape:connector-curvature="0"/>
      <path id="path86" style="fill-rule:evenodd;fill:#86abae" d="m199.64 37.603c0.132-0.343-0.094-0.718-0.684-1.117-0.637-0.402-1.41-0.64-2.316-0.718-0.907-0.055-1.696 0.078-2.364 0.398-0.664 0.32-0.945 0.652-0.84 1 0.161 0.641 1.176 1.027 3.043 1.16 1.891 0.133 2.946-0.105 3.161-0.723z" inkscape:connector-curvature="0"/>
      <path id="path88" style="fill-rule:evenodd;fill:#86abae" d="m215.76 37.084c0.082-0.641-0.332-1.277-1.239-1.918-0.906-0.641-2.121-1.16-3.64-1.559-1.492-0.375-2.867-0.429-4.121-0.16-1.2 0.238-1.824 0.664-1.879 1.281-0.055 0.614 0.387 1.227 1.32 1.84 0.906 0.586 2.106 1.067 3.598 1.438 1.469 0.402 2.816 0.492 4.043 0.281 1.199-0.187 1.84-0.59 1.918-1.203z" inkscape:connector-curvature="0"/>
      <path id="path90" style="fill-rule:evenodd;fill:#86abae" d="m199.04 40.525c-1.785-0.718-3.668-0.855-5.641-0.398-2.027 0.316-3.718 0.984-5.078 2-1.336 0.984-1.816 1.879-1.441 2.68 0.32 0.691 1.187 1.132 2.597 1.32 1.336 0.183 2.961 0.117 4.883-0.203 3.707-0.692 5.918-1.692 6.641-3 0.453-0.906-0.199-1.703-1.961-2.399z" inkscape:connector-curvature="0"/>
      <path id="path92" style="fill-rule:evenodd;fill:#86abae" d="m211 41.006c0.32-0.321 0.117-0.719-0.602-1.199-0.746-0.536-1.574-0.762-2.48-0.68-0.906 0.051-1.652 0.226-2.238 0.516-0.563 0.269-0.868 0.574-0.922 0.921-0.024 0.348 0.308 0.641 1 0.879 0.64 0.242 1.375 0.336 2.199 0.282 1.016-0.082 1.668-0.149 1.961-0.2 0.508-0.105 0.867-0.281 1.082-0.519z" inkscape:connector-curvature="0"/>
      <path id="path94" style="fill-rule:evenodd;fill:#809da1" d="m225.12 42.287c1.684 0.078 3.109-0.094 4.281-0.519 1.149-0.403 1.746-0.934 1.801-1.602 0.051-0.668-0.508-1.266-1.68-1.801-1.121-0.508-2.48-0.812-4.082-0.918-3.492-0.187-5.48 0.281-5.961 1.399-0.292 0.668 0.137 1.375 1.282 2.121 1.226 0.797 2.679 1.238 4.359 1.32z" inkscape:connector-curvature="0"/>
      <path id="path96" style="fill-rule:evenodd;fill:#809da1" d="m215.2 49.127c-0.027-0.242-0.281-0.402-0.762-0.481-0.453-0.109-0.984-0.109-1.597 0-0.586 0.079-1.082 0.239-1.481 0.481-0.425 0.238-0.625 0.476-0.601 0.719 0.027 0.265 0.265 0.453 0.718 0.558 0.481 0.133 1.043 0.16 1.684 0.082 0.613-0.109 1.117-0.308 1.52-0.601 0.398-0.266 0.57-0.52 0.519-0.758z" inkscape:connector-curvature="0"/>
      <path id="path98" style="fill-rule:evenodd;fill:#809da1" d="m182.88 18.084c0.027-0.504-0.36-1-1.16-1.481-0.746-0.449-1.746-0.812-3-1.078-1.254-0.265-2.293-0.375-3.118-0.32-0.91 0.082-1.48 0.348-1.722 0.801-0.238 0.48 0.055 1.051 0.883 1.719 0.824 0.718 1.879 1.214 3.16 1.48 1.25 0.293 2.398 0.309 3.437 0.039 0.989-0.238 1.492-0.625 1.52-1.16z" inkscape:connector-curvature="0"/>
      <path id="path100" style="fill-rule:evenodd;fill:#86abae" d="m189.2 19.646c-0.027-0.214-0.226-0.386-0.601-0.519-0.399-0.133-0.864-0.176-1.399-0.121-0.508-0.028-0.949 0.039-1.32 0.199s-0.574 0.359-0.602 0.602c-0.023 0.214 0.16 0.398 0.563 0.558 0.371 0.16 0.851 0.242 1.437 0.242 0.563-0.054 1.028-0.175 1.403-0.363 0.371-0.187 0.546-0.387 0.519-0.598z" inkscape:connector-curvature="0"/>
      <path id="path102" style="fill-rule:evenodd;fill:#86abae" d="m157.48 47.924c-0.242-0.906-1.8-1.453-4.679-1.637-1.364-0.082-2.375-0.066-3.043 0.039-0.879 0.106-1.453 0.387-1.719 0.84-0.32 0.504-0.016 1.105 0.918 1.801 0.988 0.746 2.187 1.16 3.601 1.238 1.415 0.082 2.641-0.16 3.68-0.719 0.988-0.508 1.403-1.027 1.242-1.562z" inkscape:connector-curvature="0"/>
      <path id="path104" style="fill-rule:evenodd;fill:#86abae" d="m110.4 27.244c-0.027-0.211-0.226-0.387-0.597-0.519-0.375-0.133-0.817-0.184-1.321-0.161-0.562 0.082-1.015 0.215-1.363 0.403-0.344 0.187-0.492 0.386-0.437 0.597 0.05 0.188 0.265 0.336 0.64 0.442 0.371 0.105 0.785 0.148 1.238 0.121 0.536-0.055 0.973-0.16 1.321-0.32 0.375-0.161 0.547-0.348 0.519-0.563z" inkscape:connector-curvature="0"/>
      <path id="path106" style="fill-rule:evenodd;fill:#97b3ab" d="m13.523 27.486c0.348-0.801-0.039-1.695-1.16-2.679-1.199-1.043-2.828-1.801-4.879-2.282-2-0.347-3.773-0.281-5.32 0.2-1.496 0.453-2.215 1.082-2.16 1.878 0 0.774 0.625 1.481 1.879 2.122 1.144 0.585 2.64 1.054 4.48 1.402 1.735 0.398 3.266 0.558 4.598 0.476 1.469-0.105 2.32-0.476 2.562-1.117z" inkscape:connector-curvature="0"/>
      <path id="path108" style="fill-rule:evenodd;fill:#86abae" d="m17.961 33.685c0.137-0.214 0.016-0.48-0.359-0.8-0.344-0.321-0.797-0.559-1.36-0.719-0.586-0.188-1.094-0.266-1.519-0.238-0.426 0.05-0.696 0.183-0.801 0.398-0.106 0.215 0.027 0.481 0.402 0.801 0.348 0.293 0.797 0.531 1.36 0.719 1.226 0.375 1.984 0.32 2.277-0.161z" inkscape:connector-curvature="0"/>
      <path id="path110" style="fill-rule:evenodd;fill:#86abae" d="m17.805 29.006c0-0.055-0.028-0.094-0.082-0.121l-0.121-0.039c-0.024 0.027-0.012 0.066 0.043 0.121 0.078 0.051 0.132 0.066 0.16 0.039z" inkscape:connector-curvature="0"/>
      <path id="path112" style="fill-rule:evenodd;fill:#809da1" d="m30.883 32.846c0.187-0.746-0.215-1.602-1.199-2.559-0.961-0.934-2.309-1.816-4.039-2.641-1.735-0.828-3.375-1.253-4.922-1.281-1.575-0.027-2.465 0.348-2.68 1.121-0.215 0.746 0.172 1.614 1.16 2.598 0.961 0.961 2.32 1.855 4.078 2.68 1.735 0.828 3.387 1.242 4.961 1.242 1.547 0.027 2.426-0.36 2.641-1.16z" inkscape:connector-curvature="0"/>
      <path id="path114" style="fill-rule:evenodd;fill:#86abae" d="m30.484 37.404c0.051-0.238-0.093-0.492-0.441-0.758-0.348-0.269-0.801-0.48-1.359-0.64-1.282-0.375-2.028-0.36-2.243 0.039-0.132 0.187-0.023 0.453 0.321 0.801 0.347 0.375 0.816 0.652 1.402 0.839 0.559 0.161 1.078 0.215 1.559 0.161 0.453-0.055 0.707-0.2 0.761-0.442z" inkscape:connector-curvature="0"/>
      <path id="path116" style="fill-rule:evenodd;fill:#86abae" d="m31.922 14.564c0.801-0.16 1.254-0.453 1.359-0.879 0.137-0.425-0.16-0.882-0.879-1.359-0.773-0.48-1.718-0.789-2.84-0.922-1.011-0.238-2.054-0.078-3.121 0.481-1.066 0.558-1.359 1.054-0.879 1.48 0.508 0.348 0.934 0.586 1.282 0.719 0.586 0.242 1.386 0.414 2.398 0.519 1.039 0.137 1.934 0.122 2.68-0.039z" inkscape:connector-curvature="0"/>
      <path id="path118" style="fill-rule:evenodd;fill:#86abae" d="m37.281 16.764c-0.051-0.293-0.386-0.438-1-0.438-0.719 0-1.078 0.133-1.078 0.399 0.055 0.293 0.387 0.441 1 0.441 0.774 0 1.133-0.133 1.078-0.402z" inkscape:connector-curvature="0"/>
      <path id="path120" style="fill-rule:evenodd;fill:#86abae" d="m85.523 2.603c0.426-0.718-0.054-1.382-1.441-2-1.387-0.585-2.824-0.746-4.32-0.476-1.574 0.183-2.879 0.598-3.918 1.238-1.039 0.641-1.481 1.281-1.321 1.918 0.133 0.586 0.758 1 1.879 1.242 1.094 0.239 2.387 0.282 3.879 0.118 2.696-0.317 4.442-0.997 5.242-2.04z" inkscape:connector-curvature="0"/>
      <path id="path122" style="fill-rule:evenodd;fill:#86abae" d="m92.645 7.443c0.558-0.211 0.863-0.476 0.917-0.797 0.055-0.32-0.214-0.613-0.8-0.882-0.559-0.293-1.266-0.465-2.117-0.52-0.856 0.027-1.563 0.176-2.122 0.441-0.562 0.243-0.828 0.52-0.8 0.84 0.054 0.348 0.359 0.629 0.922 0.84 0.531 0.215 1.183 0.309 1.957 0.281 0.773 0.051 1.453-0.015 2.043-0.203z" inkscape:connector-curvature="0"/>
      <path id="path124" style="fill-rule:evenodd;fill:#86abae" d="m104.8 4.045c0.211-0.586-0.188-1.227-1.203-1.918-1.067-0.695-2.36-1.149-3.879-1.359-1.52-0.215-2.868-0.137-4.039 0.238-1.149 0.347-1.723 0.84-1.723 1.48 0 0.614 0.508 1.16 1.523 1.641 0.934 0.48 2.145 0.84 3.637 1.078 1.469 0.215 2.723 0.215 3.762 0 1.094-0.215 1.734-0.602 1.922-1.16z" inkscape:connector-curvature="0"/>
      <path id="path126" style="fill-rule:evenodd;fill:#86abae" d="m102.96 82.127c-0.133-1.094-1.559-1.922-4.277-2.481-2.668-0.507-4.293-0.32-4.879 0.559-0.321 0.48-0.043 1.066 0.84 1.762 0.906 0.718 2 1.199 3.277 1.437 1.254 0.266 2.426 0.254 3.519-0.039 1.067-0.265 1.575-0.68 1.52-1.238z" inkscape:connector-curvature="0"/>
      <path id="path128" style="fill-rule:evenodd;fill:#809da1" d="m120.72 76.764c-0.106-0.586-0.696-1-1.762-1.239-1.09-0.238-2.344-0.226-3.758 0.039-1.387 0.188-2.547 0.547-3.48 1.082-0.934 0.532-1.387 1.094-1.36 1.68 0.051 0.586 0.614 1.027 1.68 1.32 1.094 0.266 2.387 0.305 3.879 0.118 1.441-0.239 2.629-0.653 3.562-1.239 0.957-0.586 1.371-1.172 1.239-1.761z" inkscape:connector-curvature="0"/>
      <path id="path130" style="fill-rule:evenodd;fill:#86abae" d="m114.04 84.603c-0.105-0.453-0.559-0.824-1.359-1.117-0.774-0.242-1.746-0.375-2.922-0.402-1.2-0.024-2.2 0.094-3 0.359-0.852 0.27-1.305 0.641-1.36 1.121-0.054 0.481 0.336 0.934 1.16 1.36 0.852 0.429 1.895 0.656 3.122 0.679 1.226 0.028 2.293-0.183 3.199-0.636 0.855-0.403 1.238-0.856 1.16-1.364z" inkscape:connector-curvature="0"/>
      <path id="path132" style="fill-rule:evenodd;fill:#86abae" d="m137.4 78.807c-0.027-0.774-0.757-1.348-2.199-1.723-1.519-0.371-3.226-0.359-5.121 0.043-1.891 0.398-3.437 1.094-4.641 2.078-1.199 0.961-1.636 1.801-1.32 2.52 0.32 0.695 1.16 1.105 2.524 1.242 1.25 0.133 2.796 0 4.636-0.403 1.789-0.398 3.254-0.933 4.403-1.597 1.171-0.696 1.746-1.414 1.718-2.16z" inkscape:connector-curvature="0"/>
      <path id="path134" style="fill-rule:evenodd;fill:#809da1" d="m151.2 75.244c-0.027-0.238-0.265-0.398-0.719-0.48-0.453-0.079-0.972-0.051-1.562 0.082-0.586 0.105-1.067 0.293-1.438 0.558-0.375 0.266-0.546 0.52-0.519 0.762 0.051 0.238 0.305 0.398 0.758 0.48 0.453 0.079 0.972 0.051 1.558-0.082 0.59-0.132 1.071-0.32 1.442-0.558 0.371-0.266 0.531-0.52 0.48-0.762z" inkscape:connector-curvature="0"/>
      <path id="path136" style="fill-rule:evenodd;fill:#86abae" d="m81.402 14.365c-0.773-1.121-1.64-2.027-2.597-2.719-1.336-0.961-3.336-1.949-6-2.961-1.547-0.531-3.11-0.757-4.684-0.679-0.719 0.027-1.703 0.172-2.957 0.437-1.043 0.321-1.707 0.535-2 0.641-0.641 0.293-1.121 0.641-1.441 1.043-0.375 0.453-0.399 1.066-0.078 1.84 0.371 0.824 1.066 1.558 2.078 2.199 0.879 0.531 2.027 1.012 3.441 1.441 1.813 0.532 2.84 0.852 3.078 0.957 3.121 1.067 5.735 1.387 7.84 0.961 1.227-0.238 2.176-0.707 2.84-1.398 0.613-0.668 0.773-1.254 0.48-1.762z" inkscape:connector-curvature="0"/>
    </g>
  </g>
<metadata><rdf:RDF><cc:Work><dc:format>image/svg+xml</dc:format><dc:type rdf:resource="http://purl.org/dc/dcmitype/StillImage"/><cc:license rdf:resource="http://creativecommons.org/licenses/publicdomain/"/><dc:publisher><cc:Agent rdf:about="http://openclipart.org/"><dc:title>Openclipart</dc:title></cc:Agent></dc:publisher></cc:Work><cc:License rdf:about="http://creativecommons.org/licenses/publicdomain/"><cc:permits rdf:resource="http://creativecommons.org/ns#Reproduction"/><cc:permits rdf:resource="http://creativecommons.org/ns#Distribution"/><cc:permits rdf:resource="http://creativecommons.org/ns#DerivativeWorks"/></cc:License></rdf:RDF></metadata></svg>
