<?xml version="1.0" encoding="UTF-8" standalone="no"?>
<!-- Created with Inkscape (http://www.inkscape.org/) -->
<svg xmlns:inkscape="http://www.inkscape.org/namespaces/inkscape" xmlns:rdf="http://www.w3.org/1999/02/22-rdf-syntax-ns#" xmlns="http://www.w3.org/2000/svg" xmlns:xlink="http://www.w3.org/1999/xlink" xmlns:ns1="http://sozi.baierouge.fr" xmlns:cc="http://creativecommons.org/ns#" xmlns:sodipodi="http://sodipodi.sourceforge.net/DTD/sodipodi-0.dtd" xmlns:dc="http://purl.org/dc/elements/1.1/" id="svg2" xml:space="preserve" viewBox="0 0 292.4 85.316" version="1.1" inkscape:version="0.91 r13725">
  <g id="g10" transform="matrix(1.25 0 0 -1.25 0 85.316)">
    <g id="g12">
      <path id="path14" style="fill-rule:evenodd;fill:#86abae" d="m76.117 29.616c-0.051-0.746-0.707-1.398-1.961-1.957-1.226-0.508-2.691-0.828-4.398-0.961-3.867-0.375-6 0.094-6.399 1.399-0.242 0.695 0.278 1.468 1.559 2.32 1.332 0.906 2.922 1.441 4.762 1.601 1.812 0.161 3.371-0.027 4.679-0.562 1.227-0.477 1.813-1.09 1.758-1.84z" inkscape:connector-curvature="0"/>
      <path id="path16" style="fill-rule:evenodd;fill:#86abae" d="m85.316 33.698c0.055-0.187-0.066-0.375-0.359-0.558-0.293-0.188-0.664-0.336-1.117-0.442-1.043-0.187-1.602-0.082-1.684 0.32-0.027 0.188 0.11 0.372 0.403 0.559 0.293 0.188 0.664 0.336 1.121 0.441 1.039 0.188 1.586 0.079 1.636-0.32z" inkscape:connector-curvature="0"/>
      <path id="path18" style="fill-rule:evenodd;fill:#97b3ab" d="m87.078 41.698c-0.426-0.801-1.332-1.469-2.719-2-0.562-0.215-2.187-0.707-4.882-1.48-2.161-0.586-3.973-0.867-5.438-0.84-1.734 0-2.746 0.426-3.043 1.281-0.316 0.906 0.203 1.984 1.563 3.238 1.464 1.36 3.414 2.375 5.839 3.039 2.454 0.696 4.692 0.563 6.719-0.398 1.895-0.906 2.547-1.855 1.961-2.84z" inkscape:connector-curvature="0"/>
      <path id="path20" style="fill-rule:evenodd;fill:#809da1" d="m96.117 24.979c4.426-0.214 6.668-1.043 6.719-2.484 0.082-0.852-0.586-1.652-2-2.398-1.543-0.825-3.398-1.2-5.559-1.118-2.187 0.211-3.918 0.891-5.199 2.039-1.176 1.012-1.547 1.934-1.121 2.758 0.348 0.696 1.242 1.11 2.68 1.242 0.906 0.106 2.402 0.094 4.48-0.039z" inkscape:connector-curvature="0"/>
      <path id="path22" style="fill-rule:evenodd;fill:#86abae" d="m112.84 20.179c0.055-0.293-0.184-0.586-0.719-0.883-0.586-0.317-1.265-0.465-2.039-0.438-0.773 0.024-1.426 0.25-1.961 0.68-0.48 0.371-0.625 0.691-0.437 0.957 0.211 0.43 1.093 0.617 2.636 0.563 1.575-0.051 2.414-0.348 2.52-0.879z" inkscape:connector-curvature="0"/>
      <path id="path24" style="fill-rule:evenodd;fill:#809da1" d="m143.52 40.979c-0.11-1.043-1.082-1.933-2.922-2.683-1.762-0.692-3.852-1.09-6.282-1.199-5.519-0.239-8.504 0.535-8.957 2.32-0.297 1.039 0.477 2.133 2.317 3.281 1.922 1.227 4.203 1.895 6.844 2 2.585 0.106 4.769-0.226 6.558-1 1.707-0.746 2.52-1.652 2.442-2.719z" inkscape:connector-curvature="0"/>
      <path id="path26" style="fill-rule:evenodd;fill:#86abae" d="m155.32 34.378c-0.183-0.719-1.226-1-3.117-0.84-1.894 0.16-2.84 0.574-2.84 1.238-0.027 0.348 0.278 0.668 0.918 0.961 0.668 0.293 1.426 0.414 2.282 0.36 0.851-0.079 1.558-0.305 2.117-0.68 0.535-0.344 0.75-0.691 0.64-1.039z" inkscape:connector-curvature="0"/>
      <path id="path28" style="fill-rule:evenodd;fill:#86abae" d="m174.2 41.257c-0.109-0.906-0.883-1.707-2.32-2.399-1.414-0.695-3.199-1.175-5.359-1.441-2.161-0.266-4.067-0.078-5.723 0.562-1.598 0.614-2.305 1.372-2.117 2.278 0.183 0.883 0.984 1.64 2.398 2.281 1.36 0.613 3.121 1.051 5.281 1.32 2.133 0.266 4.016 0.121 5.641-0.441 1.598-0.531 2.332-1.254 2.199-2.16z" inkscape:connector-curvature="0"/>
      <path id="path30" style="fill-rule:evenodd;fill:#809da1" d="m202.56 33.936c0.16-1.039-0.68-1.984-2.52-2.839-2-0.934-4.242-1.239-6.719-0.918-2.457 0.371-4.429 1.105-5.922 2.199-1.386 1.015-1.96 2.027-1.718 3.039 0.238 0.961 1.281 1.601 3.117 1.922 1.683 0.32 3.641 0.32 5.883 0 2.371-0.321 4.172-0.707 5.398-1.16 1.547-0.586 2.371-1.336 2.481-2.243z" inkscape:connector-curvature="0"/>
      <path id="path32" style="fill-rule:evenodd;fill:#86abae" d="m208.08 39.737c-0.133-0.32-0.652-0.48-1.558-0.48-0.403 0-0.747 0.066-1.043 0.199-0.293 0.137-0.426 0.297-0.399 0.48 0.082 0.348 0.602 0.547 1.559 0.602 0.425 0 0.801-0.094 1.121-0.281 0.293-0.184 0.398-0.36 0.32-0.52z" inkscape:connector-curvature="0"/>
      <path id="path34" style="fill-rule:evenodd;fill:#86abae" d="m197.72 42.776c-0.375-0.531-1.149-0.824-2.321-0.879-0.851-0.027-2.121 0.094-3.8 0.36-3.52 0.562-5.332 1.402-5.442 2.519-0.051 0.75 0.563 1.403 1.84 1.961 1.414 0.614 3 0.785 4.762 0.52 1.762-0.293 3.16-0.973 4.199-2.039 0.961-0.989 1.215-1.801 0.762-2.442z" inkscape:connector-curvature="0"/>
      <path id="path36" style="fill-rule:evenodd;fill:#86abae" d="m154.2 50.819c-0.027-0.269-0.269-0.508-0.722-0.722-0.454-0.184-0.985-0.293-1.598-0.321-0.641-0.023-1.188 0.055-1.641 0.242-0.453 0.188-0.668 0.415-0.64 0.68 0.054 0.266 0.293 0.492 0.718 0.68 0.454 0.187 1 0.293 1.641 0.32 0.613 0.028 1.148-0.055 1.602-0.242 0.453-0.16 0.664-0.371 0.64-0.637z" inkscape:connector-curvature="0"/>
      <path id="path38" style="fill-rule:evenodd;fill:#86abae" d="m187.16 49.897c0.028-0.398-0.32-0.785-1.039-1.16-0.746-0.375-1.625-0.574-2.64-0.597-1.039-0.028-1.934 0.132-2.68 0.476-0.692 0.348-0.985 0.735-0.879 1.16 0.184 0.828 1.414 1.297 3.68 1.403 0.984 0.05 1.824-0.039 2.519-0.282 0.695-0.238 1.039-0.574 1.039-1z" inkscape:connector-curvature="0"/>
      <path id="path40" style="fill-rule:evenodd;fill:#86abae" d="m109.84 31.616c-0.051 0.801 0.656 1.481 2.121 2.043 1.52 0.613 3.188 0.824 5 0.637 3.949-0.399 6.066-1.289 6.359-2.68 0.188-0.797-0.48-1.531-2-2.199-1.597-0.719-3.32-0.973-5.16-0.758-1.863 0.184-3.359 0.531-4.476 1.039-1.176 0.508-1.789 1.145-1.844 1.918z" inkscape:connector-curvature="0"/>
      <path id="path42" style="fill-rule:evenodd;fill:#86abae" d="m100.4 37.936c-4.187-1.066-6.601-0.945-7.242 0.36-0.371 0.695 0.055 1.617 1.282 2.762 1.335 1.226 3.015 2.105 5.039 2.64 2.027 0.453 3.8 0.481 5.32 0.078 1.469-0.398 2.199-1.011 2.199-1.84 0-0.796-0.652-1.574-1.957-2.32-1.227-0.691-2.773-1.254-4.641-1.68z" inkscape:connector-curvature="0"/>
      <path id="path44" style="fill-rule:evenodd;fill:#86abae" d="m91.078 46.616c-0.055 0.16 0.094 0.336 0.442 0.524 0.343 0.183 0.746 0.293 1.199 0.316 0.453 0.027 0.84-0.039 1.16-0.199s0.453-0.344 0.398-0.559c-0.078-0.347-0.625-0.547-1.64-0.601-0.985-0.051-1.504 0.121-1.559 0.519z" inkscape:connector-curvature="0"/>
      <path id="path46" style="fill-rule:evenodd;fill:#809da1" d="m56.238 33.097c-0.242 0.535 0.133 1.132 1.121 1.8 0.985 0.719 2.118 1.176 3.399 1.36 1.332 0.215 2.387 0.281 3.16 0.199 0.641-0.078 1.199-0.277 1.68-0.598 0.535-0.425 0.254-1.105-0.84-2.039-1.094-0.91-2.281-1.414-3.559-1.523-2.855-0.453-4.508-0.184-4.961 0.801z" inkscape:connector-curvature="0"/>
      <path id="path48" style="fill-rule:evenodd;fill:#97b3ab" d="m48.758 28.979c1.039-0.484 1.668-1.054 1.879-1.722 0.293-0.824-0.371-1.574-2-2.239-1.707-0.695-3.492-0.8-5.36-0.32-1.812 0.453-3.238 1.039-4.281 1.758-0.984 0.695-1.465 1.43-1.437 2.203 0.05 0.824 0.839 1.399 2.359 1.719 1.547 0.32 3.172 0.254 4.879-0.199 1.894-0.481 3.215-0.883 3.961-1.2z" inkscape:connector-curvature="0"/>
      <path id="path50" style="fill-rule:evenodd;fill:#86abae" d="m54.199 24.698c-0.027 0.215 0.145 0.387 0.52 0.52 0.347 0.16 0.746 0.226 1.199 0.199 0.453 0 0.84-0.106 1.16-0.32 0.32-0.184 0.442-0.371 0.36-0.559-0.133-0.375-0.692-0.531-1.68-0.48-0.985 0.054-1.508 0.265-1.559 0.64z" inkscape:connector-curvature="0"/>
      <path id="path52" style="fill-rule:evenodd;fill:#809da1" d="m26.797 30.577c-0.211-0.906-1.613-1.691-4.199-2.359-1.172-0.293-2.227-0.375-3.16-0.239-0.961 0.133-1.465 0.45-1.52 0.957-0.055 0.508 0.305 1.043 1.078 1.602 0.777 0.586 1.801 1.039 3.082 1.359 1.254 0.321 2.399 0.321 3.442 0 1.011-0.32 1.437-0.757 1.277-1.32z" inkscape:connector-curvature="0"/>
      <path id="path54" style="fill-rule:evenodd;fill:#809da1" d="m34.078 37.378c-0.266-0.695-1.254-1.121-2.961-1.281-0.801-0.079-1.504-0.039-2.121 0.121-0.664 0.16-0.84 0.441-0.519 0.84-0.293 0.265-0.133 0.574 0.48 0.921 0.613 0.317 1.336 0.52 2.16 0.598 0.801 0.106 1.535 0.016 2.199-0.281 0.641-0.266 0.895-0.57 0.762-0.918z" inkscape:connector-curvature="0"/>
      <path id="path56" style="fill-rule:evenodd;fill:#86abae" d="m42.359 39.097c-0.242 0.48 0.094 1.066 1 1.761 0.907 0.692 2 1.16 3.278 1.399 1.281 0.293 2.441 0.281 3.48-0.039 0.988-0.293 1.426-0.719 1.321-1.282-0.161-1.039-1.614-1.851-4.36-2.437-2.668-0.508-4.238-0.309-4.719 0.598z" inkscape:connector-curvature="0"/>
      <path id="path58" style="fill-rule:evenodd;fill:#86abae" d="m80.957 51.097c-0.078-0.801-1.227-1.438-3.437-1.918-1.68-0.348-2.883-0.336-3.602 0.039-0.453 0.265-0.293 0.8 0.48 1.601 0.801 0.797 1.719 1.25 2.758 1.36 1.043 0.211 1.961 0.183 2.762-0.082 0.746-0.239 1.094-0.575 1.039-1z" inkscape:connector-curvature="0"/>
      <path id="path60" style="fill-rule:evenodd;fill:#86abae" d="m61.398 47.296c-0.027 0.215 0.145 0.414 0.52 0.601 0.375 0.188 0.801 0.309 1.281 0.36 0.504 0.027 0.934-0.028 1.278-0.16 0.375-0.106 0.546-0.266 0.519-0.481-0.051-0.453-0.652-0.746-1.797-0.879-0.48-0.054-0.894-0.027-1.242 0.082-0.344 0.133-0.531 0.293-0.559 0.477z" inkscape:connector-curvature="0"/>
      <path id="path62" style="fill-rule:evenodd;fill:#97b3ab" d="m42.52 46.296c-0.11 0.777 0.437 1.59 1.636 2.441 1.282 0.879 2.895 1.52 4.84 1.922 1.949 0.371 3.684 0.266 5.203-0.32 1.438-0.586 2.051-1.293 1.84-2.121-0.293-1.305-2.469-2.36-6.519-3.16-1.79-0.348-3.348-0.426-4.68-0.239-1.442 0.239-2.215 0.731-2.32 1.477z" inkscape:connector-curvature="0"/>
      <path id="path64" style="fill-rule:evenodd;fill:#86abae" d="m0.156 31.858c-0.398 0.508-0.039 1.172 1.082 2 1.2 0.852 2.547 1.239 4.039 1.16 2.852-0.187 4.469-0.828 4.84-1.921 0.215-0.614-0.277-1.184-1.48-1.719-1.172-0.531-2.414-0.735-3.719-0.598-1.734 0.106-2.746 0.184-3.039 0.238-0.856 0.133-1.426 0.415-1.723 0.84z" inkscape:connector-curvature="0"/>
      <path id="path66" style="fill-rule:evenodd;fill:#809da1" d="m19.156 37.179c0.11-0.321-0.144-0.68-0.758-1.082-0.613-0.371-1.347-0.614-2.199-0.719-0.855-0.082-1.574-0.016-2.16 0.199-0.562 0.188-0.855 0.453-0.883 0.801 0 0.348 0.309 0.668 0.922 0.961 0.586 0.293 1.281 0.465 2.078 0.519 1.817 0.188 2.817-0.039 3-0.679z" inkscape:connector-curvature="0"/>
      <path id="path68" style="fill-rule:evenodd;fill:#86abae" d="m108.48 62.698c-0.024-0.773-0.731-1.441-2.118-2-1.281-0.535-2.839-0.84-4.679-0.922-3.844-0.078-6.028 0.453-6.563 1.602-0.371 0.746 0.16 1.586 1.602 2.519 1.519 0.989 3.226 1.493 5.117 1.52 1.922 0.082 3.535-0.16 4.844-0.719 1.25-0.558 1.851-1.226 1.797-2z" inkscape:connector-curvature="0"/>
      <path id="path70" style="fill-rule:evenodd;fill:#809da1" d="m121.04 53.979c0.106-0.453-0.187-0.933-0.883-1.441-0.746-0.535-1.691-0.906-2.84-1.121-1.117-0.238-2.132-0.145-3.039 0.281-0.851 0.399-1.187 0.84-1 1.32 0.161 0.399 0.586 0.735 1.282 1 0.503 0.188 1.332 0.399 2.48 0.641 1.039 0.184 1.934 0.227 2.68 0.117 0.801-0.105 1.238-0.371 1.32-0.797z" inkscape:connector-curvature="0"/>
      <path id="path72" style="fill-rule:evenodd;fill:#86abae" d="m129.72 59.577c-0.535-0.664-1.254-1.187-2.16-1.559-0.883-0.347-1.668-0.519-2.36-0.519-0.668 0.027-1.066 0.211-1.203 0.559-0.105 0.347 0.109 0.773 0.641 1.281 0.562 0.504 1.254 0.918 2.082 1.238 1.84 0.719 2.972 0.856 3.398 0.402 0.266-0.269 0.133-0.734-0.398-1.402z" inkscape:connector-curvature="0"/>
      <path id="path74" style="fill-rule:evenodd;fill:#86abae" d="m142.56 58.577c0.558-0.719 0.265-1.801-0.883-3.238-1.278-1.629-3.133-2.801-5.559-3.52-2.371-0.535-4.387-0.496-6.039 0.117-1.492 0.536-2.215 1.27-2.16 2.204 0.027 1.437 2.387 2.73 7.078 3.878 2.695 0.692 4.215 1.067 4.563 1.122 1.546 0.238 2.546 0.05 3-0.563z" inkscape:connector-curvature="0"/>
      <path id="path76" style="fill-rule:evenodd;fill:#97b3ab" d="m150.76 64.378c-0.028-0.481-0.442-0.906-1.238-1.281-0.75-0.371-1.668-0.625-2.762-0.758-2.399-0.375-3.774-0.188-4.121 0.558-0.211 0.426 0.082 0.95 0.883 1.559 0.824 0.668 1.824 1.082 3 1.242 1.171 0.16 2.187 0.094 3.039-0.199 0.824-0.27 1.226-0.641 1.199-1.121z" inkscape:connector-curvature="0"/>
      <path id="path78" style="fill-rule:evenodd;fill:#86abae" d="m167.6 65.378c-0.106-0.481-0.602-0.801-1.481-0.961-0.906-0.16-1.933-0.106-3.082 0.16-1.09 0.242-1.973 0.613-2.637 1.121-0.695 0.508-0.988 1-0.882 1.481 0.109 0.48 0.601 0.8 1.48 0.961 0.906 0.183 1.934 0.144 3.082-0.122 1.094-0.265 1.984-0.656 2.68-1.16 0.668-0.507 0.949-1 0.84-1.48z" inkscape:connector-curvature="0"/>
      <path id="path80" style="fill-rule:evenodd;fill:#97b3ab" d="m167.2 58.737c-0.16-0.48-0.707-0.785-1.64-0.918-0.907-0.109-1.922 0-3.039 0.321-2.536 0.691-3.75 1.543-3.641 2.558 0.051 0.508 0.559 0.879 1.519 1.121 0.985 0.239 2.067 0.199 3.239-0.121 1.175-0.347 2.109-0.801 2.801-1.359 0.667-0.586 0.921-1.121 0.761-1.602z" inkscape:connector-curvature="0"/>
      <path id="path82" style="fill-rule:evenodd;fill:#97b3ab" d="m185.32 59.179c-0.211-0.883-1.117-1.481-2.718-1.801-1.547-0.348-3.332-0.348-5.36 0-2.054 0.375-3.691 0.933-4.918 1.68-1.23 0.746-1.828 1.546-1.8 2.398 0.027 0.906 0.878 1.602 2.558 2.082 1.734 0.48 3.613 0.52 5.641 0.121 2.054-0.348 3.719-0.976 5-1.883 1.277-0.879 1.812-1.746 1.597-2.597z" inkscape:connector-curvature="0"/>
      <path id="path84" style="fill-rule:evenodd;fill:#86abae" d="m217.56 46.499c-0.133-0.375-0.547-0.574-1.243-0.602-0.718-0.027-1.504 0.121-2.359 0.442-0.824 0.371-1.48 0.824-1.961 1.359-0.449 0.508-0.586 0.934-0.398 1.281 0.214 0.344 0.668 0.52 1.359 0.52 0.695-0.027 1.414-0.215 2.16-0.563 0.828-0.293 1.481-0.679 1.961-1.16 0.453-0.48 0.613-0.906 0.481-1.277z" inkscape:connector-curvature="0"/>
      <path id="path86" style="fill-rule:evenodd;fill:#86abae" d="m183.28 25.538c0.215-0.426-0.093-0.934-0.918-1.52-0.882-0.667-1.921-1.05-3.121-1.16-1.199-0.078-2.199 0.055-3 0.399-0.8 0.347-1.172 0.761-1.117 1.242 0.024 0.453 0.453 0.852 1.277 1.199 0.774 0.32 1.707 0.52 2.801 0.602 2.371 0.238 3.731-0.016 4.078-0.762z" inkscape:connector-curvature="0"/>
      <path id="path88" style="fill-rule:evenodd;fill:#86abae" d="m72.559 58.979c-0.133-0.402-0.52-0.789-1.161-1.16-0.878-0.457-1.613-0.828-2.199-1.121-1.066-0.508-1.988-0.801-2.761-0.879l-0.321-0.043c-0.078-0.16-0.332-0.172-0.758-0.039-0.402 0.133-0.586 0.321-0.562 0.559-0.16 0.242-0.106 0.551 0.16 0.922l0.242 0.32 0.199 0.078c0.215 0.027 0.399 0.027 0.559 0 0.348-0.078 0.52-0.238 0.52-0.476 0.027-0.161 0.015-0.387-0.039-0.684l-0.122-0.398v-0.079c0.481 0.426 0.602 0.825 0.364 1.2 0.023 0.211-0.16 0.386-0.563 0.519-0.398 0.16-0.625 0.16-0.679 0-0.028 0.028 0.027 0.106 0.16 0.238 0.695 0.747 1.507 1.336 2.441 1.762 1.117 0.586 2.227 0.746 3.32 0.481 1.012-0.266 1.414-0.668 1.2-1.2z" inkscape:connector-curvature="0"/>
      <path id="path90" style="fill-rule:evenodd;fill:#86abae" d="m132.2 4.058c-0.828-0.348-1.828-0.536-3-0.559-1.203 0.023-2.215 0.305-3.043 0.84-0.773 0.531-1.051 1.027-0.84 1.48 0.375 0.774 1.774 1.16 4.204 1.16 1.089 0 2.039-0.16 2.839-0.48 0.797-0.32 1.172-0.719 1.118-1.203-0.051-0.477-0.481-0.891-1.278-1.238z" inkscape:connector-curvature="0"/>
      <path id="path92" style="fill-rule:evenodd;fill:#86abae" d="m108.08 3.659c-0.16 0.746 0.492 1.348 1.961 1.797 1.547 0.453 3.106 0.414 4.68-0.117 3.226-1.067 4.867-2.293 4.918-3.68-0.024-0.75-0.758-1.254-2.199-1.519-1.442-0.27-2.895-0.149-4.36 0.359-1.601 0.508-2.773 0.973-3.519 1.398-0.879 0.508-1.375 1.094-1.481 1.762z" inkscape:connector-curvature="0"/>
      <path id="path94" style="fill-rule:evenodd;fill:#86abae" d="m36.758 58.979c-0.215-0.961-1.535-1.734-3.961-2.32-1.012-0.269-1.945-0.375-2.801-0.32-0.398 0.023-0.625 0.133-0.68 0.32-0.023 0.586-0.16 0.637-0.398 0.16-0.535-0.613-0.734-0.402-0.602 0.637 0.188 0.457 0.508 0.855 0.961 1.203 0.828 0.692 1.84 1.172 3.039 1.438 1.149 0.293 2.215 0.32 3.204 0.082 0.957-0.266 1.371-0.668 1.238-1.2z" inkscape:connector-curvature="0"/>
      <path id="path96" style="fill-rule:evenodd;fill:#809da1" d="m166.96 35.979c0.242 0.266 0.481 0.438 0.719 0.52 0.883 0.32 1.855 0.641 2.922 0.957 2.613 0.695 4.05 0.641 4.32-0.16 0.184-0.449-0.066-1.012-0.762-1.68-0.746-0.691-1.734-1.211-2.961-1.558-0.476-0.215-1.117-0.293-1.918-0.239-0.773 0.051-1.132 0.145-1.082 0.278-0.019-0.043-0.039 0.031-0.058 0.222l-0.34-0.179h-0.399c-0.054-0.188-0.281 0-0.679 0.558-0.082 0.453-0.071 0.785 0.039 1 0.133 0.133 0.199 0.227 0.199 0.281z" inkscape:connector-curvature="0"/>
      <path id="path98" style="fill-rule:evenodd;fill:#86abae" d="m207.92 54.456c-0.398-0.691-1.332-0.984-2.801-0.879-1.254 0.082-2.746 0.426-4.48 1.039-2.078 0.774-3.36 1.297-3.84 1.563-1.067 0.531-1.719 1.16-1.961 1.879-0.348 0.878 0.387 1.64 2.199 2.281 1.922 0.691 3.856 0.664 5.801-0.082 1.949-0.719 3.414-1.707 4.402-2.961 0.934-1.172 1.16-2.117 0.68-2.84z" inkscape:connector-curvature="0"/>
      <path id="path100" style="fill-rule:evenodd;fill:#86abae" d="m233.92 44.456c0.051-0.559-0.332-1.133-1.16-1.719-0.879-0.64-1.985-1.133-3.32-1.48-1.333-0.371-2.547-0.453-3.641-0.239-1.067 0.211-1.598 0.614-1.598 1.2 0.024 0.558 0.465 1.105 1.321 1.64 0.796 0.532 1.863 0.985 3.199 1.36 1.332 0.371 2.519 0.48 3.558 0.32 1.039-0.133 1.586-0.492 1.641-1.082z" inkscape:connector-curvature="0"/>
      <path id="path102" style="fill-rule:evenodd;fill:#86abae" d="m226.56 47.339c0.05-0.293-0.176-0.586-0.68-0.883-0.535-0.316-1.16-0.492-1.883-0.52-0.719-0.023-1.348 0.094-1.879 0.36-0.48 0.242-0.695 0.508-0.64 0.801 0.132 0.613 0.984 0.949 2.558 1 0.695 0.054 1.27 0.015 1.723-0.118 0.508-0.136 0.773-0.347 0.801-0.64z" inkscape:connector-curvature="0"/>
    </g>
  </g>
<metadata><rdf:RDF><cc:Work><dc:format>image/svg+xml</dc:format><dc:type rdf:resource="http://purl.org/dc/dcmitype/StillImage"/><cc:license rdf:resource="http://creativecommons.org/licenses/publicdomain/"/><dc:publisher><cc:Agent rdf:about="http://openclipart.org/"><dc:title>Openclipart</dc:title></cc:Agent></dc:publisher></cc:Work><cc:License rdf:about="http://creativecommons.org/licenses/publicdomain/"><cc:permits rdf:resource="http://creativecommons.org/ns#Reproduction"/><cc:permits rdf:resource="http://creativecommons.org/ns#Distribution"/><cc:permits rdf:resource="http://creativecommons.org/ns#DerivativeWorks"/></cc:License></rdf:RDF></metadata></svg>
