<?xml version="1.0" encoding="UTF-8" standalone="no"?>
<!-- Created with Inkscape (http://www.inkscape.org/) -->
<svg xmlns:inkscape="http://www.inkscape.org/namespaces/inkscape" xmlns:rdf="http://www.w3.org/1999/02/22-rdf-syntax-ns#" xmlns="http://www.w3.org/2000/svg" xmlns:xlink="http://www.w3.org/1999/xlink" xmlns:ns1="http://sozi.baierouge.fr" xmlns:cc="http://creativecommons.org/ns#" xmlns:sodipodi="http://sodipodi.sourceforge.net/DTD/sodipodi-0.dtd" xmlns:dc="http://purl.org/dc/elements/1.1/" id="svg2" xml:space="preserve" viewBox="0 0 733.03 96.494" version="1.1" inkscape:version="0.91 r13725">
  <g id="g10" transform="matrix(1.25 0 0 -1.25 0 96.494)">
    <g id="g12">
      <path id="path14" style="fill-rule:evenodd;fill:#87abae" d="m457.78 65.109c-0.64-0.43-1.894-0.59-3.762-0.48-2.425 0.238-4.359 0.414-5.8 0.519-2.852 0.238-4.985 0.492-6.399 0.758-2.082 0.426-3.293 0.988-3.64 1.68-0.426 0.8 0.265 1.547 2.078 2.242 2 0.746 4.59 1.012 7.761 0.801 3.332-0.27 6.082-1.149 8.239-2.641 2-1.387 2.508-2.348 1.523-2.879z" inkscape:connector-curvature="0"/>
      <path id="path16" style="fill-rule:evenodd;fill:#819da1" d="m531.82 66.629c0.078-0.961-0.922-1.641-3-2.043-1.972-0.371-4.105-0.36-6.402 0.043-2.133 0.347-3.813 0.691-5.039 1.039-0.774 0.238-1.746 0.613-2.918 1.121-0.453 0.238-0.563 0.719-0.32 1.437 0.293 0.774 0.933 1.414 1.917 1.922 1.95 1.067 4.442 1.387 7.481 0.961 2.535-0.453 4.562-1.109 6.082-1.961 1.359-0.801 2.094-1.64 2.199-2.519z" inkscape:connector-curvature="0"/>
      <path id="path18" style="fill-rule:evenodd;fill:#87abae" d="m114.06 73.027c0-0.348-0.32-0.668-0.96-0.961-0.637-0.293-1.426-0.465-2.36-0.519-0.933-0.106-1.746-0.079-2.437 0.082-0.723 0.16-1.11 0.414-1.16 0.757-0.055 0.348 0.238 0.68 0.878 1 0.641 0.321 1.454 0.547 2.442 0.68 0.984 0.055 1.824-0.012 2.519-0.199 0.719-0.215 1.078-0.492 1.078-0.84z" inkscape:connector-curvature="0"/>
      <path id="path20" style="fill-rule:evenodd;fill:#98b3ab" d="m552.62 40.187c-0.508-0.265-1.121-0.398-1.84-0.398-0.723 0-1.32 0.105-1.801 0.32-0.48 0.184-0.707 0.41-0.679 0.68 0.023 0.238 0.277 0.426 0.757 0.558 0.481 0.161 1.04 0.239 1.68 0.239 1.52 0.054 2.348-0.16 2.481-0.637 0.082-0.242-0.121-0.496-0.598-0.762z" inkscape:connector-curvature="0"/>
      <path id="path22" style="fill-rule:evenodd;fill:#87abae" d="m540.54 40.308c0.055-0.16-0.082-0.347-0.398-0.562-0.321-0.184-0.723-0.332-1.204-0.438-0.503-0.054-0.957-0.043-1.359 0.039-0.371 0.079-0.559 0.215-0.559 0.399 0 0.187 0.161 0.363 0.481 0.519 0.32 0.161 0.707 0.27 1.16 0.321 0.453 0.109 0.867 0.136 1.238 0.082 0.375-0.055 0.586-0.176 0.641-0.36z" inkscape:connector-curvature="0"/>
      <path id="path24" style="fill-rule:evenodd;fill:#98b3ab" d="m119.7 67.949c0-0.16-0.16-0.309-0.48-0.441-0.321-0.133-0.692-0.215-1.121-0.243-0.426-0.05-0.813-0.039-1.161 0.043-0.316 0.078-0.503 0.2-0.558 0.36s0.082 0.32 0.402 0.48c0.293 0.16 0.692 0.278 1.199 0.36 0.481 0.027 0.891-0.028 1.239-0.161 0.32-0.105 0.48-0.238 0.48-0.398z" inkscape:connector-curvature="0"/>
      <path id="path26" style="fill-rule:evenodd;fill:#87abae" d="m128.06 62.988c1.629-0.426 2.454-1.016 2.481-1.762 0.055-0.8-0.613-1.531-2-2.199-1.465-0.719-3.332-1.121-5.602-1.199-2.371-0.215-4.453 0.398-6.238 1.84-1.707 1.386-2.039 2.347-1 2.879 0.719 0.375 1.652 0.613 2.801 0.718 0.746 0.055 2.199 0.11 4.359 0.161 2 0.082 3.735-0.067 5.199-0.438z" inkscape:connector-curvature="0"/>
      <path id="path28" style="fill-rule:evenodd;fill:#87abae" d="m428.74 49.668c-0.16 0.32 0.094 0.64 0.762 0.961 0.719 0.32 1.547 0.437 2.48 0.359 0.934-0.082 1.719-0.359 2.36-0.84 0.586-0.453 0.758-0.816 0.519-1.082-0.402-0.426-1.441-0.547-3.121-0.359-0.933 0.105-1.586 0.199-1.957 0.281-0.562 0.16-0.91 0.387-1.043 0.68z" inkscape:connector-curvature="0"/>
      <path id="path30" style="fill-rule:evenodd;fill:#819da1" d="m423.62 51.027c-1.148-0.348-2.617-0.574-4.402-0.68-2.028-0.105-3.426-0.121-4.2-0.039-1.253 0.078-2.082 0.387-2.48 0.918-0.508 0.614-0.121 1.387 1.16 2.321 1.359 1.039 3.055 1.613 5.082 1.718 2 0.11 3.719-0.144 5.156-0.757 1.309-0.559 1.911-1.2 1.801-1.922-0.078-0.637-0.785-1.16-2.117-1.559z" inkscape:connector-curvature="0"/>
      <path id="path32" style="fill-rule:evenodd;fill:#98b3ab" d="m525.86 29.468c-0.078-0.402-0.508-0.707-1.281-0.921-0.746-0.211-1.664-0.293-2.758-0.239-1.789 0.078-3.082 0.493-3.883 1.239-0.343 0.429-0.011 0.839 1 1.242 0.989 0.426 2 0.574 3.043 0.437 1.09-0.05 2.039-0.25 2.84-0.597 0.774-0.375 1.117-0.762 1.039-1.161z" inkscape:connector-curvature="0"/>
      <path id="path34" style="fill-rule:evenodd;fill:#87abae" d="m520.3 17.547c-0.801-0.614-1.895-1.106-3.282-1.481-1.414-0.348-2.718-0.32-3.921 0.082-1.145 0.399-1.614 0.867-1.399 1.399 0.16 0.425 0.641 0.8 1.442 1.121 0.503 0.211 1.464 0.508 2.878 0.879 1.227 0.32 2.348 0.453 3.36 0.402 1.066-0.082 1.668-0.348 1.801-0.801 0.16-0.48-0.133-1.015-0.879-1.601z" inkscape:connector-curvature="0"/>
      <path id="path36" style="fill-rule:evenodd;fill:#87abae" d="m555.58 67.066c0.16 0.828 1.563 1.402 4.203 1.723 1.172 0.183 2.238 0.144 3.199-0.121 0.957-0.242 1.438-0.586 1.438-1.039-0.024-0.453-0.426-0.883-1.199-1.282-0.774-0.398-1.774-0.679-3-0.839-1.254-0.161-2.387-0.055-3.399 0.32-0.961 0.371-1.375 0.785-1.242 1.238z" inkscape:connector-curvature="0"/>
      <path id="path38" style="fill-rule:evenodd;fill:#87abae" d="m579.18 30.347c0.347-0.375 0.078-0.867-0.801-1.48s-1.906-0.945-3.078-1c-1.231-0.055-2.149-0.055-2.762 0-0.719 0.105-1.227 0.32-1.52 0.641-0.347 0.371-0.082 0.851 0.801 1.441 0.879 0.637 1.906 0.973 3.078 1 1.227 0.078 2.149 0.078 2.762 0 0.719-0.082 1.227-0.281 1.52-0.602z" inkscape:connector-curvature="0"/>
      <path id="path40" style="fill-rule:evenodd;fill:#87abae" d="m548.26 10.828c0 0.613 0.867 1.082 2.601 1.398 0.774 0.133 1.453 0.16 2.039 0.082 0.586-0.082 0.922-0.254 1-0.519 0.082-0.293-0.132-0.602-0.64-0.922-0.504-0.316-1.157-0.547-1.957-0.68-0.774-0.16-1.481-0.16-2.121 0-0.614 0.133-0.922 0.348-0.922 0.641z" inkscape:connector-curvature="0"/>
      <path id="path42" style="fill-rule:evenodd;fill:#87abae" d="m565.9 52.629c0-0.641-0.613-1.176-1.84-1.602-1.226-0.426-2.718-0.625-4.48-0.601-1.652-0.051-3.094 0.136-4.32 0.562-1.254 0.426-1.907 0.961-1.957 1.598-0.055 0.64 0.531 1.203 1.757 1.679 1.227 0.453 2.747 0.707 4.559 0.762 1.762-0.027 3.254-0.266 4.481-0.719 1.23-0.48 1.828-1.043 1.8-1.679z" inkscape:connector-curvature="0"/>
      <path id="path44" style="fill-rule:evenodd;fill:#98b3ab" d="m582.26 20.347c1.816-1.066 2.48-2.039 2-2.921-0.399-0.797-1.438-1.36-3.117-1.68-1.387-0.238-3.36-0.348-5.922-0.32-2.399 0.027-4.465 0.32-6.2 0.882-1.812 0.614-2.734 1.36-2.757 2.239-0.028 0.933 0.824 1.75 2.558 2.441 1.785 0.746 3.985 1.105 6.602 1.078 2.636-0.027 4.918-0.598 6.836-1.719z" inkscape:connector-curvature="0"/>
      <path id="path46" style="fill-rule:evenodd;fill:#98b3ab" d="m518.7 45.629c-0.348 0.504-0.027 1.144 0.961 1.918 1.012 0.8 2.32 1.359 3.918 1.679 1.602 0.293 3 0.309 4.199 0.039 1.176-0.238 1.817-0.652 1.922-1.238 0.078-0.559-0.387-1.121-1.402-1.68-0.985-0.507-2.227-0.894-3.719-1.16-3.332-0.668-5.293-0.519-5.879 0.442z" inkscape:connector-curvature="0"/>
      <path id="path48" style="fill-rule:evenodd;fill:#87abae" d="m530.38 55.508c0.055 0.293 0.387 0.492 1 0.601 0.613 0.106 1.336 0.09 2.16-0.043 0.852-0.183 1.531-0.465 2.039-0.84 0.535-0.32 0.734-0.625 0.602-0.918-0.11-0.293-0.465-0.468-1.082-0.519-0.614-0.082-1.293-0.028-2.04 0.16-0.8 0.133-1.464 0.344-2 0.637-0.503 0.32-0.73 0.629-0.679 0.922z" inkscape:connector-curvature="0"/>
      <path id="path50" style="fill-rule:evenodd;fill:#87abae" d="m494.34 51.586c-0.774-1.493-3.625-2.118-8.559-1.879-2.32 0.105-4.375 0.601-6.16 1.48-1.762 0.856-2.563 1.719-2.402 2.602 0.16 0.851 1.039 1.504 2.64 1.957 1.575 0.43 3.559 0.574 5.961 0.441 2.348-0.105 4.481-0.695 6.399-1.761 1.867-1.04 2.574-1.985 2.121-2.84z" inkscape:connector-curvature="0"/>
      <path id="path52" style="fill-rule:evenodd;fill:#98b3ab" d="m489.42 59.789c0.055 0.344 0.43 0.613 1.121 0.797 0.691 0.215 1.492 0.297 2.398 0.242 0.989-0.082 1.817-0.266 2.481-0.563 0.64-0.293 0.933-0.613 0.883-0.957-0.028-0.347-0.387-0.629-1.082-0.84-0.692-0.187-1.493-0.253-2.399-0.203-1.015 0.082-1.84 0.27-2.48 0.563-0.668 0.293-0.973 0.613-0.922 0.961z" inkscape:connector-curvature="0"/>
      <path id="path54" style="fill-rule:evenodd;fill:#98b3ab" d="m534.34 12.746c0.398 0.375 1.094 0.613 2.078 0.719 0.613 0.054 1.723 0.093 3.32 0.121 1.492 0.054 2.774-0.039 3.84-0.282 1.176-0.265 1.801-0.679 1.883-1.238 0.051-0.586-0.43-1.148-1.442-1.68-1.093-0.562-2.492-0.882-4.199-0.96-1.789-0.079-3.308 0.347-4.562 1.281-1.2 0.879-1.504 1.558-0.918 2.039z" inkscape:connector-curvature="0"/>
      <path id="path56" style="fill-rule:evenodd;fill:#87abae" d="m537.42 24.027c0.055 0.188 0.297 0.309 0.723 0.359 0.398 0.028 0.863-0.027 1.398-0.16 0.508-0.105 0.934-0.265 1.281-0.48 0.348-0.211 0.492-0.426 0.438-0.637-0.051-0.187-0.278-0.308-0.68-0.363-0.426-0.051-0.918-0.024-1.48 0.082-0.532 0.133-0.973 0.32-1.317 0.558-0.32 0.243-0.441 0.454-0.363 0.641z" inkscape:connector-curvature="0"/>
      <path id="path58" style="fill-rule:evenodd;fill:#87abae" d="m586.42 23.867c0.027-0.293-0.238-0.559-0.797-0.801-0.563-0.211-1.227-0.332-2-0.359-0.801-0.028-1.48 0.054-2.043 0.242-0.559 0.187-0.852 0.426-0.879 0.719s0.238 0.547 0.801 0.758c0.558 0.214 1.238 0.335 2.039 0.363 0.773 0.023 1.453-0.055 2.039-0.242 0.563-0.161 0.84-0.387 0.84-0.68z" inkscape:connector-curvature="0"/>
      <path id="path60" style="fill-rule:evenodd;fill:#87abae" d="m515.58 43.308c0.055-0.773-0.746-1.347-2.398-1.722-1.68-0.399-3.481-0.399-5.399 0-4.269 0.8-6.523 1.867-6.762 3.203-0.132 0.797 0.614 1.437 2.239 1.918 1.734 0.48 3.601 0.519 5.601 0.121 2.028-0.375 3.625-0.879 4.801-1.52 1.227-0.613 1.867-1.281 1.918-2z" inkscape:connector-curvature="0"/>
      <path id="path62" style="fill-rule:evenodd;fill:#87abae" d="m522.46 38.508c0.078-0.375-0.27-0.719-1.043-1.04-0.824-0.375-1.785-0.507-2.879-0.402-1.121 0.11-2.055 0.414-2.801 0.922-0.691 0.48-0.933 0.895-0.719 1.238 0.321 0.641 1.586 0.84 3.801 0.602 2.293-0.188 3.508-0.629 3.641-1.32z" inkscape:connector-curvature="0"/>
      <path id="path64" style="fill-rule:evenodd;fill:#87abae" d="m249.02 58.746c0.028-0.426-0.414-0.758-1.32-1-0.984-0.266-2.066-0.293-3.238-0.078-1.176 0.215-2.137 0.558-2.883 1.039-0.719 0.48-1.023 0.933-0.918 1.359 0.106 0.402 0.613 0.668 1.52 0.801 0.851 0.105 1.839 0.055 2.961-0.16 2.503-0.481 3.796-1.133 3.878-1.961z" inkscape:connector-curvature="0"/>
      <path id="path66" style="fill-rule:evenodd;fill:#87abae" d="m497.06 42.547c0.055-0.559-0.503-1.012-1.679-1.36-1.227-0.375-2.598-0.441-4.121-0.199-1.52 0.266-2.758 0.691-3.719 1.277-0.934 0.536-1.348 1.082-1.238 1.641 0.105 0.535 0.73 0.895 1.879 1.082 1.121 0.211 2.402 0.188 3.839-0.082 3.254-0.504 4.934-1.293 5.039-2.359z" inkscape:connector-curvature="0"/>
      <path id="path68" style="fill-rule:evenodd;fill:#87abae" d="m253.42 73.468c-0.371-1.281-2.758-2.203-7.16-2.761-2.024-0.239-3.758-0.239-5.2 0-1.546 0.265-2.425 0.761-2.64 1.48-0.238 0.746 0.32 1.535 1.68 2.36 1.441 0.879 3.242 1.441 5.402 1.679 2.16 0.266 4.105 0.067 5.84-0.597 1.652-0.641 2.347-1.364 2.078-2.161z" inkscape:connector-curvature="0"/>
      <path id="path70" style="fill-rule:evenodd;fill:#819da1" d="m230.58 50.906c-1.547-1.094-3.453-1.84-5.719-2.238-2.293-0.426-4.254-0.547-5.879-0.36-1.652 0.184-2.652 0.653-3 1.399-0.347 0.773 0.227 1.64 1.719 2.601 1.52 0.957 3.399 1.641 5.641 2.039 4.961 0.907 7.867 0.668 8.718-0.718 0.481-0.746-0.011-1.657-1.48-2.723z" inkscape:connector-curvature="0"/>
      <path id="path72" style="fill-rule:evenodd;fill:#87abae" d="m395.38 64.988c0.187-0.426-0.172-0.746-1.078-0.961-0.91-0.238-1.856-0.238-2.844 0-1.012 0.215-1.84 0.559-2.477 1.039-0.617 0.426-0.843 0.817-0.683 1.16 0.16 0.321 0.617 0.508 1.359 0.563 0.695 0.023 1.52-0.067 2.481-0.281 1.761-0.321 2.843-0.829 3.242-1.52z" inkscape:connector-curvature="0"/>
      <path id="path74" style="fill-rule:evenodd;fill:#87abae" d="m224.1 74.789c0.054-0.16-0.094-0.321-0.438-0.481-0.375-0.16-0.801-0.254-1.281-0.281-1.094-0.051-1.68 0.106-1.758 0.481-0.055 0.16 0.094 0.32 0.437 0.48 0.348 0.16 0.762 0.254 1.243 0.277 1.117 0 1.718-0.156 1.797-0.476z" inkscape:connector-curvature="0"/>
      <path id="path76" style="fill-rule:evenodd;fill:#87abae" d="m386.98 63.226c0.348-0.718-0.175-1.48-1.562-2.277-1.492-0.856-3.305-1.336-5.438-1.441-2.132-0.106-3.988 0.199-5.562 0.918-1.492 0.667-2.117 1.363-1.879 2.082 0.348 1.226 2.719 1.933 7.121 2.121 4.344 0.183 6.785-0.282 7.32-1.403z" inkscape:connector-curvature="0"/>
      <path id="path78" style="fill-rule:evenodd;fill:#87abae" d="m346.54 52.906c0-0.238-0.215-0.453-0.641-0.641-0.453-0.156-0.984-0.25-1.597-0.277-0.641-0.055-1.203-0.027-1.684 0.078-0.453 0.133-0.691 0.309-0.719 0.52-0.027 0.215 0.172 0.429 0.602 0.64 0.426 0.215 0.973 0.348 1.641 0.403 0.691 0.027 1.265-0.043 1.718-0.203 0.481-0.133 0.707-0.305 0.68-0.52z" inkscape:connector-curvature="0"/>
      <path id="path80" style="fill-rule:evenodd;fill:#87abae" d="m10.625 9.629c0.027-0.243-0.203-0.469-0.684-0.68-0.453-0.215-1.023-0.363-1.718-0.441-0.664-0.11-1.254-0.11-1.758 0-0.508 0.078-0.801 0.238-0.883 0.48-0.078 0.238 0.109 0.48 0.563 0.719 0.453 0.242 1.05 0.426 1.796 0.558 0.696 0.082 1.309 0.055 1.844-0.078 0.531-0.105 0.813-0.293 0.84-0.558z" inkscape:connector-curvature="0"/>
      <path id="path82" style="fill-rule:evenodd;fill:#819da1" d="m19.262 72.148c-0.078-0.43-0.586-0.68-1.52-0.762-0.984-0.105-2.051 0.016-3.199 0.36-1.148 0.347-2.066 0.828-2.758 1.441-0.668 0.586-0.883 1.067-0.64 1.442 0.238 0.371 0.796 0.547 1.679 0.519 0.801 0 1.758-0.176 2.879-0.519 1.121-0.348 2.016-0.746 2.68-1.203 0.695-0.454 0.988-0.879 0.879-1.278z" inkscape:connector-curvature="0"/>
      <path id="path84" style="fill-rule:evenodd;fill:#819da1" d="m24.262 39.707c0.59-0.852-0.106-1.625-2.078-2.321-2-0.664-4.039-0.785-6.122-0.359-2.16 0.348-3.917 0.906-5.277 1.68-1.308 0.746-1.922 1.48-1.844 2.199 0.082 0.773 0.961 1.309 2.641 1.602 1.629 0.265 3.469 0.238 5.52-0.082 3.789-0.614 6.175-1.52 7.16-2.719z" inkscape:connector-curvature="0"/>
      <path id="path86" style="fill-rule:evenodd;fill:#87abae" d="m10.863 56.386c0.055-0.531-0.359-1.066-1.238-1.597-0.988-0.563-2.281-0.934-3.883-1.121-1.68-0.242-3.172 0.039-4.48 0.84-1.227 0.773-1.559 1.386-1 1.839 0.375 0.348 1.015 0.586 1.922 0.719 1.226 0.133 2.254 0.254 3.078 0.36 1.386 0.16 2.629 0.16 3.722 0 1.145-0.184 1.774-0.532 1.879-1.04z" inkscape:connector-curvature="0"/>
      <path id="path88" style="fill-rule:evenodd;fill:#87abae" d="m90.062 71.949c-0.425-0.641-1.304-1.121-2.64-1.441-1.067-0.243-2.746-0.454-5.039-0.641-2.106-0.188-4.078 0.066-5.918 0.762-1.817 0.691-2.535 1.425-2.16 2.199 0.636 1.359 3.226 2.226 7.757 2.598 2.266 0.214 4.321-0.133 6.161-1.04 1.761-0.878 2.375-1.691 1.839-2.437z" inkscape:connector-curvature="0"/>
      <path id="path90" style="fill-rule:evenodd;fill:#87abae" d="m28.703 6.508c0.027-0.266-0.265-0.481-0.879-0.641-0.613-0.133-1.293-0.149-2.039-0.039-0.777 0.133-1.387 0.32-1.844 0.558-0.476 0.266-0.703 0.536-0.679 0.801 0.054 0.266 0.363 0.453 0.922 0.559 0.586 0.082 1.254 0.066 2-0.039 0.718-0.11 1.32-0.27 1.8-0.481 0.454-0.211 0.692-0.453 0.719-0.718z" inkscape:connector-curvature="0"/>
      <path id="path92" style="fill-rule:evenodd;fill:#819da1" d="m68.941 75.066c0-0.504-0.464-0.973-1.398-1.398-0.906-0.403-2.066-0.696-3.481-0.879-1.414-0.188-2.597-0.227-3.558-0.121-1.016 0.133-1.629 0.425-1.84 0.879-0.242 0.507 0.121 1.054 1.078 1.64 0.988 0.641 2.215 1.055 3.68 1.239 1.469 0.187 2.762 0.136 3.883-0.161 1.093-0.293 1.636-0.691 1.636-1.199z" inkscape:connector-curvature="0"/>
      <path id="path94" style="fill-rule:evenodd;fill:#87abae" d="m76.184 76.187c-0.028-0.215-0.266-0.375-0.719-0.48-0.43-0.106-0.949-0.133-1.563-0.078-0.586 0.027-1.078 0.132-1.48 0.32-0.426 0.184-0.637 0.383-0.637 0.598-0.027 0.214 0.184 0.386 0.637 0.519 0.453 0.11 1 0.149 1.64 0.121 0.641-0.054 1.161-0.187 1.563-0.398 0.426-0.188 0.613-0.387 0.559-0.602z" inkscape:connector-curvature="0"/>
      <path id="path96" style="fill-rule:evenodd;fill:#819da1" d="m382.06 73.148c-0.078-0.293-0.453-0.508-1.117-0.64-0.668-0.106-1.441-0.094-2.32 0.039-0.883 0.132-1.602 0.359-2.16 0.679-0.586 0.348-0.84 0.668-0.762 0.961 0.055 0.321 0.414 0.535 1.082 0.641 0.668 0.105 1.442 0.094 2.32-0.039 0.879-0.137 1.614-0.363 2.2-0.68 0.558-0.32 0.812-0.641 0.757-0.961z" inkscape:connector-curvature="0"/>
      <path id="path98" style="fill-rule:evenodd;fill:#87abae" d="m13.344 18.226c1.679-0.078 3.105-0.332 4.281-0.758 0.984-0.375 1.613-0.789 1.879-1.242 0.266 0.11 0.387-0.027 0.359-0.398-0.054-0.348-0.215-0.586-0.48-0.719-0.348-0.32-0.879-0.613-1.598-0.883-1.254-0.425-2.855-0.597-4.801-0.519-1.789 0.109-3.293 0.426-4.519 0.961-1.203 0.508-1.789 1.078-1.762 1.718 0.055 0.641 0.735 1.133 2.039 1.481 1.309 0.348 2.84 0.469 4.602 0.359z" inkscape:connector-curvature="0"/>
      <path id="path100" style="fill-rule:evenodd;fill:#87abae" d="m18.543 22.586c0.082-0.399-0.215-0.813-0.879-1.239-0.695-0.398-1.602-0.718-2.723-0.961-1.171-0.238-2.183-0.304-3.039-0.199-0.48 0.078-0.851 0.199-1.117 0.36 0-0.082-0.137 0.015-0.402 0.281-0.238 0.238-0.266 0.371-0.078 0.398 0.16 0.11 0.293 0.11 0.398 0-0.078 0.242 0.188 0.563 0.801 0.961 0.691 0.453 1.574 0.785 2.641 1 1.093 0.239 2.078 0.293 2.957 0.16 0.906-0.105 1.386-0.359 1.441-0.761z" inkscape:connector-curvature="0"/>
      <path id="path102" style="fill-rule:evenodd;fill:#87abae" d="m26.625 28.187c0.133-0.215 0.027-0.48-0.32-0.801-0.348-0.32-0.828-0.597-1.442-0.839-0.613-0.215-1.199-0.293-1.761-0.239-0.504 0.024-0.786 0.145-0.84 0.36-0.16 0.453 0.453 0.933 1.84 1.441 0.589 0.211 1.136 0.317 1.64 0.317 0.481 0.027 0.774-0.051 0.883-0.239z" inkscape:connector-curvature="0"/>
      <path id="path104" style="fill-rule:evenodd;fill:#819da1" d="m317.7 64.789c0.559-0.668 0.082-1.336-1.441-2-1.547-0.723-3.227-0.934-5.039-0.641-1.868 0.238-3.375 0.625-4.52 1.16-1.121 0.504-1.746 1.078-1.879 1.719-0.109 0.668 0.547 1.172 1.957 1.52 1.387 0.347 2.934 0.414 4.641 0.199 1.812-0.238 3.187-0.492 4.121-0.758 0.988-0.293 1.707-0.695 2.16-1.199z" inkscape:connector-curvature="0"/>
      <path id="path106" style="fill-rule:evenodd;fill:#87abae" d="m312.78 51.226c0.051-0.371-0.308-0.679-1.082-0.918-0.746-0.242-1.629-0.32-2.641-0.242-2.132 0.16-3.371 0.652-3.718 1.481-0.11 0.375 0.238 0.679 1.039 0.921 0.801 0.266 1.691 0.344 2.679 0.239 1.043-0.051 1.907-0.227 2.602-0.52 0.691-0.265 1.066-0.586 1.121-0.961z" inkscape:connector-curvature="0"/>
      <path id="path108" style="fill-rule:evenodd;fill:#87abae" d="m332.1 71.308c0.16-0.613-0.399-1.132-1.68-1.562-1.332-0.426-2.84-0.52-4.52-0.278-1.707 0.239-3.105 0.625-4.199 1.161-1.094 0.531-1.652 1.105-1.68 1.718 0 0.586 0.641 1.028 1.918 1.321 1.254 0.265 2.696 0.293 4.321 0.078 3.629-0.504 5.574-1.32 5.84-2.438z" inkscape:connector-curvature="0"/>
      <path id="path110" style="fill-rule:evenodd;fill:#98b3ab" d="m244.7 66.187c0.055-1.039-1.133-1.867-3.558-2.48-2.293-0.559-5.204-0.813-8.723-0.758-3.57 0.051-6.547 0.332-8.918 0.84-2.586 0.558-4.133 1.344-4.641 2.359-0.586 1.067 0.321 2.078 2.719 3.039 2.48 1.012 5.574 1.492 9.281 1.442 3.68-0.028 6.934-0.52 9.762-1.481 2.664-0.906 4.023-1.894 4.078-2.961z" inkscape:connector-curvature="0"/>
      <path id="path112" style="fill-rule:evenodd;fill:#98b3ab" d="m351.5 67.308c0.133-0.64-0.469-1.254-1.801-1.84-1.226-0.562-2.707-0.96-4.441-1.203-2.215-0.238-3.586-0.371-4.117-0.398-1.204 0-2.055 0.199-2.563 0.601-0.691 0.481-0.437 1.278 0.762 2.399 1.304 1.176 2.961 1.867 4.961 2.082 1.945 0.238 3.625 0.184 5.039-0.16 1.281-0.321 2-0.817 2.16-1.481z" inkscape:connector-curvature="0"/>
      <path id="path114" style="fill-rule:evenodd;fill:#819da1" d="m29.664 68.027c0.027-0.426-0.348-0.828-1.121-1.199-0.801-0.348-1.785-0.574-2.961-0.68-1.199-0.105-2.266 0.028-3.199 0.399-0.906 0.32-1.305 0.695-1.199 1.121 0.214 0.773 1.586 1.254 4.121 1.441 1.117 0.106 2.105 0.051 2.957-0.16 0.906-0.215 1.375-0.523 1.402-0.922z" inkscape:connector-curvature="0"/>
      <path id="path116" style="fill-rule:evenodd;fill:#87abae" d="m39.742 59.468c0.082-0.16-0.039-0.335-0.359-0.519-0.348-0.188-0.758-0.297-1.238-0.32-1.043-0.082-1.641 0.027-1.801 0.32-0.055 0.16 0.078 0.332 0.398 0.519 0.348 0.211 0.762 0.333 1.242 0.36 1.067 0.055 1.653-0.067 1.758-0.36z" inkscape:connector-curvature="0"/>
      <path id="path118" style="fill-rule:evenodd;fill:#87abae" d="m48.262 62.148c0-0.242-0.387-0.387-1.16-0.441-0.664-0.051-1.067 0.015-1.2 0.199-0.05 0.109 0.028 0.227 0.243 0.359 0.238 0.161 0.531 0.254 0.878 0.282 0.348 0.027 0.641-0.012 0.879-0.121 0.243-0.079 0.36-0.172 0.36-0.278z" inkscape:connector-curvature="0"/>
      <path id="path120" style="fill-rule:evenodd;fill:#87abae" d="m42.305 64.906c0.078-0.371-0.227-0.73-0.922-1.078-0.719-0.348-1.598-0.563-2.641-0.641-1.012-0.133-1.918-0.078-2.719 0.16-0.8 0.215-1.187 0.508-1.16 0.879 0.028 0.348 0.375 0.668 1.039 0.961 0.641 0.266 1.481 0.465 2.52 0.602 1.043 0.105 1.922 0.078 2.64-0.082 0.747-0.188 1.161-0.453 1.243-0.801z" inkscape:connector-curvature="0"/>
      <path id="path122" style="fill-rule:evenodd;fill:#87abae" d="m360.66 69.386c0.16-0.238-0.121-0.48-0.84-0.718-0.293-0.106-0.574-0.121-0.84-0.039-0.265 0.05-0.386 0.132-0.359 0.238 0.023 0.16 0.332 0.332 0.918 0.519 0.668 0.215 1.039 0.215 1.121 0z" inkscape:connector-curvature="0"/>
      <path id="path124" style="fill-rule:evenodd;fill:#87abae" d="m47.504 23.265c0.187-0.078 0.172-0.277-0.039-0.597-0.242-0.321-0.574-0.559-1-0.719-1.016-0.402-1.629-0.426-1.84-0.082-0.082 0.16 0.012 0.348 0.277 0.559 0.215 0.214 0.536 0.402 0.961 0.562 0.828 0.348 1.375 0.438 1.641 0.277z" inkscape:connector-curvature="0"/>
      <path id="path126" style="fill-rule:evenodd;fill:#98b3ab" d="m365.54 50.426c-0.105-0.852-1.668-1.586-4.68-2.2-1.332-0.293-2.558-0.343-3.679-0.16-1.149 0.16-1.75 0.496-1.801 1-0.055 0.508 0.332 1.016 1.16 1.52 0.852 0.507 2 0.906 3.441 1.203 1.465 0.265 2.797 0.238 4-0.082 1.118-0.321 1.641-0.746 1.559-1.281z" inkscape:connector-curvature="0"/>
      <path id="path128" style="fill-rule:evenodd;fill:#87abae" d="m203.5 71.828c0.133-0.266-0.055-0.586-0.563-0.961-0.531-0.348-1.199-0.613-2-0.801-0.796-0.211-1.503-0.293-2.117-0.238-0.64 0.055-1.015 0.215-1.121 0.48-0.133 0.293 0.055 0.614 0.559 0.957 0.535 0.375 1.203 0.657 2 0.844 0.828 0.184 1.535 0.25 2.121 0.199 0.64-0.054 1.015-0.215 1.121-0.48z" inkscape:connector-curvature="0"/>
      <path id="path130" style="fill-rule:evenodd;fill:#87abae" d="m10.223 28.109c0.32-0.43 0.015-0.949-0.918-1.562-1.016-0.668-2.227-1.028-3.641-1.082-1.387-0.051-2.562 0.082-3.519 0.402-0.907 0.32-1.387 0.719-1.442 1.199-0.027 0.453 0.442 0.856 1.399 1.199 0.906 0.348 2 0.547 3.281 0.602 1.414 0.055 2.441 0.039 3.082-0.039 0.906-0.106 1.492-0.348 1.758-0.719z" inkscape:connector-curvature="0"/>
      <path id="path132" style="fill-rule:evenodd;fill:#819da1" d="m366.9 29.668c-0.105-0.293-0.453-0.453-1.039-0.481-0.59-0.027-1.242 0.094-1.961 0.36-0.746 0.265-1.347 0.601-1.8 1-0.426 0.402-0.586 0.746-0.481 1.039 0.137 0.293 0.481 0.453 1.043 0.48 0.586 0.027 1.254-0.09 2-0.359 0.719-0.266 1.305-0.598 1.758-1 0.453-0.399 0.613-0.746 0.48-1.039z" inkscape:connector-curvature="0"/>
      <path id="path134" style="fill-rule:evenodd;fill:#87abae" d="m191.38 16.707c0.215 0.265 0.402 0.172 0.558-0.281 0.188-0.454 0.137-0.852-0.156-1.2-0.297-0.586-0.816-1.16-1.562-1.718-1.387-0.989-3.215-1.641-5.481-1.961-2.105-0.293-3.984-0.161-5.64 0.402-1.653 0.531-2.426 1.25-2.317 2.16 0.106 0.797 0.824 1.531 2.156 2.199 1.282 0.614 2.95 1.067 5 1.36 1.977 0.293 3.668 0.304 5.082 0.039 0.614-0.082 1.079-0.242 1.399-0.481-0.078-0.027 0.027-0.16 0.32-0.398 0.266-0.188 0.36-0.27 0.281-0.242 0-0.078 0.122-0.039 0.36 0.121z" inkscape:connector-curvature="0"/>
      <path id="path136" style="fill-rule:evenodd;fill:#87abae" d="m194.62 19.668c-1.043 0.265-1.883 0.625-2.523 1.082-0.637 0.449-0.934 0.89-0.879 1.316 0.082 0.43 0.535 0.707 1.359 0.844 0.801 0.133 1.723 0.078 2.762-0.16 0.984-0.242 1.812-0.574 2.48-1 0.106-0.137 0.227-0.215 0.36-0.242 0.074-0.075 0.14-0.293 0.199-0.661 0.09 0.094 0.168 0.141 0.242 0.141-0.027-0.027 0.066-0.039 0.277-0.039 0.188-0.082 0.121-0.387-0.199-0.922-0.32-0.184-0.734-0.348-1.238-0.48-0.828-0.161-1.774-0.121-2.84 0.121z" inkscape:connector-curvature="0"/>
      <path id="path138" style="fill-rule:evenodd;fill:#819da1" d="m180.9 22.468c0.293-0.667-0.144-1.386-1.32-2.16-1.277-0.8-2.773-1.226-4.48-1.281-1.731-0.051-3.184 0.149-4.36 0.602-1.144 0.453-1.746 1.011-1.801 1.679-0.078 0.668 0.497 1.266 1.723 1.801 1.172 0.504 2.574 0.785 4.199 0.84 3.547 0.078 5.559-0.414 6.039-1.481z" inkscape:connector-curvature="0"/>
      <path id="path140" style="fill-rule:evenodd;fill:#819da1" d="m189.06 27.027c-0.16-0.348-0.691-0.398-1.597-0.16-0.403 0.109-0.735 0.266-1 0.48-0.27 0.243-0.363 0.426-0.281 0.563 0.132 0.344 0.668 0.398 1.601 0.156 0.399-0.105 0.731-0.277 1-0.519 0.238-0.211 0.332-0.387 0.277-0.52z" inkscape:connector-curvature="0"/>
      <path id="path142" style="fill-rule:evenodd;fill:#819da1" d="m156.46 19.148c1.625 0.293 3.531 0.238 5.719-0.16 4.613-0.855 7.16-2.121 7.64-3.801 0.238-1.011-0.574-1.84-2.441-2.48-1.945-0.692-4.055-0.801-6.321-0.321-2.265 0.403-4.144 1.11-5.64 2.122-1.438 0.957-2.051 1.906-1.84 2.839 0.188 0.907 1.148 1.508 2.883 1.801z" inkscape:connector-curvature="0"/>
      <path id="path144" style="fill-rule:evenodd;fill:#87abae" d="m152.9 23.226c-0.027-0.64-0.64-1.066-1.84-1.277-1.277-0.242-2.652-0.094-4.121 0.437-1.464 0.508-2.613 1.227-3.437 2.161-0.801 0.879-1.027 1.586-0.68 2.121 0.293 0.48 0.985 0.691 2.078 0.64 0.961-0.054 2.133-0.32 3.52-0.8 3.016-1.094 4.508-2.188 4.48-3.282z" inkscape:connector-curvature="0"/>
      <path id="path146" style="fill-rule:evenodd;fill:#819da1" d="m165.98 23.027c-0.027-0.238-0.254-0.426-0.679-0.559-0.403-0.16-0.907-0.226-1.52-0.203-0.59 0-1.109 0.094-1.562 0.282-0.426 0.214-0.625 0.441-0.598 0.679 0.051 0.27 0.277 0.469 0.68 0.602 0.398 0.16 0.906 0.226 1.519 0.199 0.586-0.027 1.106-0.133 1.559-0.316 0.426-0.215 0.625-0.446 0.601-0.684z" inkscape:connector-curvature="0"/>
      <path id="path148" style="fill-rule:evenodd;fill:#98b3ab" d="m139.38 23.468c-0.133-0.558-0.758-0.867-1.879-0.921-1.094-0.051-2.281 0.132-3.563 0.562-2.023 0.692-3.464 1.531-4.316 2.52-0.43 0.718 0.066 1.281 1.477 1.679 1.468 0.399 2.839 0.321 4.121-0.242 1.359-0.48 2.441-1.066 3.242-1.758 0.746-0.668 1.051-1.281 0.918-1.84z" inkscape:connector-curvature="0"/>
      <path id="path150" style="fill-rule:evenodd;fill:#819da1" d="m130.7 30.746c-0.508-0.774-1.508-1.305-3-1.598-0.851-0.215-1.652-0.242-2.398-0.082s-1.121 0.442-1.121 0.84c0 0.375 0.265 0.719 0.8 1.043 0.559 0.371 1.293 0.652 2.2 0.84 0.824 0.238 1.679 0.226 2.558-0.043 0.883-0.266 1.199-0.598 0.961-1z" inkscape:connector-curvature="0"/>
      <path id="path152" style="fill-rule:evenodd;fill:#819da1" d="m139.66 28.629c-0.055-0.243-0.32-0.387-0.801-0.442-0.453-0.078-1-0.027-1.64 0.16-0.614 0.188-1.106 0.465-1.481 0.84-0.347 0.375-0.437 0.668-0.277 0.879 0.211 0.43 0.984 0.442 2.32 0.043 0.586-0.187 1.051-0.414 1.399-0.683 0.375-0.293 0.535-0.559 0.48-0.797z" inkscape:connector-curvature="0"/>
      <path id="path154" style="fill-rule:evenodd;fill:#87abae" d="m155.82 37.586c1.254 0.773 2.785 1.281 4.598 1.523 1.816 0.238 3.375 0.211 4.68-0.082 1.336-0.32 2.082-0.84 2.242-1.559 0.16-0.718-0.375-1.468-1.602-2.242-1.226-0.746-2.746-1.238-4.558-1.48-1.813-0.238-3.375-0.211-4.68 0.082-1.336 0.32-2.082 0.84-2.242 1.558-0.184 0.723 0.336 1.454 1.562 2.2z" inkscape:connector-curvature="0"/>
      <path id="path156" style="fill-rule:evenodd;fill:#87abae" d="m180.74 48.789c-0.078-0.403-0.453-0.746-1.117-1.043-0.695-0.32-1.574-0.504-2.641-0.559-1.043-0.054-1.949 0.078-2.722 0.399-0.774 0.297-1.145 0.656-1.117 1.082 0.05 0.425 0.425 0.8 1.117 1.121 0.668 0.293 1.535 0.465 2.601 0.519 1.012 0.051 1.934-0.082 2.762-0.402 0.824-0.32 1.199-0.691 1.117-1.117z" inkscape:connector-curvature="0"/>
      <path id="path158" style="fill-rule:evenodd;fill:#87abae" d="m202.66 40.027c-1.016 0.559-1.496 1.16-1.441 1.801 0.054 0.64 0.652 1.105 1.8 1.398 1.149 0.321 2.481 0.403 4 0.242 1.493-0.16 2.735-0.48 3.719-0.96 0.828-0.399 1.348-0.84 1.563-1.321 0.238 0.106 0.347-0.011 0.32-0.359-0.055-0.375-0.203-0.613-0.441-0.719-0.399-0.375-0.879-0.656-1.442-0.844-1.144-0.398-2.547-0.519-4.199-0.359-1.574 0.187-2.867 0.562-3.879 1.121z" inkscape:connector-curvature="0"/>
      <path id="path160" style="fill-rule:evenodd;fill:#87abae" d="m196.02 47.386c0.055-0.398-0.226-0.8-0.839-1.199-0.614-0.398-1.414-0.695-2.399-0.879-1.043-0.215-1.922-0.242-2.64-0.082-0.293 0.055-0.629 0.188-1 0.403 0-0.11-0.11-0.016-0.321 0.277-0.187 0.27-0.199 0.414-0.039 0.441 0.106 0.051 0.223 0.051 0.36 0-0.083 0.239 0.16 0.547 0.718 0.918 0.614 0.43 1.387 0.723 2.321 0.883 0.961 0.184 1.824 0.211 2.601 0.078 0.774-0.16 1.184-0.437 1.238-0.84z" inkscape:connector-curvature="0"/>
      <path id="path162" style="fill-rule:evenodd;fill:#819da1" d="m218.14 36.468c0.906 1.415 3.73 1.973 8.48 1.68 2.344-0.105 4.398-0.851 6.16-2.238 1.703-1.336 2.199-2.414 1.477-3.242-0.559-0.692-1.547-1.121-2.957-1.282-1.149-0.132-2.95-0.121-5.403 0.04-2.265 0.109-4.277 0.75-6.039 1.921-1.707 1.172-2.281 2.215-1.718 3.121z" inkscape:connector-curvature="0"/>
      <path id="path164" style="fill-rule:evenodd;fill:#87abae" d="m221.18 42.386c-0.055-0.21-0.282-0.371-0.68-0.48-0.453-0.078-0.961-0.066-1.52 0.043-0.562 0.105-1.027 0.316-1.402 0.637-0.344 0.269-0.48 0.523-0.398 0.761 0.214 0.454 0.933 0.536 2.16 0.239 0.558-0.133 1.011-0.305 1.359-0.52 0.348-0.211 0.508-0.437 0.481-0.68z" inkscape:connector-curvature="0"/>
      <path id="path166" style="fill-rule:evenodd;fill:#87abae" d="m192.74 38.508c-0.051-0.161-0.426-0.243-1.117-0.243-0.668 0-1.027 0.082-1.082 0.243-0.078 0.105-0.012 0.238 0.199 0.398 0.242 0.187 0.535 0.293 0.883 0.32 0.371-0.027 0.68-0.133 0.918-0.32 0.215-0.16 0.281-0.293 0.199-0.398z" inkscape:connector-curvature="0"/>
      <path id="path168" style="fill-rule:evenodd;fill:#87abae" d="m239.7 14.746c-0.051-0.504-0.547-0.879-1.48-1.117-0.934-0.215-2.028-0.227-3.282-0.043-1.25 0.187-2.293 0.562-3.117 1.121-0.801 0.535-1.133 1.054-1 1.558 0.106 0.481 0.625 0.817 1.559 1 0.879 0.161 1.933 0.149 3.16-0.039 1.199-0.187 2.215-0.519 3.039-1 0.801-0.48 1.176-0.972 1.121-1.48z" inkscape:connector-curvature="0"/>
      <path id="path170" style="fill-rule:evenodd;fill:#98b3ab" d="m223.5 7.668c0.238 0.105 0.398-0.028 0.48-0.403 0.078-0.343 0.039-0.664-0.121-0.957-0.347-0.64-0.855-1.199-1.519-1.679-1.469-1.043-3.266-1.653-5.403-1.84-2.023-0.321-3.918-0.067-5.679 0.758-1.731 0.828-2.344 1.695-1.84 2.601 0.801 1.278 3.109 2.133 6.922 2.559 2 0.16 3.597 0.148 4.801-0.039 0.453 0 0.89-0.176 1.32-0.52 0.426-0.347 0.773-0.508 1.039-0.48z" inkscape:connector-curvature="0"/>
      <path id="path172" style="fill-rule:evenodd;fill:#87abae" d="m205.9 5.027c-0.05-0.293-0.343-0.547-0.879-0.762-0.507-0.183-1.16-0.277-1.961-0.277-0.773 0-1.453 0.133-2.039 0.398-0.558 0.293-0.812 0.602-0.761 0.922 0.16 0.641 1.109 0.957 2.84 0.957 0.75 0.028 1.414-0.089 2-0.359 0.589-0.266 0.855-0.559 0.8-0.879z" inkscape:connector-curvature="0"/>
      <path id="path174" style="fill-rule:evenodd;fill:#87abae" d="m249.94 1.347c0-0.48-0.41-0.839-1.238-1.082-0.851-0.265-1.84-0.332-2.961-0.199-1.117 0.16-2.039 0.453-2.758 0.883-0.746 0.449-1.082 0.906-1 1.359 0.051 0.426 0.493 0.746 1.321 0.957 0.797 0.188 1.746 0.215 2.84 0.082 1.093-0.132 2-0.386 2.718-0.761 0.746-0.371 1.106-0.785 1.078-1.239z" inkscape:connector-curvature="0"/>
      <path id="path176" style="fill-rule:evenodd;fill:#98b3ab" d="m262.98 4.386c-2.132-1.226-4.668-1.839-7.601-1.839-2.934-0.106-5.492 0.519-7.68 1.879-2.105 1.281-2.867 2.496-2.281 3.64 0.48 0.961 1.629 1.656 3.441 2.082 1.492 0.348 3.653 0.559 6.481 0.641 6.051-0.055 9.398-1.028 10.039-2.922 0.375-1.145-0.426-2.305-2.399-3.481z" inkscape:connector-curvature="0"/>
      <path id="path178" style="fill-rule:evenodd;fill:#98b3ab" d="m391.78 21.988c-2.137-1.227-4.668-1.84-7.601-1.84-2.934-0.109-5.493 0.52-7.68 1.879-2.109 1.281-2.867 2.492-2.281 3.641 0.48 0.961 1.625 1.652 3.441 2.082 1.492 0.343 3.652 0.558 6.481 0.636 6.05-0.05 9.398-1.023 10.039-2.918 0.375-1.148-0.426-2.308-2.399-3.48z" inkscape:connector-curvature="0"/>
      <path id="path180" style="fill-rule:evenodd;fill:#819da1" d="m264.62 24.547c0.316-0.559-0.094-1.161-1.242-1.801-1.199-0.637-2.52-0.891-3.961-0.758-1.465 0.105-2.652 0.359-3.559 0.758-0.933 0.402-1.425 0.894-1.48 1.48-0.078 0.586 0.426 1.082 1.519 1.481 1.094 0.402 2.321 0.558 3.68 0.48 1.469-0.105 2.574-0.277 3.32-0.519 0.856-0.242 1.43-0.614 1.723-1.121z" inkscape:connector-curvature="0"/>
      <path id="path182" style="fill-rule:evenodd;fill:#87abae" d="m243.18 28.906c0.027-0.184-0.133-0.332-0.481-0.441-0.32-0.106-0.695-0.133-1.121-0.079-0.426 0.028-0.773 0.122-1.039 0.282-0.293 0.16-0.426 0.332-0.398 0.519 0.023 0.16 0.199 0.278 0.519 0.36 0.293 0.078 0.652 0.105 1.078 0.078 0.906-0.129 1.387-0.371 1.442-0.719z" inkscape:connector-curvature="0"/>
      <path id="path184" style="fill-rule:evenodd;fill:#87abae" d="m268.58 39.988c0.242-0.586-0.133-1.266-1.117-2.039-1.043-0.801-2.336-1.336-3.883-1.602-1.547-0.265-2.906-0.238-4.078 0.079-1.149 0.296-1.762 0.75-1.84 1.363-0.082 0.609 0.398 1.211 1.438 1.797 0.988 0.59 2.214 1 3.683 1.242 1.492 0.265 2.746 0.348 3.758 0.238 1.121-0.133 1.801-0.492 2.039-1.078z" inkscape:connector-curvature="0"/>
      <path id="path186" style="fill-rule:evenodd;fill:#819da1" d="m288.18 34.668c0.668-0.426 0.48-1.215-0.559-2.36-1.066-1.199-2.387-1.949-3.961-2.242-1.574-0.398-2.906-0.531-4-0.398-1.066 0.133-1.762 0.492-2.082 1.082-0.266 0.586 0.121 1.277 1.16 2.078 1.016 0.801 2.254 1.375 3.723 1.719 1.543 0.375 2.73 0.574 3.558 0.601 0.907 0.028 1.625-0.133 2.161-0.48z" inkscape:connector-curvature="0"/>
      <path id="path188" style="fill-rule:evenodd;fill:#87abae" d="m287.26 27.308c0.668-0.773 0.242-1.828-1.278-3.16-1.601-1.414-3.562-2.226-5.882-2.441-2.293-0.266-4.293-0.094-6 0.519-1.598 0.586-2.399 1.348-2.399 2.282-0.027 0.851 0.735 1.625 2.281 2.32 1.414 0.637 3.172 1.094 5.278 1.359 2.269 0.239 3.949 0.332 5.043 0.278 1.414-0.106 2.398-0.493 2.957-1.157z" inkscape:connector-curvature="0"/>
      <path id="path190" style="fill-rule:evenodd;fill:#87abae" d="m291.42 31.386c0.586 0.508 1.297 0.879 2.121 1.122 0.879 0.265 1.641 0.371 2.281 0.32 0.641-0.055 1.039-0.242 1.199-0.563 0.161-0.343-0.039-0.757-0.601-1.238-0.531-0.453-1.227-0.812-2.078-1.082-0.883-0.238-1.641-0.348-2.282-0.32-0.585 0.054-0.984 0.226-1.199 0.523-0.215 0.32-0.027 0.731 0.559 1.238z" inkscape:connector-curvature="0"/>
      <path id="path192" style="fill-rule:evenodd;fill:#87abae" d="m297.9 45.586c0.348-0.532 0.055-1.211-0.879-2.039-0.961-0.829-2.16-1.399-3.601-1.719-1.465-0.348-2.734-0.426-3.801-0.242-1.039 0.16-1.664 0.523-1.879 1.082-0.187 0.586 0.199 1.215 1.16 1.879 0.934 0.668 2.094 1.16 3.481 1.48 3.121 0.668 4.961 0.52 5.519-0.441z" inkscape:connector-curvature="0"/>
      <path id="path194" style="fill-rule:evenodd;fill:#98b3ab" d="m329.62 32.828c-0.027-1.016-0.934-1.879-2.723-2.602-1.679-0.691-3.785-1.117-6.316-1.277-2.535-0.164-4.629-0.043-6.281 0.359-1.813 0.399-2.867 1.09-3.16 2.078-0.321 1.04 0.414 2.11 2.199 3.2 1.867 1.121 4.121 1.761 6.761 1.922 2.637 0.16 4.918-0.161 6.84-0.961 1.84-0.746 2.731-1.653 2.68-2.719z" inkscape:connector-curvature="0"/>
      <path id="path196" style="fill-rule:evenodd;fill:#98b3ab" d="m339.74 28.148c0.028-0.668-0.574-1.199-1.801-1.601-1.144-0.399-2.492-0.575-4.039-0.52-1.785 0.027-2.984 0.082-3.597 0.16-1.016 0.16-1.707 0.481-2.082 0.961-0.508 0.586-0.149 1.332 1.082 2.238 1.277 0.989 2.797 1.454 4.558 1.403 1.735-0.028 3.16-0.309 4.282-0.84 1.039-0.535 1.574-1.137 1.597-1.801z" inkscape:connector-curvature="0"/>
      <path id="path198" style="fill-rule:evenodd;fill:#819da1" d="m330.42 41.308c-0.024-0.402-0.399-0.734-1.117-1-0.746-0.242-1.641-0.336-2.68-0.281-1.043 0.082-1.949 0.359-2.723 0.84-0.691 0.48-0.957 0.906-0.797 1.281 0.293 0.719 1.547 1.012 3.758 0.879 0.989-0.051 1.84-0.254 2.559-0.601 0.723-0.317 1.055-0.692 1-1.118z" inkscape:connector-curvature="0"/>
      <path id="path200" style="fill-rule:evenodd;fill:#87abae" d="m337.18 38.226c0.933-0.078 1.414-0.277 1.441-0.597 0.051-0.161-0.082-0.309-0.402-0.442-0.348-0.16-0.719-0.226-1.118-0.199-0.933 0.078-1.414 0.277-1.441 0.598-0.027 0.187 0.106 0.347 0.398 0.48 0.321 0.133 0.696 0.188 1.122 0.16z" inkscape:connector-curvature="0"/>
      <path id="path202" style="fill-rule:evenodd;fill:#819da1" d="m355.18 34.828c1.011-0.641 1.453-1.281 1.32-1.918-0.109-0.617-0.762-1.055-1.961-1.32-1.121-0.215-2.453-0.215-4 0-1.574 0.211-2.824 0.531-3.758 0.957-1.066 0.48-1.617 1.043-1.64 1.679-0.055 0.668 0.519 1.215 1.718 1.641 1.254 0.453 2.692 0.574 4.321 0.359 1.601-0.265 2.933-0.73 4-1.398z" inkscape:connector-curvature="0"/>
      <path id="path204" style="fill-rule:evenodd;fill:#87abae" d="m346.38 39.066c-0.051-0.265-0.414-0.348-1.078-0.238-0.563 0.055-0.895 0.172-1 0.359-0.055 0.106 0.039 0.215 0.277 0.321 0.242 0.132 0.508 0.187 0.801 0.16 0.719-0.082 1.055-0.282 1-0.602z" inkscape:connector-curvature="0"/>
      <path id="path206" style="fill-rule:evenodd;fill:#87abae" d="m341.74 42.668c0-0.375-0.332-0.68-1-0.922-0.668-0.238-1.437-0.332-2.32-0.278-0.906 0.024-1.692 0.2-2.36 0.52-0.64 0.344-0.917 0.707-0.839 1.078 0.082 0.348 0.425 0.613 1.039 0.801 0.613 0.187 1.375 0.266 2.281 0.242 0.883-0.055 1.629-0.215 2.242-0.48 0.613-0.297 0.934-0.614 0.957-0.961z" inkscape:connector-curvature="0"/>
      <path id="path208" style="fill-rule:evenodd;fill:#87abae" d="m347.98 28.906c0.051-0.266-0.226-0.465-0.839-0.598-0.293-0.027-0.547 0-0.762 0.078-0.211 0.082-0.293 0.176-0.238 0.282 0.023 0.16 0.304 0.293 0.839 0.398 0.586 0.11 0.918 0.055 1-0.16z" inkscape:connector-curvature="0"/>
      <path id="path210" style="fill-rule:evenodd;fill:#87abae" d="m323.22 24.547c-0.133-0.454-0.774-0.653-1.918-0.598-0.535 0-0.973 0.066-1.321 0.199-0.375 0.16-0.574 0.348-0.601 0.559-0.024 0.215 0.16 0.402 0.562 0.558 0.371 0.161 0.84 0.243 1.399 0.243 0.531-0.028 1-0.149 1.398-0.36 0.375-0.187 0.535-0.387 0.481-0.601z" inkscape:connector-curvature="0"/>
      <path id="path212" style="fill-rule:evenodd;fill:#98b3ab" d="m320.14 10.468c-0.055-0.64-0.684-1.109-1.883-1.402-1.254-0.316-2.68-0.332-4.278-0.039-1.601 0.348-2.922 0.922-3.961 1.719-0.988 0.773-1.359 1.469-1.121 2.082 0.215 0.586 0.907 0.961 2.082 1.121 1.09 0.133 2.399 0.039 3.918-0.281 1.547-0.321 2.817-0.762 3.801-1.321 1.016-0.613 1.492-1.238 1.442-1.879z" inkscape:connector-curvature="0"/>
      <path id="path214" style="fill-rule:evenodd;fill:#87abae" d="m325.58 8.308c0.109-0.16 0.016-0.347-0.277-0.562-0.321-0.211-0.696-0.32-1.121-0.32-0.426 0-0.774 0.054-1.039 0.16-0.293 0.136-0.442 0.281-0.442 0.441 0 0.188 0.149 0.332 0.442 0.441 0.265 0.106 0.597 0.161 1 0.161 0.796 0 1.277-0.11 1.437-0.321z" inkscape:connector-curvature="0"/>
      <path id="path216" style="fill-rule:evenodd;fill:#98b3ab" d="m334.18 13.386c-0.348-0.851-1.868-1.187-4.559-1-1.203 0.082-2.242 0.348-3.121 0.801-0.906 0.426-1.309 0.895-1.199 1.399 0.105 0.507 0.586 0.894 1.437 1.16 0.856 0.269 1.922 0.363 3.203 0.281 1.25-0.078 2.348-0.426 3.278-1.039 0.851-0.586 1.175-1.121 0.961-1.602z" inkscape:connector-curvature="0"/>
      <path id="path218" style="fill-rule:evenodd;fill:#87abae" d="m337.86 10.547c0.028-0.293-0.226-0.559-0.758-0.801-0.535-0.211-1.175-0.305-1.921-0.281-0.719 0-1.332 0.093-1.84 0.281-0.481 0.215-0.735 0.469-0.758 0.762-0.027 0.293 0.211 0.558 0.719 0.8 0.531 0.211 1.172 0.317 1.918 0.317 0.718-0.024 1.336-0.133 1.839-0.317 0.508-0.215 0.774-0.468 0.801-0.761z" inkscape:connector-curvature="0"/>
      <path id="path220" style="fill-rule:evenodd;fill:#87abae" d="m346.3 12.586c0.05-0.504-0.375-0.946-1.282-1.321-0.933-0.398-2.027-0.558-3.281-0.476-1.226 0.078-2.265 0.32-3.121 0.719-0.824 0.398-1.226 0.851-1.199 1.359 0 0.508 0.453 0.906 1.359 1.199 0.91 0.32 1.961 0.426 3.16 0.32 1.227-0.082 2.243-0.281 3.043-0.601 0.825-0.317 1.266-0.719 1.321-1.199z" inkscape:connector-curvature="0"/>
      <path id="path222" style="fill-rule:evenodd;fill:#87abae" d="m356.22 12.949c0.402-0.188 0.574-0.387 0.519-0.602-0.051-0.398-0.68-0.668-1.879-0.8-1.121-0.133-1.789-0.028-2 0.32-0.133 0.187-0.015 0.426 0.36 0.719 0.398 0.293 0.879 0.48 1.441 0.562 0.586 0.078 1.106 0.012 1.559-0.199z" inkscape:connector-curvature="0"/>
      <path id="path224" style="fill-rule:evenodd;fill:#819da1" d="m249.7 14.508c0.027-0.348-0.254-0.641-0.84-0.883-0.613-0.293-1.347-0.426-2.199-0.399-0.879 0.028-1.641 0.266-2.281 0.719-0.586 0.402-0.785 0.762-0.598 1.082 0.266 0.481 1.266 0.691 3 0.641 0.774-0.028 1.438-0.149 2-0.36 0.586-0.215 0.891-0.48 0.918-0.8z" inkscape:connector-curvature="0"/>
      <path id="path226" style="fill-rule:evenodd;fill:#87abae" d="m247.14 44.066c0.023-0.371-0.254-0.719-0.84-1.039-0.535-0.293-1.243-0.508-2.121-0.641-0.879-0.16-1.641-0.171-2.282-0.039-0.691 0.133-1.066 0.371-1.117 0.719-0.082 0.375 0.172 0.746 0.758 1.121 0.559 0.375 1.293 0.641 2.199 0.801 0.883 0.133 1.668 0.105 2.36-0.082 0.695-0.184 1.043-0.465 1.043-0.84z" inkscape:connector-curvature="0"/>
      <path id="path228" style="fill-rule:evenodd;fill:#87abae" d="m251.74 46.468c0.055-0.16-0.051-0.335-0.32-0.519-0.266-0.16-0.598-0.281-1-0.363-0.399-0.078-0.746-0.094-1.039-0.039-0.293 0.082-0.465 0.199-0.52 0.359-0.027 0.16 0.094 0.32 0.36 0.48 0.242 0.188 0.562 0.321 0.961 0.403 0.398 0.078 0.746 0.078 1.039 0 0.32-0.055 0.496-0.16 0.519-0.321z" inkscape:connector-curvature="0"/>
      <path id="path230" style="fill-rule:evenodd;fill:#98b3ab" d="m116.74 30.187c-0.105-0.668-0.691-1.215-1.758-1.64-1.066-0.426-2.441-0.68-4.121-0.758-1.652-0.11-3.133 0.183-4.441 0.879-1.25 0.668-1.746 1.332-1.481 2 0.43 1.121 2.375 1.773 5.844 1.961 1.598 0.05 3.012-0.176 4.238-0.68 1.254-0.508 1.829-1.094 1.719-1.762z" inkscape:connector-curvature="0"/>
      <path id="path232" style="fill-rule:evenodd;fill:#87abae" d="m133.02 13.265c-0.054-0.265-0.332-0.437-0.839-0.515-0.481-0.082-1.055-0.055-1.719 0.078-0.641 0.133-1.176 0.348-1.602 0.64-0.398 0.293-0.574 0.575-0.519 0.84 0.051 0.266 0.332 0.442 0.84 0.52 0.507 0.082 1.078 0.055 1.718-0.078 0.641-0.137 1.176-0.348 1.602-0.641 0.398-0.297 0.574-0.574 0.519-0.844z" inkscape:connector-curvature="0"/>
      <path id="path234" style="fill-rule:evenodd;fill:#98b3ab" d="m142.02 13.867c-0.027-0.399-0.414-0.707-1.16-0.918-0.773-0.215-1.652-0.254-2.64-0.121-0.985 0.133-1.801 0.387-2.438 0.762-0.668 0.343-0.988 0.73-0.961 1.16 0.051 0.398 0.453 0.703 1.199 0.918 0.747 0.215 1.614 0.242 2.602 0.082 0.984-0.137 1.813-0.387 2.477-0.762 0.668-0.348 0.976-0.723 0.921-1.121z" inkscape:connector-curvature="0"/>
      <path id="path236" style="fill-rule:evenodd;fill:#87abae" d="m143.78 8.066c-0.02-0.613-0.62-1.066-1.8-1.359-1.175-0.321-2.507-0.348-4-0.078-1.519 0.265-2.761 0.691-3.722 1.281-0.985 0.586-1.438 1.183-1.36 1.797 0.082 0.613 0.696 1.054 1.84 1.32 1.149 0.266 2.469 0.266 3.961 0 1.465-0.238 2.695-0.641 3.68-1.199 0.988-0.563 1.453-1.149 1.402-1.762z" inkscape:connector-curvature="0"/>
      <path id="path238" style="fill-rule:evenodd;fill:#87abae" d="m385.22 48.629c-0.028-0.614-0.625-1.082-1.801-1.403-1.145-0.293-2.481-0.32-4-0.078-1.52 0.266-2.758 0.692-3.719 1.278-0.984 0.617-1.441 1.23-1.359 1.839 0.105 0.59 0.734 1.016 1.879 1.282 1.148 0.265 2.453 0.281 3.922 0.039 1.492-0.266 2.718-0.664 3.679-1.2 0.985-0.558 1.453-1.144 1.399-1.757z" inkscape:connector-curvature="0"/>
      <path id="path240" style="fill-rule:evenodd;fill:#87abae" d="m148.9 45.027c0.028-0.398-0.265-0.773-0.879-1.121-0.613-0.344-1.386-0.613-2.32-0.797-0.933-0.215-1.773-0.242-2.519-0.082-0.774 0.133-1.188 0.399-1.243 0.801-0.05 0.398 0.227 0.801 0.844 1.199 0.586 0.399 1.371 0.707 2.36 0.922 0.984 0.184 1.863 0.184 2.64 0 0.746-0.215 1.117-0.523 1.117-0.922z" inkscape:connector-curvature="0"/>
      <path id="path242" style="fill-rule:evenodd;fill:#87abae" d="m168.82 42.109c0.078-0.242-0.082-0.523-0.48-0.844-0.453-0.316-1.016-0.531-1.68-0.636-0.668-0.11-1.254-0.094-1.762 0.039-0.48 0.16-0.718 0.375-0.718 0.64-0.028 0.559 0.691 0.957 2.16 1.2 1.465 0.238 2.293 0.105 2.48-0.399z" inkscape:connector-curvature="0"/>
      <path id="path244" style="fill-rule:evenodd;fill:#87abae" d="m174.62 54.109c0.027-0.32-0.227-0.629-0.762-0.922-0.535-0.265-1.199-0.453-2-0.558-0.828-0.082-1.535-0.043-2.121 0.117-0.586 0.187-0.89 0.441-0.918 0.762-0.027 0.347 0.227 0.652 0.758 0.918 0.535 0.296 1.203 0.48 2 0.562 0.801 0.105 1.508 0.066 2.121-0.121 0.586-0.188 0.895-0.441 0.922-0.758z" inkscape:connector-curvature="0"/>
      <path id="path246" style="fill-rule:evenodd;fill:#87abae" d="m188.98 53.308c0.266-0.453-0.015-0.976-0.839-1.562-0.907-0.637-1.977-0.957-3.204-0.957-1.226 0-2.25 0.183-3.078 0.558-0.773 0.348-1.16 0.762-1.16 1.239-0.027 0.457 0.399 0.84 1.281 1.16 0.801 0.297 1.758 0.441 2.879 0.441 1.199 0.028 2.094-0.011 2.68-0.121 0.746-0.133 1.227-0.387 1.441-0.758z" inkscape:connector-curvature="0"/>
      <path id="path248" style="fill-rule:evenodd;fill:#809195" d="m120.98 38.347c-0.109-0.293-0.453-0.48-1.043-0.558-0.613-0.055-1.293 0.023-2.039 0.238s-1.371 0.508-1.879 0.879c-0.48 0.402-0.668 0.75-0.558 1.043 0.105 0.316 0.453 0.504 1.039 0.559 0.586 0.054 1.266-0.028 2.039-0.243 0.773-0.211 1.387-0.504 1.84-0.879 0.48-0.371 0.679-0.718 0.601-1.039z" inkscape:connector-curvature="0"/>
      <path id="path250" style="fill-rule:evenodd;fill:#819fa2" d="m482.58 22.707c2.109-0.082 3.801-0.348 5.082-0.801 0.641-0.238 1.094-0.492 1.359-0.758-0.105-0.027-0.015-0.176 0.282-0.441 0.215-0.215 0.293-0.309 0.238-0.281-0.133-0.133-0.012-0.118 0.359 0.039 0.243 0.242 0.414 0.121 0.52-0.356 0.109-0.484-0.012-0.883-0.36-1.203-0.398-0.559-1.027-1.039-1.878-1.441-1.625-0.77-3.559-1.118-5.801-1.039-2.16 0.027-4.039 0.468-5.641 1.32-1.547 0.828-2.183 1.691-1.918 2.601 0.211 0.774 1.051 1.371 2.52 1.801 1.386 0.426 3.133 0.613 5.238 0.559z" inkscape:connector-curvature="0"/>
      <path id="path252" style="fill-rule:evenodd;fill:#819fa2" d="m493.38 26.949c0.746 0.371 1.652 0.613 2.719 0.719 1.015 0.105 1.921 0.066 2.722-0.121 0.16-0.082 0.305-0.121 0.438-0.121 0.078-0.047 0.203-0.235 0.383-0.559 0.05 0.109 0.121 0.176 0.218 0.199-0.027-0.051 0.067-0.023 0.282 0.082 0.21-0.055 0.238-0.387 0.078-1-0.266-0.293-0.598-0.574-1-0.84-0.719-0.398-1.653-0.668-2.801-0.8-1.09-0.106-2.024-0.04-2.797 0.199-0.773 0.242-1.187 0.574-1.242 1-0.078 0.426 0.254 0.84 1 1.242z" inkscape:connector-curvature="0"/>
      <path id="path254" style="fill-rule:evenodd;fill:#809195" d="m480.34 28.027c0.187-0.719-0.375-1.375-1.68-1.961-1.414-0.586-2.988-0.758-4.723-0.519-1.73 0.242-3.144 0.679-4.238 1.32s-1.613 1.309-1.558 2c0.05 0.695 0.73 1.199 2.039 1.519 1.254 0.293 2.691 0.336 4.32 0.122 3.625-0.454 5.57-1.282 5.84-2.481z" inkscape:connector-curvature="0"/>
      <path id="path256" style="fill-rule:evenodd;fill:#809195" d="m485.58 29.668c0.055 0.347 0.547 0.574 1.48 0.679 0.426 0.028 0.813-0.027 1.161-0.16 0.32-0.133 0.468-0.277 0.441-0.437-0.027-0.375-0.535-0.602-1.519-0.684-0.403-0.023-0.774 0.027-1.122 0.16-0.32 0.133-0.464 0.282-0.437 0.442h-0.004z" inkscape:connector-curvature="0"/>
      <path id="path258" style="fill-rule:evenodd;fill:#809195" d="m457.98 18.746c-1.894-0.879-4.015-1.184-6.359-0.918-2.348 0.187-4.32 0.734-5.922 1.64-1.547 0.879-2.254 1.786-2.117 2.719 0.133 0.906 1.051 1.586 2.758 2.039 1.625 0.453 3.574 0.586 5.84 0.403 4.773-0.43 7.453-1.469 8.039-3.121 0.375-1.012-0.371-1.934-2.239-2.762z" inkscape:connector-curvature="0"/>
      <path id="path260" style="fill-rule:evenodd;fill:#819fa2" d="m442.34 28.066c0.051-0.64-0.52-1.117-1.719-1.437-1.281-0.348-2.684-0.336-4.203 0.039-1.52 0.375-2.758 1-3.719 1.879-0.879 0.828-1.172 1.535-0.879 2.121 0.531 1.039 2.426 1.148 5.68 0.32 3.199-0.828 4.812-1.801 4.84-2.922z" inkscape:connector-curvature="0"/>
      <path id="path262" style="fill-rule:evenodd;fill:#809195" d="m455.62 29.109c0-0.269-0.203-0.496-0.602-0.683-0.398-0.188-0.918-0.293-1.558-0.317-0.613-0.055-1.149 0-1.602 0.156-0.453 0.161-0.679 0.375-0.679 0.641 0.027 0.242 0.238 0.453 0.64 0.641 0.426 0.187 0.934 0.308 1.52 0.359 0.613 0.027 1.144-0.039 1.597-0.199 0.457-0.16 0.684-0.36 0.684-0.598z" inkscape:connector-curvature="0"/>
      <path id="path264" style="fill-rule:evenodd;fill:#8ca79f" d="m419.9 30.187c1.442 0.559 2.828 0.614 4.16 0.16 1.442-0.347 2.602-0.839 3.481-1.48 0.828-0.613 1.199-1.215 1.121-1.801-0.109-0.586-0.723-0.957-1.84-1.117-1.094-0.137-2.32-0.043-3.683 0.277-2.157 0.535-3.692 1.254-4.598 2.16-0.481 0.668-0.027 1.266 1.359 1.801z" inkscape:connector-curvature="0"/>
      <path id="path266" style="fill-rule:evenodd;fill:#809195" d="m419.18 33.629c-0.454-0.801-1.414-1.43-2.879-1.883-0.883-0.266-1.696-0.36-2.442-0.281-0.746 0.082-1.148 0.32-1.199 0.722-0.027 0.371 0.211 0.758 0.719 1.16 0.508 0.426 1.215 0.774 2.121 1.039 0.824 0.321 1.691 0.387 2.598 0.2 0.933-0.184 1.296-0.504 1.082-0.957z" inkscape:connector-curvature="0"/>
      <path id="path268" style="fill-rule:evenodd;fill:#809195" d="m428.46 32.347c-0.055-0.238-0.309-0.425-0.762-0.558-0.508-0.11-1.066-0.094-1.68 0.039-0.64 0.133-1.171 0.371-1.601 0.719-0.371 0.347-0.504 0.64-0.399 0.879 0.239 0.453 1.039 0.523 2.399 0.203 0.613-0.133 1.109-0.309 1.48-0.52 0.403-0.269 0.586-0.523 0.563-0.762z" inkscape:connector-curvature="0"/>
      <path id="path270" style="fill-rule:evenodd;fill:#819fa2" d="m467.18 39.226c1.226-0.613 1.839-1.293 1.839-2.039 0-0.773-0.691-1.386-2.082-1.84-1.41-0.48-3.039-0.625-4.879-0.441-1.867 0.187-3.398 0.574-4.601 1.16-1.25 0.613-1.879 1.293-1.879 2.039 0 0.774 0.691 1.387 2.082 1.84 1.41 0.481 3.039 0.629 4.879 0.441 1.867-0.187 3.414-0.574 4.641-1.16z" inkscape:connector-curvature="0"/>
      <path id="path272" style="fill-rule:evenodd;fill:#819fa2" d="m376.42 12.828c-0.051-0.426-0.399-0.813-1.039-1.16-0.664-0.348-1.547-0.586-2.641-0.719-1.039-0.133-1.972-0.082-2.801 0.16-0.824 0.238-1.238 0.586-1.238 1.039 0 0.426 0.348 0.828 1.039 1.199 0.696 0.348 1.574 0.586 2.641 0.719 1.039 0.133 1.988 0.082 2.84-0.156 0.851-0.27 1.254-0.629 1.199-1.082z" inkscape:connector-curvature="0"/>
      <path id="path274" style="fill-rule:evenodd;fill:#819fa2" d="m393.06 6.066c0.215 0.133 0.321 0.016 0.321-0.359-0.028-0.371-0.16-0.641-0.399-0.797-0.402-0.402-0.855-0.711-1.359-0.922-1.227-0.535-2.641-0.762-4.242-0.68-1.598 0.028-2.945 0.305-4.039 0.84-1.094 0.508-1.625 1.078-1.602 1.719 0 0.641 0.586 1.16 1.762 1.559 1.117 0.402 2.465 0.574 4.039 0.523 1.492-0.027 2.773-0.254 3.84-0.684 0.851-0.343 1.414-0.746 1.679-1.199z" inkscape:connector-curvature="0"/>
      <path id="path276" style="fill-rule:evenodd;fill:#819fa2" d="m392.02 12.547c0.082-0.399-0.171-0.825-0.761-1.282-0.586-0.453-1.371-0.812-2.36-1.078-1.011-0.293-1.906-0.375-2.679-0.242-0.371 0.027-0.719 0.133-1.039 0.32 0-0.105-0.11-0.027-0.321 0.243-0.215 0.238-0.238 0.386-0.078 0.437 0.133 0.109 0.238 0.121 0.317 0.043-0.079 0.238 0.148 0.57 0.683 1 0.613 0.449 1.383 0.813 2.317 1.078 0.96 0.266 1.839 0.36 2.64 0.281 0.774-0.105 1.199-0.375 1.281-0.8z" inkscape:connector-curvature="0"/>
      <path id="path278" style="fill-rule:evenodd;fill:#809195" d="m188.7 38.187c2.215-1.492 2.922-2.801 2.121-3.922-0.613-0.906-1.789-1.531-3.519-1.879-1.364-0.265-3.547-0.425-6.563-0.48-2.773-0.105-5.293 0.508-7.558 1.84-2.188 1.281-2.989 2.508-2.399 3.68 0.504 1.015 1.625 1.75 3.36 2.203 1.597 0.453 3.863 0.703 6.796 0.757 2.911 0.106 5.497-0.625 7.762-2.199z" inkscape:connector-curvature="0"/>
      <path id="path280" style="fill-rule:evenodd;fill:#819fa2" d="m398.98 18.547c0.106-0.215 0.012-0.481-0.281-0.801-0.293-0.371-0.707-0.68-1.242-0.918-0.531-0.242-1.039-0.348-1.52-0.32-0.48 0-0.746 0.121-0.796 0.359-0.137 0.48 0.398 0.988 1.597 1.519 0.508 0.243 0.977 0.387 1.403 0.442 0.453 0.027 0.73-0.067 0.839-0.281z" inkscape:connector-curvature="0"/>
      <path id="path282" style="fill-rule:evenodd;fill:#819fa2" d="m373.42 1.828c-0.078-0.188-0.453-0.281-1.117-0.281-0.641-0.106-1.028-0.067-1.16 0.121-0.083 0.105-0.016 0.254 0.199 0.441 0.215 0.211 0.508 0.332 0.879 0.356 0.375 0.027 0.683-0.039 0.922-0.2 0.238-0.156 0.332-0.304 0.277-0.437z" inkscape:connector-curvature="0"/>
      <path id="path284" style="fill-rule:evenodd;fill:#819fa2" d="m379.22 32.468c0.054-0.535-0.36-1.015-1.239-1.441-0.855-0.426-1.933-0.691-3.242-0.801-1.281-0.05-2.387 0.094-3.32 0.442-0.93 0.375-1.387 0.812-1.36 1.32 0.028 0.508 0.469 0.945 1.321 1.32 0.851 0.371 1.906 0.598 3.16 0.68 1.254 0.078 2.332-0.027 3.242-0.32 0.934-0.293 1.41-0.696 1.438-1.2z" inkscape:connector-curvature="0"/>
      <path id="path286" style="fill-rule:evenodd;fill:#8ca79f" d="m485.58 7.707c0.453-0.321 0.816-0.453 1.082-0.399 0.211 0.133 0.371 0.012 0.481-0.359 0.105-0.375 0.078-0.707-0.083-1-0.238-0.617-0.718-1.215-1.437-1.801-1.363-1.094-3.137-1.828-5.32-2.199-2.055-0.453-4-0.309-5.84 0.437-1.789 0.696-2.453 1.52-2 2.481 0.746 1.359 3.023 2.375 6.84 3.043 1.785 0.289 3.414 0.371 4.879 0.238 0.453 0.051 0.918-0.094 1.398-0.441z" inkscape:connector-curvature="0"/>
      <path id="path288" style="fill-rule:evenodd;fill:#819fa2" d="m468.94 3.508c-0.132-0.696-1.066-1.11-2.796-1.243-0.774-0.05-1.481 0.043-2.122 0.282-0.585 0.265-0.851 0.562-0.8 0.879 0.054 0.32 0.336 0.589 0.839 0.8 0.508 0.188 1.161 0.309 1.961 0.36 0.747 0.054 1.442-0.024 2.082-0.239 0.614-0.238 0.891-0.519 0.836-0.839z" inkscape:connector-curvature="0"/>
      <path id="path290" style="fill-rule:evenodd;fill:#8ca79f" d="m286.86 46.746c0.266-1.199-0.695-2.266-2.879-3.199-2.293-0.961-4.922-1.254-7.882-0.879-2.957 0.293-5.465 1.281-7.52 2.961-1.945 1.57-2.559 2.89-1.84 3.957 0.613 0.882 1.867 1.414 3.762 1.601 1.598 0.188 3.812 0.121 6.641-0.199 6.132-0.828 9.371-2.242 9.718-4.242z" inkscape:connector-curvature="0"/>
      <path id="path292" style="fill-rule:evenodd;fill:#809195" d="m129.26 47.386c0.347-0.585-0.051-1.226-1.2-1.918-1.199-0.695-2.531-1-4-0.921-1.464 0.027-2.679 0.242-3.64 0.64-0.957 0.375-1.492 0.856-1.598 1.442-0.082 0.586 0.426 1.105 1.52 1.558s2.347 0.668 3.758 0.641c2.882-0.082 4.601-0.563 5.16-1.442z" inkscape:connector-curvature="0"/>
      <path id="path294" style="fill-rule:evenodd;fill:#819fa2" d="m401.66 41.148c0.055-0.187-0.094-0.347-0.441-0.48-0.348-0.133-0.731-0.188-1.161-0.16-0.425 0-0.785 0.066-1.078 0.199s-0.441 0.293-0.441 0.48c0 0.188 0.16 0.332 0.48 0.442 0.293 0.105 0.653 0.144 1.082 0.117 0.957-0.051 1.477-0.254 1.559-0.598z" inkscape:connector-curvature="0"/>
      <path id="path296" style="fill-rule:evenodd;fill:#819fa2" d="m151.66 56.828c0.188-0.613-0.254-1.254-1.32-1.922-1.149-0.719-2.52-1.145-4.121-1.277-1.598-0.11-2.973 0.05-4.121 0.48-1.118 0.426-1.692 0.957-1.719 1.598-0.028 0.613 0.508 1.176 1.601 1.679 1.039 0.454 2.332 0.735 3.879 0.84 1.547 0.133 2.828 0.094 3.84-0.117 1.094-0.242 1.746-0.668 1.961-1.281z" inkscape:connector-curvature="0"/>
      <path id="path298" style="fill-rule:evenodd;fill:#809195" d="m47.145 38.629c0.48-0.641 0.039-1.348-1.321-2.121-1.414-0.801-2.922-1.094-4.519-0.879-1.653 0.132-2.989 0.453-4 0.957-0.989 0.453-1.535 1.015-1.641 1.679-0.082 0.641 0.504 1.176 1.758 1.602s2.64 0.574 4.16 0.441c1.574-0.132 2.789-0.32 3.641-0.562 0.879-0.266 1.519-0.637 1.922-1.117z" inkscape:connector-curvature="0"/>
      <path id="path300" style="fill-rule:evenodd;fill:#819fa2" d="m30.902 35.668c1.547 0.16 3.387 0.011 5.52-0.442 2.297-0.504 3.949-0.972 4.961-1.398 1.336-0.535 2.16-1.199 2.48-2 0.399-0.988-0.347-1.867-2.238-2.641-2-0.851-4.148-1.011-6.441-0.48-2.321 0.508-4.2 1.32-5.641 2.441-1.359 1.094-1.895 2.078-1.602 2.961 0.27 0.852 1.254 1.371 2.961 1.559z" inkscape:connector-curvature="0"/>
      <path id="path302" style="fill-rule:evenodd;fill:#819fa2" d="m54.902 33.426c0.055-0.372-0.265-0.704-0.961-1-0.691-0.266-1.492-0.383-2.398-0.36-0.906 0.027-1.652 0.176-2.238 0.442-0.563 0.214-0.907 0.492-1.043 0.839-0.106 0.403 0.215 0.746 0.961 1.039 0.718 0.293 1.519 0.43 2.402 0.403 0.906-0.055 1.664-0.199 2.277-0.442 0.614-0.238 0.95-0.546 1-0.921z" inkscape:connector-curvature="0"/>
      <path id="path304" style="fill-rule:evenodd;fill:#819fa2" d="m60.062 45.988c0.161-0.641-0.347-1.199-1.519-1.68-1.199-0.507-2.547-0.668-4.039-0.48-1.496 0.133-2.734 0.453-3.719 0.961-0.961 0.504-1.457 1.066-1.48 1.679 0 0.586 0.57 1.051 1.718 1.399 1.122 0.348 2.399 0.453 3.84 0.32 3.227-0.32 4.961-1.054 5.199-2.199z" inkscape:connector-curvature="0"/>
      <path id="path306" style="fill-rule:evenodd;fill:#8ca79f" d="m82.902 38.949c0.028-1.043-0.84-1.988-2.597-2.84-1.653-0.828-3.762-1.414-6.321-1.762-2.586-0.32-4.722-0.347-6.402-0.082-1.863 0.321-2.973 0.961-3.32 1.922-0.399 1.012 0.269 2.145 2 3.399 1.789 1.281 4.015 2.093 6.679 2.441 2.668 0.32 5.016 0.149 7.043-0.519 1.918-0.641 2.891-1.493 2.918-2.559z" inkscape:connector-curvature="0"/>
      <path id="path308" style="fill-rule:evenodd;fill:#8ca79f" d="m93.504 34.906c0.078-0.664-0.496-1.254-1.719-1.758-1.148-0.48-2.496-0.762-4.043-0.84-1.89-0.082-3.117-0.093-3.68-0.043-1.039 0.082-1.773 0.348-2.199 0.801-0.558 0.559-0.254 1.348 0.922 2.36 1.25 1.093 2.774 1.683 4.559 1.761 1.758 0.078 3.226-0.121 4.398-0.601 1.121-0.453 1.707-1.012 1.762-1.68z" inkscape:connector-curvature="0"/>
      <path id="path310" style="fill-rule:evenodd;fill:#809195" d="m83.102 47.629c-0.024-0.43-0.383-0.801-1.079-1.121-0.718-0.293-1.613-0.454-2.679-0.481-1.067 0-2 0.227-2.801 0.68-0.773 0.426-1.078 0.84-0.918 1.242 0.266 0.769 1.504 1.16 3.719 1.16 1.011 0 1.894-0.148 2.64-0.441s1.118-0.641 1.118-1.039z" inkscape:connector-curvature="0"/>
      <path id="path312" style="fill-rule:evenodd;fill:#819fa2" d="m91.703 44.426c0.055-0.161-0.078-0.317-0.398-0.477-0.321-0.16-0.696-0.242-1.121-0.242-0.907 0-1.414 0.176-1.52 0.519-0.055 0.16 0.078 0.321 0.398 0.481 0.321 0.16 0.696 0.242 1.122 0.242 0.933 0 1.441-0.176 1.519-0.523z" inkscape:connector-curvature="0"/>
      <path id="path314" style="fill-rule:evenodd;fill:#809195" d="m110.18 40.906c-0.082-0.641-0.707-1.133-1.879-1.48-1.149-0.317-2.508-0.411-4.082-0.278-1.598 0.106-2.907 0.344-3.918 0.719-1.067 0.426-1.653 0.961-1.762 1.601-0.105 0.665 0.441 1.25 1.641 1.758 1.254 0.563 2.707 0.789 4.359 0.68 1.652-0.133 3.039-0.504 4.16-1.117 1.067-0.59 1.559-1.215 1.481-1.883z" inkscape:connector-curvature="0"/>
      <path id="path316" style="fill-rule:evenodd;fill:#819fa2" d="m99.465 46.468c-0.027-0.242-0.387-0.359-1.082-0.359-0.613 0.051-0.961 0.156-1.039 0.317-0.055 0.109 0.039 0.23 0.281 0.363 0.238 0.133 0.504 0.199 0.797 0.199 0.746-0.055 1.094-0.227 1.043-0.52z" inkscape:connector-curvature="0"/>
      <path id="path318" style="fill-rule:evenodd;fill:#819fa2" d="m94.465 49.789c0.051-0.375-0.254-0.707-0.922-1-0.641-0.297-1.426-0.457-2.359-0.481-0.907-0.027-1.707 0.106-2.399 0.399-0.668 0.293-0.976 0.625-0.922 1 0.055 0.347 0.387 0.64 1 0.879 0.614 0.242 1.375 0.386 2.282 0.441 0.933 0 1.707-0.105 2.32-0.32 0.637-0.239 0.973-0.547 1-0.918z" inkscape:connector-curvature="0"/>
      <path id="path320" style="fill-rule:evenodd;fill:#819fa2" d="m101.78 36.265c0.106-0.265-0.16-0.492-0.801-0.679-0.265-0.051-0.519-0.039-0.761 0.043-0.215 0.078-0.305 0.172-0.282 0.281 0.028 0.156 0.309 0.305 0.844 0.437 0.586 0.133 0.918 0.106 1-0.082z" inkscape:connector-curvature="0"/>
      <path id="path322" style="fill-rule:evenodd;fill:#819fa2" d="m76.984 30.066c-0.082-0.453-0.722-0.707-1.922-0.758-0.531-0.027-0.984 0.012-1.359 0.118-0.398 0.136-0.613 0.308-0.641 0.523-0.027 0.211 0.149 0.426 0.52 0.637 0.402 0.187 0.867 0.293 1.402 0.32 0.559 0.027 1.051-0.051 1.481-0.238 0.398-0.188 0.57-0.387 0.519-0.602z" inkscape:connector-curvature="0"/>
      <path id="path324" style="fill-rule:evenodd;fill:#8ca79f" d="m63.742 15.027c1.176-0.375 1.789-0.894 1.84-1.559 0.082-0.667-0.437-1.281-1.559-1.839-1.171-0.563-2.585-0.856-4.238-0.883-1.656-0.028-3.094 0.254-4.32 0.84-1.176 0.59-1.695 1.203-1.563 1.84 0.106 0.667 0.723 1.187 1.84 1.562 1.043 0.348 2.36 0.52 3.961 0.52 1.602 0.054 2.945-0.106 4.039-0.481z" inkscape:connector-curvature="0"/>
      <path id="path326" style="fill-rule:evenodd;fill:#819fa2" d="m71.465 12.426c0.133-0.106 0.078-0.293-0.16-0.559-0.297-0.293-0.641-0.481-1.043-0.559-0.399-0.109-0.758-0.121-1.078-0.043-0.293 0.055-0.465 0.161-0.52 0.321-0.027 0.16 0.094 0.32 0.359 0.48 0.266 0.188 0.586 0.32 0.961 0.402 0.801 0.184 1.293 0.172 1.481-0.042z" inkscape:connector-curvature="0"/>
      <path id="path328" style="fill-rule:evenodd;fill:#8ca79f" d="m78.941 19.308c-0.183-0.91-1.625-1.547-4.316-1.922-1.227-0.187-2.32-0.16-3.281 0.082-0.989 0.266-1.481 0.665-1.481 1.2-0.027 0.508 0.36 0.984 1.16 1.441 0.801 0.453 1.84 0.774 3.122 0.957 1.304 0.188 2.464 0.067 3.48-0.359 0.984-0.399 1.426-0.867 1.316-1.399z" inkscape:connector-curvature="0"/>
      <path id="path330" style="fill-rule:evenodd;fill:#819fa2" d="m83.184 17.265c0.078-0.289-0.122-0.597-0.602-0.918-0.48-0.347-1.078-0.586-1.797-0.718-0.723-0.133-1.347-0.161-1.883-0.082-0.558 0.109-0.879 0.308-0.961 0.601-0.078 0.293 0.121 0.602 0.602 0.918 0.48 0.348 1.082 0.586 1.801 0.723 0.746 0.133 1.386 0.16 1.918 0.078 0.535-0.106 0.84-0.305 0.922-0.602z" inkscape:connector-curvature="0"/>
      <path id="path332" style="fill-rule:evenodd;fill:#819fa2" d="m91.184 21.066c0.16-0.48-0.176-1-1-1.558-0.856-0.614-1.907-1.012-3.161-1.2-1.281-0.16-2.359-0.132-3.238 0.078-0.91 0.243-1.414 0.614-1.523 1.122-0.106 0.507 0.269 1 1.121 1.48 0.828 0.48 1.855 0.813 3.082 1 1.25 0.16 2.293 0.172 3.117 0.039 0.906-0.16 1.441-0.48 1.602-0.961z" inkscape:connector-curvature="0"/>
      <path id="path334" style="fill-rule:evenodd;fill:#819fa2" d="m101.62 23.066c0.027-0.398-0.535-0.801-1.684-1.199-1.117-0.371-1.812-0.414-2.078-0.117-0.16 0.16-0.093 0.426 0.199 0.797 0.321 0.402 0.762 0.679 1.321 0.839 0.558 0.215 1.094 0.27 1.601 0.161 0.454-0.106 0.664-0.266 0.641-0.481z" inkscape:connector-curvature="0"/>
      <path id="path336" style="fill-rule:evenodd;fill:#809195" d="m388.14 34.988c0.613-0.082 0.972-0.281 1.078-0.602 0.082-0.347-0.133-0.707-0.641-1.078-0.559-0.429-1.266-0.722-2.117-0.882-0.883-0.161-1.68-0.079-2.403 0.242-0.64 0.265-0.917 0.574-0.839 0.918 0.16 0.562 1.109 0.988 2.839 1.281 0.774 0.16 1.469 0.199 2.083 0.121z" inkscape:connector-curvature="0"/>
      <path id="path338" style="fill-rule:evenodd;fill:#819fa2" d="m106.7 11.906c-0.027-0.371-0.348-0.691-0.961-0.957-0.558-0.242-1.293-0.387-2.199-0.441-0.879-0.055-1.652 0.011-2.32 0.199-0.664 0.215-1.012 0.492-1.039 0.84-0.028 0.375 0.265 0.718 0.878 1.039 0.614 0.324 1.376 0.523 2.282 0.601 0.906 0.055 1.707-0.054 2.398-0.32 0.696-0.266 1.016-0.586 0.961-0.961z" inkscape:connector-curvature="0"/>
      <path id="path340" style="fill-rule:evenodd;fill:#819fa2" d="m111.62 13.906c0-0.16-0.137-0.32-0.402-0.48-0.293-0.161-0.641-0.25-1.039-0.278-0.399-0.055-0.762-0.027-1.082 0.078-0.293 0.082-0.45 0.215-0.477 0.399 0 0.16 0.133 0.308 0.398 0.441 0.266 0.133 0.614 0.227 1.039 0.281 0.403 0.028 0.762 0 1.083-0.082 0.293-0.078 0.453-0.199 0.48-0.359z" inkscape:connector-curvature="0"/>
      <path id="path342" style="fill-rule:evenodd;fill:#8ca79f" d="m405.06 31.789c-0.027-0.668-0.57-1.27-1.64-1.801-1.039-0.562-2.399-0.949-4.078-1.16-1.653-0.242-3.176-0.067-4.559 0.519-1.363 0.532-1.933 1.149-1.723 1.84 0.321 1.199 2.227 2.039 5.723 2.52 1.625 0.215 3.09 0.121 4.399-0.281 1.308-0.399 1.933-0.946 1.878-1.637z" inkscape:connector-curvature="0"/>
      <path id="path344" style="fill-rule:evenodd;fill:#819fa2" d="m420.82 17.468c0.664-0.109 1.238-0.292 1.719-0.558 0.453-0.242 0.652-0.496 0.602-0.762-0.028-0.265-0.293-0.469-0.801-0.601-0.481-0.133-1.067-0.161-1.762-0.079-0.664 0.106-1.227 0.282-1.68 0.52-0.425 0.266-0.625 0.531-0.597 0.801 0.05 0.265 0.316 0.465 0.797 0.597 0.48 0.133 1.054 0.161 1.722 0.082z" inkscape:connector-curvature="0"/>
      <path id="path346" style="fill-rule:evenodd;fill:#8ca79f" d="m432.18 17.586c0.027-0.426-0.332-0.774-1.082-1.039-0.747-0.293-1.641-0.414-2.68-0.36-1.012 0.055-1.867 0.239-2.559 0.559-0.695 0.293-1.039 0.652-1.039 1.082 0 0.398 0.371 0.746 1.117 1.039 0.747 0.266 1.629 0.375 2.641 0.32 1.016-0.054 1.867-0.226 2.559-0.519 0.695-0.293 1.043-0.653 1.043-1.082z" inkscape:connector-curvature="0"/>
      <path id="path348" style="fill-rule:evenodd;fill:#819fa2" d="m434.5 11.906c0.027-0.641-0.535-1.172-1.68-1.598-1.176-0.402-2.535-0.547-4.082-0.441-1.547 0.105-2.84 0.426-3.879 0.961-1.043 0.531-1.547 1.105-1.519 1.719 0.023 0.64 0.597 1.148 1.718 1.519 1.145 0.348 2.481 0.465 4 0.36 1.547-0.133 2.825-0.426 3.84-0.879 1.039-0.481 1.575-1.028 1.602-1.641z" inkscape:connector-curvature="0"/>
      <path id="path350" style="fill-rule:evenodd;fill:#819fa2" d="m410.46 4.629c0.051-0.403-0.215-0.817-0.801-1.243-0.559-0.398-1.32-0.746-2.281-1.039-0.934-0.293-1.785-0.398-2.559-0.32-0.773 0.082-1.215 0.32-1.32 0.719-0.106 0.402 0.133 0.828 0.719 1.281 0.586 0.481 1.359 0.867 2.32 1.16s1.852 0.375 2.68 0.239c0.773-0.133 1.187-0.399 1.242-0.797z" inkscape:connector-curvature="0"/>
      <path id="path352" style="fill-rule:evenodd;fill:#819fa2" d="m508.94 3.629c0.055-0.27-0.156-0.52-0.636-0.762-0.508-0.266-1.094-0.399-1.762-0.399s-1.254 0.118-1.758 0.36c-0.48 0.238-0.695 0.492-0.64 0.758 0.023 0.242 0.277 0.441 0.757 0.601 0.453 0.16 1 0.239 1.641 0.239 1.519 0 2.32-0.266 2.398-0.797z" inkscape:connector-curvature="0"/>
      <path id="path354" style="fill-rule:evenodd;fill:#819fa2" d="m369.82 17.789c0.051-0.348-0.187-0.68-0.719-1-0.535-0.321-1.203-0.563-2-0.723-0.8-0.156-1.507-0.172-2.121-0.039-0.64 0.133-0.988 0.375-1.039 0.719-0.027 0.32 0.211 0.64 0.719 0.961 0.531 0.347 1.199 0.586 2 0.719 0.801 0.16 1.508 0.175 2.121 0.039 0.637-0.129 0.985-0.356 1.039-0.676z" inkscape:connector-curvature="0"/>
    </g>
  </g>
<metadata><rdf:RDF><cc:Work><dc:format>image/svg+xml</dc:format><dc:type rdf:resource="http://purl.org/dc/dcmitype/StillImage"/><cc:license rdf:resource="http://creativecommons.org/licenses/publicdomain/"/><dc:publisher><cc:Agent rdf:about="http://openclipart.org/"><dc:title>Openclipart</dc:title></cc:Agent></dc:publisher></cc:Work><cc:License rdf:about="http://creativecommons.org/licenses/publicdomain/"><cc:permits rdf:resource="http://creativecommons.org/ns#Reproduction"/><cc:permits rdf:resource="http://creativecommons.org/ns#Distribution"/><cc:permits rdf:resource="http://creativecommons.org/ns#DerivativeWorks"/></cc:License></rdf:RDF></metadata></svg>
