<?xml version="1.0" encoding="UTF-8" standalone="no"?>
<!-- Created with Inkscape (http://www.inkscape.org/) -->
<svg xmlns:inkscape="http://www.inkscape.org/namespaces/inkscape" xmlns:rdf="http://www.w3.org/1999/02/22-rdf-syntax-ns#" xmlns="http://www.w3.org/2000/svg" xmlns:xlink="http://www.w3.org/1999/xlink" xmlns:ns1="http://sozi.baierouge.fr" xmlns:cc="http://creativecommons.org/ns#" xmlns:sodipodi="http://sodipodi.sourceforge.net/DTD/sodipodi-0.dtd" xmlns:dc="http://purl.org/dc/elements/1.1/" id="svg2" xml:space="preserve" viewBox="0 0 565.95 95.93" version="1.1" inkscape:version="0.91 r13725">
  <g id="g10" transform="matrix(1.25 0 0 -1.25 0 95.93)">
    <g id="g12">
      <path id="path14" style="fill-rule:evenodd;fill:#87abae" d="m452.27 20.142c-0.665-0.425-1.918-0.57-3.758-0.437-2.453 0.238-4.399 0.414-5.84 0.519-2.828 0.239-4.961 0.493-6.402 0.758-2.079 0.403-3.293 0.949-3.637 1.641-0.403 0.828 0.305 1.574 2.117 2.242 2 0.773 4.586 1.051 7.762 0.84 3.332-0.293 6.078-1.188 8.238-2.684 2-1.383 2.508-2.344 1.52-2.879z" inkscape:connector-curvature="0"/>
      <path id="path16" style="fill-rule:evenodd;fill:#819da1" d="m386.55 39.224c1.359-0.8 2.094-1.64 2.199-2.519 0.055-0.961-0.945-1.641-3-2.039-1.973-0.375-4.105-0.364-6.398 0.039-2.161 0.347-3.84 0.691-5.04 1.039-0.773 0.238-1.75 0.613-2.921 1.121-0.453 0.238-0.559 0.719-0.321 1.437 0.27 0.774 0.907 1.415 1.922 1.922 1.918 1.067 4.414 1.387 7.481 0.961 2.531-0.453 4.558-1.109 6.078-1.961z" inkscape:connector-curvature="0"/>
      <path id="path18" style="fill-rule:evenodd;fill:#87abae" d="m325.51 56.904c0-0.375-0.321-0.707-0.961-1-0.641-0.293-1.426-0.465-2.36-0.519-0.933-0.106-1.746-0.067-2.441 0.121-0.719 0.16-1.105 0.41-1.16 0.757-0.051 0.348 0.242 0.68 0.883 1 0.64 0.321 1.437 0.547 2.398 0.68 0.984 0.055 1.84-0.027 2.559-0.238 0.695-0.188 1.054-0.453 1.082-0.801z" inkscape:connector-curvature="0"/>
      <path id="path20" style="fill-rule:evenodd;fill:#98b3ab" d="m356.91 61.904c-0.508-0.266-1.121-0.414-1.84-0.441-0.718 0-1.32 0.109-1.8 0.32-0.481 0.215-0.708 0.441-0.68 0.68 0 0.242 0.254 0.441 0.762 0.601 0.453 0.133 1.011 0.199 1.679 0.199 1.492 0.055 2.321-0.144 2.481-0.597 0.078-0.27-0.121-0.524-0.602-0.762z" inkscape:connector-curvature="0"/>
      <path id="path22" style="fill-rule:evenodd;fill:#87abae" d="m344.83 62.025c0.051-0.187-0.082-0.375-0.402-0.562-0.348-0.211-0.758-0.36-1.239-0.438-0.507-0.082-0.949-0.082-1.32 0-0.371 0.078-0.559 0.211-0.559 0.399-0.027 0.187 0.133 0.359 0.481 0.519 0.32 0.188 0.707 0.309 1.16 0.359 0.453 0.083 0.863 0.094 1.238 0.043 0.375-0.054 0.586-0.16 0.641-0.32z" inkscape:connector-curvature="0"/>
      <path id="path24" style="fill-rule:evenodd;fill:#98b3ab" d="m331.15 51.822c0-0.398-0.547-0.625-1.64-0.68-0.43-0.05-0.801-0.05-1.121 0-0.321 0.082-0.508 0.203-0.559 0.364-0.055 0.183 0.078 0.359 0.398 0.519 0.293 0.16 0.696 0.277 1.2 0.36 0.48 0 0.894-0.055 1.242-0.161 0.32-0.105 0.48-0.242 0.48-0.402z" inkscape:connector-curvature="0"/>
      <path id="path26" style="fill-rule:evenodd;fill:#87abae" d="m341.99 45.103c0.051-0.801-0.613-1.531-2-2.199-1.469-0.719-3.347-1.121-5.64-1.199-2.348-0.215-4.414 0.398-6.2 1.84-1.707 1.386-2.043 2.343-1 2.879 0.719 0.375 1.653 0.613 2.797 0.718 0.75 0.055 2.203 0.11 4.363 0.16 2 0.055 3.731-0.093 5.2-0.437 1.625-0.426 2.453-1.016 2.48-1.762z" inkscape:connector-curvature="0"/>
      <path id="path28" style="fill-rule:evenodd;fill:#87abae" d="m423.19 4.744c-0.132 0.32 0.133 0.641 0.801 0.961 0.719 0.316 1.547 0.437 2.481 0.359 0.933-0.109 1.718-0.387 2.359-0.84 0.586-0.453 0.746-0.816 0.48-1.082-0.347-0.425-1.386-0.547-3.121-0.359-1.785 0.133-2.785 0.453-3 0.961z" inkscape:connector-curvature="0"/>
      <path id="path30" style="fill-rule:evenodd;fill:#819da1" d="m406.99 6.263c-0.48 0.614-0.094 1.403 1.16 2.36 1.387 1.043 3.09 1.613 5.118 1.719 2 0.109 3.707-0.145 5.121-0.758 1.332-0.586 1.945-1.227 1.839-1.918-0.187-1.231-2.375-1.977-6.558-2.242-2.055-0.106-3.442-0.133-4.16-0.082-1.282 0.109-2.121 0.414-2.52 0.921z" inkscape:connector-curvature="0"/>
      <path id="path32" style="fill-rule:evenodd;fill:#98b3ab" d="m399.91 69.865c-0.078-0.402-0.508-0.707-1.281-0.922-0.774-0.211-1.707-0.293-2.797-0.238-1.734 0.051-3.016 0.465-3.844 1.238-0.343 0.426-0.011 0.84 1 1.242 0.989 0.426 2 0.571 3.043 0.438 1.094-0.024 2.039-0.238 2.84-0.641 0.774-0.344 1.121-0.719 1.039-1.117z" inkscape:connector-curvature="0"/>
      <path id="path34" style="fill-rule:evenodd;fill:#87abae" d="m391.07 56.463c-1.414-0.344-2.718-0.321-3.918 0.082-1.148 0.398-1.613 0.867-1.402 1.398 0.16 0.426 0.641 0.801 1.441 1.121 0.508 0.215 1.465 0.508 2.879 0.879 1.231 0.32 2.348 0.453 3.364 0.402 1.066-0.082 1.664-0.347 1.796-0.8 0.161-0.481-0.132-1.016-0.878-1.602-0.801-0.613-1.895-1.105-3.282-1.48z" inkscape:connector-curvature="0"/>
      <path id="path36" style="fill-rule:evenodd;fill:#87abae" d="m419.91 38.744c0.961-0.238 1.426-0.586 1.402-1.039 0-0.453-0.386-0.883-1.16-1.281-0.773-0.403-1.773-0.692-3-0.879-1.281-0.16-2.414-0.043-3.402 0.359-0.961 0.371-1.371 0.785-1.238 1.238 0.16 0.828 1.558 1.403 4.199 1.723 1.172 0.184 2.238 0.145 3.199-0.121z" inkscape:connector-curvature="0"/>
      <path id="path38" style="fill-rule:evenodd;fill:#98b3ab" d="m10.512 6.623c0.961 0.242 1.773 0.402 2.437 0.48 0.883 0.133 2.149 0.215 3.801 0.242 3.973 0.051 6.242-0.425 6.801-1.441 0.398-0.668-0.078-1.414-1.442-2.238-1.464-0.883-3.211-1.336-5.238-1.36-2.508 0-4.398 0.532-5.68 1.598-0.668 0.508-1.039 1.082-1.121 1.719-0.105 0.586 0.039 0.922 0.442 1z" inkscape:connector-curvature="0"/>
      <path id="path40" style="fill-rule:evenodd;fill:#87abae" d="m371.27 52.584c0.347-0.371 0.082-0.867-0.797-1.481-0.883-0.613-1.907-0.933-3.082-0.961-1.2-0.078-2.121-0.078-2.758 0-0.723 0.082-1.227 0.282-1.52 0.602-0.347 0.375-0.082 0.855 0.797 1.441 0.883 0.637 1.906 0.973 3.082 1 1.227 0.078 2.149 0.078 2.758 0 0.723-0.082 1.227-0.281 1.52-0.601z" inkscape:connector-curvature="0"/>
      <path id="path42" style="fill-rule:evenodd;fill:#87abae" d="m427.95 52.185c0.082-0.297-0.133-0.601-0.637-0.922-0.507-0.32-1.16-0.546-1.96-0.679-0.774-0.16-1.481-0.16-2.122 0-0.613 0.133-0.918 0.347-0.918 0.64 0 0.614 0.868 1.078 2.598 1.399 0.774 0.133 1.453 0.16 2.043 0.082 0.586-0.082 0.918-0.254 0.996-0.52z" inkscape:connector-curvature="0"/>
      <path id="path44" style="fill-rule:evenodd;fill:#87abae" d="m370.19 74.302c0-0.613-0.613-1.144-1.839-1.597-1.254-0.43-2.747-0.629-4.481-0.602-1.68-0.054-3.133 0.149-4.359 0.602-1.227 0.426-1.867 0.945-1.922 1.558-0.051 0.641 0.535 1.2 1.762 1.68 1.253 0.481 2.773 0.746 4.558 0.801 1.762-0.055 3.254-0.305 4.481-0.762 1.226-0.476 1.828-1.039 1.8-1.68z" inkscape:connector-curvature="0"/>
      <path id="path46" style="fill-rule:evenodd;fill:#98b3ab" d="m446.11 58.385c-0.398-0.801-1.437-1.36-3.117-1.68-1.387-0.242-3.359-0.348-5.922-0.32-2.398 0.027-4.465 0.32-6.199 0.878-1.812 0.586-2.734 1.336-2.758 2.243-0.027 0.933 0.825 1.746 2.559 2.437 1.785 0.746 3.984 1.106 6.598 1.082 2.64-0.027 4.921-0.601 6.843-1.723 1.813-1.066 2.477-2.039 1.996-2.917z" inkscape:connector-curvature="0"/>
      <path id="path48" style="fill-rule:evenodd;fill:#98b3ab" d="m375.63 15.705c-0.348 0.504-0.028 1.144 0.957 1.918 1.015 0.828 2.32 1.387 3.922 1.679 1.597 0.293 3 0.309 4.199 0.043 1.172-0.242 1.801-0.656 1.879-1.242 0.109-0.558-0.36-1.121-1.399-1.679-0.961-0.508-2.199-0.895-3.718-1.161-3.309-0.668-5.254-0.519-5.84 0.442z" inkscape:connector-curvature="0"/>
      <path id="path50" style="fill-rule:evenodd;fill:#87abae" d="m389.99 24.025c-0.801 0.133-1.469 0.348-2 0.641-0.508 0.316-0.734 0.625-0.68 0.918 0.051 0.293 0.387 0.492 1 0.601 0.637 0.106 1.36 0.094 2.157-0.043 0.828-0.183 1.508-0.465 2.043-0.84 0.504-0.32 0.691-0.625 0.558-0.917-0.105-0.293-0.465-0.469-1.082-0.52-0.613-0.082-1.277-0.027-2 0.16h0.004z" inkscape:connector-curvature="0"/>
      <path id="path52" style="fill-rule:evenodd;fill:#87abae" d="m334.15 23.865c0.16 0.852 1.039 1.504 2.637 1.957 1.574 0.43 3.563 0.574 5.961 0.441 2.348-0.105 4.48-0.691 6.402-1.757 1.864-1.043 2.571-1.989 2.118-2.84-0.774-1.496-3.625-2.121-8.559-1.883-2.32 0.105-4.375 0.602-6.16 1.48-1.762 0.856-2.559 1.719-2.399 2.602z" inkscape:connector-curvature="0"/>
      <path id="path54" style="fill-rule:evenodd;fill:#98b3ab" d="m346.35 29.865c0.05 0.344 0.425 0.613 1.117 0.801 0.695 0.211 1.496 0.277 2.402 0.199 0.984-0.055 1.813-0.227 2.481-0.52 0.64-0.293 0.933-0.613 0.878-0.96-0.05-0.348-0.425-0.629-1.117-0.84-0.695-0.188-1.496-0.254-2.402-0.2-0.984 0.079-1.801 0.266-2.441 0.559-0.665 0.293-0.973 0.613-0.918 0.961z" inkscape:connector-curvature="0"/>
      <path id="path56" style="fill-rule:evenodd;fill:#98b3ab" d="m408.39 53.142c0.398 0.375 1.093 0.614 2.082 0.723 0.613 0.051 1.718 0.094 3.316 0.117 1.496 0.055 2.777-0.039 3.844-0.277 1.172-0.266 1.797-0.68 1.879-1.242 0.054-0.586-0.426-1.145-1.442-1.68-1.093-0.559-2.492-0.879-4.199-0.961-1.785-0.078-3.305 0.348-4.559 1.281-1.203 0.879-1.507 1.563-0.921 2.039z" inkscape:connector-curvature="0"/>
      <path id="path58" style="fill-rule:evenodd;fill:#87abae" d="m411.43 64.424c0.082 0.187 0.336 0.308 0.761 0.359 0.399 0.027 0.868-0.027 1.399-0.16 0.508-0.106 0.933-0.266 1.281-0.481 0.348-0.211 0.492-0.425 0.441-0.636-0.054-0.188-0.281-0.309-0.679-0.364-0.43-0.05-0.922-0.023-1.481 0.082-0.535 0.133-0.976 0.321-1.32 0.559-0.32 0.242-0.453 0.453-0.402 0.641z" inkscape:connector-curvature="0"/>
      <path id="path60" style="fill-rule:evenodd;fill:#87abae" d="m448.27 64.783c0.027-0.293-0.239-0.547-0.797-0.758-0.563-0.215-1.227-0.336-2-0.359-0.801-0.028-1.481 0.051-2.043 0.238-0.559 0.188-0.852 0.426-0.879 0.719-0.028 0.293 0.238 0.547 0.801 0.762 0.558 0.214 1.238 0.332 2.039 0.359 0.773 0.027 1.453-0.055 2.039-0.238 0.562-0.188 0.84-0.43 0.84-0.723z" inkscape:connector-curvature="0"/>
      <path id="path62" style="fill-rule:evenodd;fill:#87abae" d="m372.51 13.385c0.05-0.801-0.746-1.387-2.403-1.762-1.652-0.371-3.453-0.36-5.398 0.043-4.242 0.801-6.492 1.867-6.762 3.199-0.133 0.801 0.617 1.441 2.242 1.918 1.735 0.48 3.598 0.519 5.598 0.121 2.027-0.375 3.629-0.883 4.801-1.519 1.226-0.614 1.867-1.282 1.922-2z" inkscape:connector-curvature="0"/>
      <path id="path64" style="fill-rule:evenodd;fill:#87abae" d="m379.39 8.584c0.082-0.375-0.266-0.719-1.039-1.039-0.829-0.375-1.801-0.508-2.922-0.403-1.09 0.11-2.012 0.414-2.758 0.922-0.695 0.481-0.949 0.891-0.762 1.238 0.348 0.641 1.629 0.84 3.84 0.602 2.293-0.215 3.508-0.652 3.641-1.32z" inkscape:connector-curvature="0"/>
      <path id="path66" style="fill-rule:evenodd;fill:#87abae" d="m329.31 17.302c0.051-0.453-0.386-0.796-1.32-1.039-0.961-0.265-2.043-0.293-3.242-0.082-1.172 0.243-2.133 0.602-2.879 1.082-0.719 0.481-1.016 0.918-0.883 1.321 0.11 0.398 0.617 0.668 1.524 0.801 0.851 0.105 1.824 0.05 2.918-0.161 2.562-0.425 3.855-1.066 3.882-1.922z" inkscape:connector-curvature="0"/>
      <path id="path68" style="fill-rule:evenodd;fill:#87abae" d="m353.99 12.623c0.051-0.559-0.508-1.012-1.68-1.36-1.253-0.371-2.64-0.441-4.16-0.199-1.496 0.266-2.722 0.692-3.683 1.281-0.93 0.559-1.344 1.106-1.239 1.641 0.082 0.531 0.692 0.891 1.84 1.078 1.149 0.215 2.442 0.188 3.879-0.078 3.254-0.508 4.934-1.297 5.043-2.363z" inkscape:connector-curvature="0"/>
      <path id="path70" style="fill-rule:evenodd;fill:#87abae" d="m333.75 32.025c-0.371-1.281-2.773-2.203-7.199-2.762-2.028-0.238-3.746-0.238-5.16 0-1.547 0.243-2.442 0.719-2.68 1.442-0.215 0.773 0.359 1.558 1.719 2.359 1.414 0.879 3.199 1.442 5.359 1.68 2.16 0.293 4.109 0.094 5.84-0.598 1.656-0.617 2.363-1.324 2.121-2.121z" inkscape:connector-curvature="0"/>
      <path id="path72" style="fill-rule:evenodd;fill:#819da1" d="m69.352 57.904c-0.082-0.801-0.95-1.465-2.602-2-1.547-0.508-3.48-0.801-5.801-0.879-4.691-0.082-7.531 0.465-8.519 1.641-0.614 0.797-0.012 1.719 1.8 2.758 1.868 1.066 4 1.601 6.403 1.601 2.453 0.078 4.547-0.215 6.277-0.883 1.68-0.636 2.496-1.386 2.442-2.238z" inkscape:connector-curvature="0"/>
      <path id="path74" style="fill-rule:evenodd;fill:#87abae" d="m26.871 68.822c-0.055-0.344-0.426-0.586-1.121-0.719-0.691-0.16-1.504-0.172-2.438-0.039-0.906 0.106-1.667 0.305-2.281 0.602-0.613 0.316-0.906 0.652-0.879 1 0.051 0.316 0.426 0.547 1.118 0.679 0.695 0.133 1.507 0.145 2.441 0.04 0.906-0.106 1.68-0.309 2.32-0.602 0.614-0.32 0.895-0.641 0.84-0.961z" inkscape:connector-curvature="0"/>
      <path id="path76" style="fill-rule:evenodd;fill:#819da1" d="m312.35 12.142c0.48-0.746-0.016-1.652-1.481-2.718-1.519-1.094-3.426-1.84-5.719-2.239-2.269-0.429-4.226-0.535-5.882-0.32-1.625 0.187-2.614 0.652-2.958 1.398-0.347 0.774 0.227 1.641 1.719 2.602 1.52 0.957 3.387 1.641 5.598 2.039 4.988 0.852 7.894 0.602 8.723-0.762z" inkscape:connector-curvature="0"/>
      <path id="path78" style="fill-rule:evenodd;fill:#98b3ab" d="m19.312 57.822c-0.96-0.371-2.242-0.504-3.839-0.398-0.243 0-2.227 0.214-5.961 0.64-2.668 0.348-4.934 0.961-6.801 1.84-2 0.934-2.895 1.895-2.68 2.879 0.215 0.988 1.321 1.723 3.321 2.199 2.132 0.535 4.691 0.602 7.679 0.203 1.574-0.242 3.039-0.652 4.399-1.242 1.441-0.641 2.547-1.387 3.32-2.238 0.746-0.828 1.16-1.629 1.242-2.403 0.051-0.691-0.176-1.183-0.68-1.48z" inkscape:connector-curvature="0"/>
      <path id="path80" style="fill-rule:evenodd;fill:#87abae" d="m308.67 46.584c0.183-0.426-0.172-0.746-1.082-0.961-0.934-0.238-1.891-0.238-2.879 0-1.012 0.215-1.828 0.562-2.441 1.043-0.614 0.426-0.84 0.812-0.68 1.156 0.16 0.297 0.613 0.469 1.359 0.523 0.668 0.024 1.492-0.054 2.481-0.242 1.761-0.371 2.84-0.879 3.242-1.519z" inkscape:connector-curvature="0"/>
      <path id="path82" style="fill-rule:evenodd;fill:#819da1" d="m25.031 23.302c0.106-0.453-0.332-0.917-1.32-1.398-0.988-0.48-2.238-0.828-3.762-1.039-1.519-0.215-2.84-0.254-3.957-0.121-1.148 0.133-1.801 0.426-1.961 0.879-0.187 0.453 0.215 0.949 1.199 1.48 1.016 0.535 2.293 0.907 3.84 1.121 1.52 0.243 2.868 0.266 4.039 0.082 1.149-0.187 1.789-0.523 1.922-1.004z" inkscape:connector-curvature="0"/>
      <path id="path84" style="fill-rule:evenodd;fill:#87abae" d="m304.39 33.345c0.054-0.16-0.094-0.335-0.442-0.523-0.371-0.156-0.785-0.238-1.238-0.238-1.094-0.051-1.695 0.093-1.801 0.441-0.055 0.16 0.094 0.32 0.442 0.481 0.371 0.16 0.8 0.25 1.281 0.277 1.09 0.055 1.679-0.094 1.758-0.438z" inkscape:connector-curvature="0"/>
      <path id="path86" style="fill-rule:evenodd;fill:#98b3ab" d="m152.79 39.982c4.375-0.051 8-0.73 10.883-2.039 1.387-0.531 2.492-1.371 3.32-2.519 0.852-1.2 0.797-1.973-0.16-2.321-0.426-0.133-1.094-0.547-2-1.238-0.773-0.586-1.668-0.973-2.68-1.16-2.8-0.719-6.082-1.067-9.84-1.039-4 0.023-7.374 0.48-10.121 1.359-2.855 0.934-4.308 2.094-4.359 3.481-0.055 1.437 1.371 2.718 4.277 3.839 3.016 1.118 6.575 1.665 10.68 1.637z" inkscape:connector-curvature="0"/>
      <path id="path88" style="fill-rule:evenodd;fill:#87abae" d="m99.949 69.424c-0.211-0.481-0.84-0.786-1.879-0.918-0.961-0.137-2.16-0.094-3.597 0.117-1.442 0.187-2.657 0.519-3.641 1-0.988 0.48-1.441 0.976-1.359 1.48 0.078 0.508 0.652 0.879 1.718 1.121 1.094 0.239 2.375 0.266 3.84 0.078 1.465-0.21 2.719-0.636 3.758-1.277 0.988-0.586 1.375-1.121 1.16-1.601z" inkscape:connector-curvature="0"/>
      <path id="path90" style="fill-rule:evenodd;fill:#819da1" d="m121.15 62.783c-0.027-0.266-0.336-0.438-0.922-0.52-0.558-0.078-1.226-0.05-2 0.082-0.746 0.211-1.332 0.477-1.757 0.797-0.43 0.321-0.59 0.602-0.481 0.84 0.133 0.242 0.465 0.375 1 0.403 0.531 0.027 1.133-0.055 1.797-0.243 0.695-0.132 1.27-0.32 1.723-0.558 0.453-0.266 0.664-0.535 0.64-0.801z" inkscape:connector-curvature="0"/>
      <path id="path92" style="fill-rule:evenodd;fill:#87abae" d="m300.27 44.783c0.347-0.691-0.184-1.453-1.598-2.277-1.492-0.856-3.309-1.321-5.442-1.403-2.105-0.105-3.96 0.188-5.558 0.879-1.492 0.668-2.121 1.363-1.883 2.082 0.375 1.199 2.75 1.918 7.121 2.16 4.348 0.133 6.801-0.347 7.36-1.441z" inkscape:connector-curvature="0"/>
      <path id="path94" style="fill-rule:evenodd;fill:#87abae" d="m259.11 35.025c0.481-0.16 0.723-0.348 0.723-0.558-0.027-0.215-0.254-0.415-0.684-0.602-0.449-0.16-0.972-0.254-1.558-0.281-0.641-0.051-1.199-0.028-1.68 0.082-0.453 0.105-0.707 0.277-0.762 0.519-0.023 0.211 0.188 0.426 0.641 0.637 0.426 0.215 0.961 0.348 1.602 0.402 0.668 0.028 1.242-0.039 1.718-0.199z" inkscape:connector-curvature="0"/>
      <path id="path96" style="fill-rule:evenodd;fill:#87abae" d="m211.83 11.584c0.027-0.239-0.187-0.465-0.641-0.68-0.48-0.238-1.066-0.387-1.761-0.441-0.641-0.106-1.211-0.106-1.719 0-0.535 0.082-0.84 0.242-0.922 0.48-0.078 0.242 0.121 0.481 0.602 0.723 0.453 0.238 1.039 0.426 1.761 0.558 0.719 0.078 1.344 0.051 1.879-0.082 0.508-0.105 0.774-0.293 0.801-0.558z" inkscape:connector-curvature="0"/>
      <path id="path98" style="fill-rule:evenodd;fill:#819da1" d="m241.27 70.623c-0.106-0.426-0.625-0.68-1.559-0.758-0.984-0.082-2.055 0.051-3.199 0.398-1.149 0.348-2.067 0.813-2.762 1.403-0.664 0.586-0.879 1.066-0.637 1.437 0.239 0.375 0.797 0.547 1.68 0.52 0.824 0 1.785-0.172 2.879-0.52 1.121-0.32 2.012-0.707 2.68-1.16 0.691-0.48 1-0.918 0.918-1.32z" inkscape:connector-curvature="0"/>
      <path id="path100" style="fill-rule:evenodd;fill:#87abae" d="m125.23 14.302c-0.027-0.21-0.238-0.371-0.64-0.48-0.399-0.133-0.867-0.172-1.399-0.117-0.507-0.055-0.961-0.028-1.359 0.078-0.402 0.133-0.629 0.293-0.68 0.48-0.027 0.188 0.16 0.36 0.559 0.52 0.398 0.187 0.894 0.309 1.48 0.359 0.614-0.05 1.121-0.16 1.52-0.32 0.398-0.156 0.574-0.332 0.519-0.52z" inkscape:connector-curvature="0"/>
      <path id="path102" style="fill-rule:evenodd;fill:#819da1" d="m225.47 41.666c0.586-0.856-0.11-1.629-2.082-2.321-2-0.668-4.028-0.789-6.079-0.363-2.16 0.348-3.933 0.906-5.32 1.684-1.281 0.746-1.894 1.476-1.84 2.199 0.106 0.773 1 1.305 2.68 1.598 1.598 0.269 3.438 0.242 5.52-0.078 3.757-0.614 6.132-1.52 7.121-2.719z" inkscape:connector-curvature="0"/>
      <path id="path104" style="fill-rule:evenodd;fill:#87abae" d="m241.03 44.103c0.082-0.531-0.332-1.066-1.242-1.597-0.984-0.563-2.266-0.934-3.84-1.121-1.679-0.215-3.172 0.066-4.48 0.839-1.25 0.774-1.598 1.387-1.039 1.84 0.375 0.348 1.015 0.586 1.922 0.719 0.558 0.105 1.597 0.242 3.117 0.402 1.386 0.16 2.613 0.145 3.679-0.043 1.176-0.183 1.801-0.531 1.883-1.039z" inkscape:connector-curvature="0"/>
      <path id="path106" style="fill-rule:evenodd;fill:#87abae" d="m312.07 70.424c-0.453-0.641-1.332-1.106-2.64-1.399-1.039-0.242-2.731-0.453-5.078-0.64-2.11-0.215-4.082 0.027-5.922 0.718-1.813 0.696-2.532 1.442-2.16 2.242 0.695 1.36 3.281 2.227 7.761 2.598 2.239 0.215 4.293-0.144 6.16-1.078 1.758-0.883 2.387-1.695 1.879-2.441z" inkscape:connector-curvature="0"/>
      <path id="path108" style="fill-rule:evenodd;fill:#87abae" d="m225.39 9.705c0.586 0.078 1.254 0.066 2-0.039 1.652-0.215 2.507-0.617 2.558-1.203 0.028-0.293-0.265-0.508-0.879-0.641-0.613-0.133-1.293-0.145-2.039-0.039-0.773 0.105-1.402 0.293-1.883 0.559-0.476 0.269-0.703 0.535-0.679 0.8 0.054 0.27 0.363 0.453 0.922 0.563z" inkscape:connector-curvature="0"/>
      <path id="path110" style="fill-rule:evenodd;fill:#87abae" d="m148.71 69.982c-0.078-0.558-0.668-1.023-1.762-1.398-1.094-0.348-2.453-0.535-4.078-0.559-1.625-0.055-3.039 0.16-4.238 0.641-1.203 0.453-1.75 0.957-1.641 1.519 0.078 0.559 0.664 1.012 1.758 1.36 1.094 0.343 2.441 0.531 4.039 0.558 1.629 0.028 3.043-0.172 4.242-0.597 1.199-0.457 1.758-0.961 1.68-1.524z" inkscape:connector-curvature="0"/>
      <path id="path112" style="fill-rule:evenodd;fill:#87abae" d="m219.23 60.385c0.133-0.614-0.304-1.254-1.32-1.922-0.984-0.664-2.32-1.227-4-1.68s-3.226-0.586-4.64-0.398c-1.387 0.187-2.118 0.585-2.2 1.199-0.105 0.613 0.36 1.238 1.403 1.879 0.984 0.613 2.304 1.136 3.957 1.562 1.656 0.426 3.175 0.574 4.562 0.438 1.36-0.133 2.106-0.493 2.238-1.078z" inkscape:connector-curvature="0"/>
      <path id="path114" style="fill-rule:evenodd;fill:#87abae" d="m202.27 65.385c0.562-0.879-0.133-1.696-2.079-2.442-2-0.773-4.132-0.984-6.402-0.641-2.293 0.215-4.238 0.79-5.84 1.723-1.547 0.906-2.117 1.746-1.719 2.52 0.321 0.664 1.254 1.132 2.801 1.398 1.492 0.242 3.348 0.254 5.559 0.039 4.215-0.504 6.773-1.371 7.68-2.597z" inkscape:connector-curvature="0"/>
      <path id="path116" style="fill-rule:evenodd;fill:#819da1" d="m216.63 66.623c-0.055-0.238-0.348-0.414-0.883-0.52-0.504-0.105-1.105-0.121-1.801-0.039-0.664 0.028-1.226 0.149-1.679 0.36-0.481 0.214-0.719 0.441-0.719 0.679 0 0.266 0.265 0.469 0.801 0.602 0.503 0.133 1.132 0.172 1.878 0.117 0.696-0.078 1.282-0.238 1.762-0.477 0.481-0.242 0.692-0.48 0.641-0.722z" inkscape:connector-curvature="0"/>
      <path id="path118" style="fill-rule:evenodd;fill:#819da1" d="m290.91 73.545c0-0.481-0.465-0.934-1.398-1.36-0.883-0.402-2.028-0.707-3.442-0.922-3.199-0.375-5.015-0.105-5.441 0.801-0.238 0.481 0.121 1.028 1.082 1.641 0.988 0.613 2.215 1.012 3.68 1.199 1.464 0.215 2.773 0.16 3.921-0.16 1.094-0.293 1.626-0.695 1.598-1.199z" inkscape:connector-curvature="0"/>
      <path id="path120" style="fill-rule:evenodd;fill:#87abae" d="m298.19 74.666c-0.027-0.215-0.265-0.364-0.718-0.442-0.481-0.105-1.016-0.132-1.602-0.082-0.559 0.028-1.055 0.137-1.48 0.321-0.426 0.16-0.641 0.347-0.641 0.562 0 0.211 0.227 0.387 0.68 0.52 0.453 0.132 1 0.187 1.64 0.16 0.614-0.055 1.133-0.188 1.563-0.403 0.398-0.21 0.586-0.425 0.558-0.636z" inkscape:connector-curvature="0"/>
      <path id="path122" style="fill-rule:evenodd;fill:#87abae" d="m149.87 66.263c-0.027-0.214-0.254-0.375-0.68-0.48-0.453-0.106-0.961-0.133-1.519-0.078-0.613 0.105-1.121 0.265-1.52 0.48-0.375 0.184-0.519 0.387-0.441 0.598 0.055 0.187 0.293 0.32 0.719 0.402 0.453 0.078 0.933 0.078 1.441 0 0.586-0.054 1.078-0.175 1.481-0.363 0.398-0.184 0.574-0.371 0.519-0.559z" inkscape:connector-curvature="0"/>
      <path id="path124" style="fill-rule:evenodd;fill:#87abae" d="m59.672 7.506c0.398-0.723-0.199-1.321-1.801-1.801-1.652-0.453-3.305-0.481-4.961-0.082-1.734 0.32-3.16 0.84-4.277 1.558-1.094 0.723-1.535 1.375-1.321 1.961 0.211 0.563 0.958 0.922 2.239 1.082 1.254 0.133 2.719 0.051 4.398-0.242 2.989-0.558 4.895-1.387 5.723-2.476z" inkscape:connector-curvature="0"/>
      <path id="path126" style="fill-rule:evenodd;fill:#87abae" d="m70.512 14.424c0.027-0.321-0.293-0.586-0.961-0.801-0.668-0.211-1.481-0.305-2.442-0.278-0.957 0.106-1.746 0.305-2.359 0.598s-0.895 0.602-0.84 0.922c0.082 0.293 0.453 0.52 1.121 0.68 0.641 0.16 1.399 0.199 2.281 0.121 0.852-0.028 1.598-0.16 2.239-0.403 0.613-0.238 0.933-0.519 0.961-0.839z" inkscape:connector-curvature="0"/>
      <path id="path128" style="fill-rule:evenodd;fill:#87abae" d="m182.59 13.424c0.082-0.774-0.664-1.426-2.238-1.957-1.629-0.563-3.536-0.778-5.719-0.645-2.16 0.137-4.016 0.602-5.563 1.402-1.465 0.746-2.078 1.493-1.84 2.243 0.243 0.691 1.106 1.199 2.602 1.515 1.414 0.297 3.172 0.375 5.277 0.242 2.11-0.132 3.84-0.453 5.203-0.961 1.438-0.507 2.2-1.121 2.278-1.839z" inkscape:connector-curvature="0"/>
      <path id="path130" style="fill-rule:evenodd;fill:#819da1" d="m295.31 54.744c-0.054-0.32-0.414-0.535-1.082-0.641-0.668-0.105-1.441-0.093-2.32 0.039-0.879 0.137-1.613 0.364-2.199 0.68-0.559 0.32-0.813 0.641-0.762 0.961 0.082 0.293 0.453 0.508 1.121 0.641 0.668 0.105 1.442 0.093 2.321-0.039 0.879-0.133 1.613-0.375 2.199-0.719 0.562-0.321 0.801-0.629 0.722-0.922z" inkscape:connector-curvature="0"/>
      <path id="path132" style="fill-rule:evenodd;fill:#87abae" d="m177.27 53.623c0.296 0.242 0.507 0.133 0.64-0.321 0.106-0.48-0.039-0.863-0.437-1.16-0.43-0.531-1.137-1.011-2.121-1.437-1.786-0.774-3.961-1.133-6.52-1.082-2.453 0.027-4.586 0.441-6.402 1.242-1.758 0.801-2.492 1.625-2.2 2.48 0.243 0.774 1.176 1.387 2.801 1.84 1.574 0.399 3.547 0.586 5.918 0.559 2.297-0.055 4.227-0.293 5.801-0.719 0.695-0.187 1.199-0.426 1.52-0.723-0.133-0.027-0.024-0.171 0.32-0.437 0.242-0.215 0.336-0.309 0.281-0.281-0.082-0.078 0.055-0.067 0.399 0.039z" inkscape:connector-curvature="0"/>
      <path id="path134" style="fill-rule:evenodd;fill:#819da1" d="m175.75 62.666c-0.027-0.375-0.586-0.602-1.68-0.684-0.48-0.023-0.906 0.028-1.281 0.16-0.371 0.11-0.543 0.243-0.519 0.403 0.054 0.343 0.613 0.574 1.679 0.679 0.508 0.028 0.934-0.027 1.281-0.16 0.375-0.105 0.547-0.242 0.52-0.398z" inkscape:connector-curvature="0"/>
      <path id="path136" style="fill-rule:evenodd;fill:#819da1" d="m142.95 19.424c0.403-0.985-0.437-1.891-2.519-2.719-2.16-0.852-4.547-1.16-7.16-0.922-2.665 0.187-4.907 0.707-6.719 1.562-1.762 0.825-2.574 1.692-2.442 2.598 0.137 0.91 1.161 1.59 3.082 2.043 1.868 0.453 4.067 0.598 6.598 0.438 5.387-0.426 8.441-1.426 9.16-3z" inkscape:connector-curvature="0"/>
      <path id="path138" style="fill-rule:evenodd;fill:#819da1" d="m137.67 26.783c-0.055-0.586-0.867-0.918-2.442-1-0.691-0.051-1.292 0-1.8 0.16-0.532 0.16-0.785 0.359-0.758 0.602 0 0.238 0.226 0.453 0.68 0.64 0.48 0.184 1.066 0.305 1.757 0.36 0.668 0.027 1.27-0.028 1.801-0.16 0.508-0.161 0.762-0.36 0.762-0.602z" inkscape:connector-curvature="0"/>
      <path id="path140" style="fill-rule:evenodd;fill:#98b3ab" d="m107.15 24.623c-0.082-0.559-0.761-0.934-2.043-1.117-1.25-0.161-2.636-0.082-4.16 0.238-2.453 0.48-4.199 1.176-5.238 2.082-0.559 0.664-0.039 1.266 1.559 1.797 1.601 0.535 3.16 0.59 4.679 0.16 1.629-0.316 2.934-0.797 3.922-1.438 0.961-0.589 1.387-1.16 1.281-1.722z" inkscape:connector-curvature="0"/>
      <path id="path142" style="fill-rule:evenodd;fill:#819da1" d="m96.43 30.943c-0.559-0.801-1.653-1.414-3.278-1.84-0.961-0.293-1.882-0.398-2.761-0.32-0.852 0.082-1.305 0.309-1.36 0.684-0.027 0.371 0.239 0.757 0.801 1.156 0.586 0.402 1.398 0.75 2.438 1.043 0.906 0.293 1.882 0.344 2.921 0.156 1.039-0.156 1.454-0.453 1.239-0.879z" inkscape:connector-curvature="0"/>
      <path id="path144" style="fill-rule:evenodd;fill:#87abae" d="m137.59 41.103c0.293-0.691-0.227-1.465-1.559-2.32-1.332-0.852-3.027-1.492-5.082-1.918-2.051-0.426-3.84-0.559-5.359-0.398-1.574 0.183-2.492 0.625-2.758 1.316-0.266 0.723 0.266 1.508 1.598 2.359 1.336 0.856 3.027 1.496 5.082 1.922 2.054 0.399 3.84 0.52 5.359 0.36 1.547-0.161 2.453-0.602 2.719-1.321z" inkscape:connector-curvature="0"/>
      <path id="path146" style="fill-rule:evenodd;fill:#87abae" d="m220.75 18.185c0.266 0.106 0.375-0.027 0.32-0.402-0.027-0.348-0.172-0.586-0.437-0.719-0.43-0.347-0.961-0.64-1.602-0.879-1.254-0.429-2.851-0.601-4.801-0.519-1.812 0.105-3.332 0.426-4.558 0.957-1.199 0.508-1.789 1.066-1.762 1.683 0.055 0.637 0.735 1.145 2.039 1.516 1.281 0.348 2.817 0.469 4.602 0.363 1.707-0.082 3.148-0.336 4.32-0.761 0.961-0.372 1.586-0.786 1.879-1.239z" inkscape:connector-curvature="0"/>
      <path id="path148" style="fill-rule:evenodd;fill:#87abae" d="m218.35 25.302c0.878-0.105 1.359-0.359 1.437-0.757 0.055-0.403-0.25-0.813-0.918-1.243-0.668-0.398-1.559-0.73-2.68-1-1.121-0.238-2.132-0.292-3.039-0.16-0.453 0.082-0.84 0.203-1.16 0.364 0-0.11-0.137-0.016-0.402 0.277-0.211 0.242-0.227 0.375-0.039 0.402 0.16 0.16 0.281 0.16 0.359 0-0.078 0.239 0.199 0.559 0.84 0.957 0.695 0.453 1.562 0.789 2.602 1 1.093 0.243 2.093 0.293 3 0.16z" inkscape:connector-curvature="0"/>
      <path id="path150" style="fill-rule:evenodd;fill:#87abae" d="m225.35 30.064c0.586 0.215 1.117 0.321 1.597 0.321 0.508 0.023 0.817-0.055 0.922-0.243 0.133-0.211 0.027-0.48-0.32-0.8-0.348-0.321-0.84-0.598-1.481-0.836-0.613-0.215-1.187-0.309-1.718-0.282-0.536 0.028-0.829 0.161-0.879 0.399-0.106 0.48 0.519 0.961 1.879 1.441z" inkscape:connector-curvature="0"/>
      <path id="path152" style="fill-rule:evenodd;fill:#87abae" d="m196.35 15.865c-0.082-0.16-0.508-0.242-1.282-0.242-0.746-0.051-1.172 0-1.281 0.16-0.078 0.105 0 0.254 0.242 0.441 0.239 0.184 0.574 0.293 1 0.321 0.426 0 0.774-0.082 1.039-0.243 0.266-0.16 0.36-0.304 0.282-0.437z" inkscape:connector-curvature="0"/>
      <path id="path154" style="fill-rule:evenodd;fill:#87abae" d="m68.91 47.904c-0.051-0.508-0.613-0.879-1.68-1.121-1.066-0.266-2.32-0.32-3.757-0.16-1.442 0.16-2.641 0.496-3.602 1-0.961 0.535-1.375 1.043-1.238 1.519 0.105 0.481 0.691 0.828 1.758 1.043 1.015 0.184 2.226 0.2 3.64 0.039 1.387-0.132 2.559-0.425 3.52-0.879 0.961-0.457 1.414-0.933 1.359-1.441z" inkscape:connector-curvature="0"/>
      <path id="path156" style="fill-rule:evenodd;fill:#98b3ab" d="m61.109 40.424c0.297 0.082 0.469-0.067 0.524-0.442 0.051-0.371-0.043-0.691-0.281-0.957-0.403-0.535-1.04-1.043-1.922-1.519-1.707-0.829-3.84-1.243-6.399-1.243-2.347-0.105-4.48 0.348-6.398 1.36-1.867 0.961-2.469 1.855-1.801 2.679 1.039 1.176 3.773 1.79 8.199 1.84 2.188 0 4.012-0.172 5.481-0.519 0.531-0.024 1.027-0.254 1.48-0.68 0.426-0.371 0.797-0.547 1.117-0.519z" inkscape:connector-curvature="0"/>
      <path id="path158" style="fill-rule:evenodd;fill:#87abae" d="m29.672 34.744c-0.266-0.559-1.387-0.774-3.36-0.641-0.882 0.055-1.64 0.227-2.281 0.52-0.64 0.293-0.894 0.574-0.761 0.84 0.214 0.535 1.335 0.734 3.363 0.601 0.879-0.054 1.625-0.215 2.238-0.48 0.641-0.293 0.906-0.574 0.801-0.84z" inkscape:connector-curvature="0"/>
      <path id="path160" style="fill-rule:evenodd;fill:#87abae" d="m81.109 34.904c0.028-0.453-0.437-0.812-1.398-1.082-0.961-0.293-2.094-0.387-3.399-0.277-1.281 0.105-2.347 0.371-3.203 0.797-0.851 0.402-1.25 0.828-1.199 1.281 0.055 0.453 0.563 0.785 1.52 1 0.906 0.242 2 0.293 3.281 0.16 1.254-0.106 2.293-0.332 3.121-0.68 0.852-0.347 1.277-0.746 1.277-1.199z" inkscape:connector-curvature="0"/>
      <path id="path162" style="fill-rule:evenodd;fill:#98b3ab" d="m87.031 44.424c6.985 0.132 10.867-0.735 11.641-2.602 0.48-1.117-0.402-2.293-2.641-3.52-2.398-1.281-5.293-1.957-8.679-2.039-3.36-0.16-6.336 0.387-8.922 1.641-2.453 1.227-3.371 2.414-2.758 3.559 0.504 0.933 1.801 1.64 3.879 2.121 1.734 0.398 4.226 0.679 7.48 0.84z" inkscape:connector-curvature="0"/>
      <path id="path164" style="fill-rule:evenodd;fill:#819da1" d="m95.27 64.584c0.347-0.586-0.172-1.133-1.559-1.641-1.414-0.531-2.934-0.664-4.559-0.398-1.679 0.211-3.027 0.574-4.043 1.078-1.011 0.48-1.543 1.015-1.597 1.601-0.028 0.586 0.597 1.028 1.879 1.321 1.254 0.293 2.668 0.332 4.242 0.121 3.25-0.457 5.133-1.149 5.637-2.082z" inkscape:connector-curvature="0"/>
      <path id="path166" style="fill-rule:evenodd;fill:#87abae" d="m82.832 68.982c-0.027-0.183-0.242-0.293-0.641-0.316-0.402 0-0.828 0.066-1.281 0.199-0.48 0.133-0.851 0.305-1.121 0.52-0.293 0.214-0.398 0.398-0.316 0.558 0.05 0.16 0.265 0.254 0.636 0.281 0.375 0 0.789-0.066 1.243-0.199 0.984-0.293 1.48-0.64 1.48-1.043z" inkscape:connector-curvature="0"/>
      <path id="path168" style="fill-rule:evenodd;fill:#87abae" d="m72.512 21.103c0.238-0.613-0.266-1.238-1.52-1.879-1.281-0.695-2.828-1.093-4.64-1.203-1.786-0.105-3.348 0.055-4.68 0.485-1.254 0.425-1.895 0.945-1.922 1.558s0.586 1.16 1.84 1.641c1.199 0.453 2.668 0.719 4.402 0.801 1.758 0.105 3.211 0.05 4.36-0.161 1.226-0.242 1.945-0.656 2.16-1.242z" inkscape:connector-curvature="0"/>
      <path id="path170" style="fill-rule:evenodd;fill:#819da1" d="m262.67 16.463c0.691-0.481 0.387-1.239-0.922-2.282-1.383-1.066-2.984-1.664-4.797-1.796-1.84-0.188-3.387-0.161-4.641 0.078-1.226 0.269-1.972 0.695-2.242 1.281-0.265 0.613 0.254 1.254 1.563 1.922 1.25 0.636 2.746 1.066 4.48 1.277 1.785 0.215 3.157 0.281 4.117 0.199 1.04-0.05 1.852-0.277 2.442-0.679z" inkscape:connector-curvature="0"/>
      <path id="path172" style="fill-rule:evenodd;fill:#87abae" d="m261.03 2.142c0.16-0.343-0.105-0.718-0.801-1.117-0.691-0.426-1.546-0.719-2.558-0.883-1.039-0.16-1.906-0.183-2.602-0.078-0.664 0.106-1.105 0.321-1.32 0.641-0.211 0.316 0.043 0.707 0.762 1.16 0.718 0.426 1.574 0.719 2.558 0.879 1.043 0.16 1.922 0.187 2.641 0.078 0.746-0.105 1.187-0.332 1.32-0.68z" inkscape:connector-curvature="0"/>
      <path id="path174" style="fill-rule:evenodd;fill:#87abae" d="m275.15 26.185c0.317-0.562-0.109-1.203-1.281-1.922-1.199-0.718-2.641-1.16-4.32-1.32-1.707-0.183-3.16-0.133-4.36 0.16-1.199 0.27-1.879 0.696-2.039 1.282-0.136 0.585 0.387 1.16 1.559 1.718 1.144 0.563 2.531 0.922 4.16 1.082 3.652 0.371 5.746 0.039 6.281-1z" inkscape:connector-curvature="0"/>
      <path id="path176" style="fill-rule:evenodd;fill:#98b3ab" d="m320.91 27.705c2.695-0.934 4.067-1.934 4.121-3 0.024-1.016-1.176-1.828-3.601-2.442-2.293-0.558-5.2-0.828-8.719-0.8-3.574 0.054-6.535 0.347-8.879 0.882-2.617 0.559-4.176 1.332-4.684 2.321-0.558 1.09 0.348 2.117 2.723 3.078 2.481 0.988 5.57 1.465 9.277 1.441 3.707-0.027 6.961-0.519 9.762-1.48z" inkscape:connector-curvature="0"/>
      <path id="path178" style="fill-rule:evenodd;fill:#98b3ab" d="m264.75 48.865c0.16-0.641-0.426-1.254-1.758-1.84-1.226-0.562-2.722-0.949-4.48-1.16-2.055-0.266-3.414-0.402-4.082-0.402-1.172-0.024-2.028 0.16-2.559 0.562-0.695 0.481-0.441 1.277 0.758 2.399 1.309 1.175 2.961 1.878 4.961 2.121 1.949 0.238 3.613 0.172 5-0.2 1.281-0.347 2-0.839 2.16-1.48z" inkscape:connector-curvature="0"/>
      <path id="path180" style="fill-rule:evenodd;fill:#819da1" d="m251.63 66.506c0.023-0.403-0.348-0.789-1.121-1.161-0.774-0.375-1.762-0.613-2.961-0.722-1.172-0.106-2.239 0.027-3.199 0.402-0.907 0.344-1.293 0.719-1.161 1.117 0.188 0.774 1.547 1.254 4.082 1.442 1.145 0.105 2.145 0.054 3-0.16 0.879-0.215 1.332-0.52 1.36-0.918z" inkscape:connector-curvature="0"/>
      <path id="path182" style="fill-rule:evenodd;fill:#87abae" d="m261.71 57.943c0.078-0.133-0.039-0.293-0.359-0.48-0.375-0.211-0.786-0.332-1.243-0.36-1.039-0.078-1.625 0.039-1.757 0.36-0.082 0.16 0.05 0.336 0.398 0.519 0.32 0.16 0.719 0.27 1.199 0.32 1.043 0.083 1.629-0.039 1.762-0.359z" inkscape:connector-curvature="0"/>
      <path id="path184" style="fill-rule:evenodd;fill:#87abae" d="m270.23 60.623c0-0.238-0.386-0.387-1.16-0.438-0.664-0.054-1.066 0.012-1.199 0.2-0.055 0.105 0.027 0.226 0.242 0.359 0.266 0.16 0.571 0.254 0.918 0.281 0.348 0.024 0.641 0 0.879-0.082 0.242-0.078 0.348-0.187 0.32-0.32z" inkscape:connector-curvature="0"/>
      <path id="path186" style="fill-rule:evenodd;fill:#87abae" d="m264.27 63.385c0.082-0.375-0.227-0.719-0.918-1.04-0.696-0.347-1.559-0.574-2.602-0.679-1.012-0.11-1.934-0.055-2.758 0.156-0.801 0.215-1.187 0.508-1.16 0.883 0.027 0.344 0.375 0.664 1.039 0.961 0.668 0.293 1.508 0.492 2.52 0.597 1.043 0.106 1.933 0.082 2.679-0.078 0.746-0.187 1.149-0.453 1.2-0.8z" inkscape:connector-curvature="0"/>
      <path id="path188" style="fill-rule:evenodd;fill:#87abae" d="m273.95 50.943c0.055-0.078 0-0.199-0.16-0.359-0.156-0.133-0.383-0.254-0.68-0.36-0.293-0.082-0.57-0.093-0.839-0.039-0.266 0.051-0.387 0.133-0.36 0.239 0.028 0.16 0.332 0.332 0.922 0.519 0.613 0.215 0.984 0.215 1.117 0z" inkscape:connector-curvature="0"/>
      <path id="path190" style="fill-rule:evenodd;fill:#87abae" d="m173.71 27.584c0-0.426-0.652-0.801-1.961-1.117-0.586-0.137-1.094-0.188-1.52-0.161-0.453 0.051-0.734 0.172-0.839 0.36-0.079 0.211 0.066 0.453 0.441 0.719 0.371 0.265 0.867 0.464 1.48 0.597 0.614 0.137 1.161 0.16 1.637 0.082 0.481-0.105 0.735-0.265 0.762-0.48z" inkscape:connector-curvature="0"/>
      <path id="path192" style="fill-rule:evenodd;fill:#98b3ab" d="m188.99 4.185c0.078-0.64-0.519-1.226-1.801-1.761-1.308-0.586-2.906-0.891-4.8-0.918-1.868-0.028-3.493 0.238-4.879 0.8-1.309 0.559-1.895 1.161-1.762 1.797 0.105 0.614 0.801 1.11 2.082 1.481 1.199 0.347 2.691 0.535 4.48 0.562 1.786 0.051 3.305-0.109 4.559-0.48 1.305-0.375 2.012-0.867 2.121-1.481z" inkscape:connector-curvature="0"/>
      <path id="path194" style="fill-rule:evenodd;fill:#87abae" d="m248.75 25.224c0.16-0.082 0.133-0.281-0.078-0.601-0.242-0.317-0.574-0.571-1-0.758-0.43-0.16-0.828-0.242-1.203-0.242-0.344 0-0.559 0.066-0.637 0.199-0.16 0.32 0.25 0.695 1.238 1.121 0.828 0.348 1.387 0.442 1.68 0.281z" inkscape:connector-curvature="0"/>
      <path id="path196" style="fill-rule:evenodd;fill:#98b3ab" d="m278.83 32.025c-0.109-0.883-1.668-1.629-4.68-2.242-1.363-0.266-2.601-0.316-3.722-0.16-1.145 0.187-1.746 0.535-1.797 1.043-0.055 0.48 0.344 0.972 1.199 1.48 0.879 0.531 2.023 0.934 3.438 1.199 1.441 0.293 2.761 0.266 3.96-0.082 1.149-0.293 1.68-0.707 1.602-1.238z" inkscape:connector-curvature="0"/>
      <path id="path198" style="fill-rule:evenodd;fill:#87abae" d="m283.83 30.385c0.133-0.293-0.066-0.614-0.602-0.961-0.507-0.372-1.171-0.653-2-0.84-0.8-0.215-1.507-0.293-2.117-0.239-0.613 0.051-0.988 0.227-1.121 0.52-0.133 0.266 0.067 0.57 0.598 0.918 0.535 0.375 1.187 0.652 1.961 0.84 0.828 0.215 1.547 0.293 2.16 0.242 0.613-0.055 0.988-0.215 1.121-0.48z" inkscape:connector-curvature="0"/>
      <path id="path200" style="fill-rule:evenodd;fill:#87abae" d="m189.31 52.345c0.106-0.347-0.429-0.839-1.601-1.48-1.145-0.613-1.906-0.801-2.281-0.563-0.211 0.137-0.184 0.403 0.082 0.801 0.265 0.453 0.679 0.828 1.238 1.121 0.535 0.293 1.094 0.442 1.68 0.442 0.535 0 0.828-0.11 0.882-0.321z" inkscape:connector-curvature="0"/>
      <path id="path202" style="fill-rule:evenodd;fill:#819da1" d="m80.391 47.943c0.054-0.344-0.254-0.652-0.918-0.918-0.696-0.293-1.535-0.441-2.524-0.441-1.011 0.027-1.879 0.238-2.597 0.64-0.668 0.399-0.922 0.758-0.762 1.078 0.293 0.508 1.426 0.735 3.402 0.68 0.906 0 1.68-0.094 2.32-0.277 0.692-0.188 1.051-0.442 1.079-0.762z" inkscape:connector-curvature="0"/>
      <path id="path204" style="fill-rule:evenodd;fill:#87abae" d="m29.91 8.744c1.039 0.055 1.949-0.055 2.723-0.32 0.773-0.266 1.133-0.586 1.078-0.957-0.027-0.348-0.387-0.657-1.078-0.922-0.668-0.215-1.508-0.348-2.524-0.399-1.011-0.054-1.879 0.012-2.597 0.199-0.746 0.211-1.149 0.493-1.2 0.84-0.027 0.371 0.305 0.707 1 1 0.692 0.321 1.559 0.504 2.598 0.559z" inkscape:connector-curvature="0"/>
      <path id="path206" style="fill-rule:evenodd;fill:#87abae" d="m49.473 17.545c0.023-0.16-0.121-0.309-0.442-0.442-0.32-0.16-0.707-0.254-1.16-0.281-0.453-0.051-0.855-0.023-1.199 0.082-0.348 0.078-0.535 0.199-0.563 0.359-0.023 0.161 0.121 0.309 0.442 0.442 0.32 0.133 0.719 0.226 1.199 0.277 0.453 0.028 0.855 0 1.199-0.078 0.321-0.082 0.496-0.199 0.524-0.359z" inkscape:connector-curvature="0"/>
      <path id="path208" style="fill-rule:evenodd;fill:#87abae" d="m102.07 9.142c-0.054-0.265-0.359-0.465-0.918-0.597-0.535-0.133-1.187-0.16-1.961-0.082-0.773 0.082-1.414 0.242-1.921 0.48-0.504 0.266-0.731 0.535-0.68 0.801 0.055 0.266 0.359 0.453 0.922 0.558 0.531 0.133 1.187 0.161 1.961 0.083 0.746-0.083 1.371-0.243 1.879-0.481 0.531-0.238 0.773-0.492 0.718-0.762z" inkscape:connector-curvature="0"/>
      <path id="path210" style="fill-rule:evenodd;fill:#98b3ab" d="m112.31 10.584c0-0.399-0.414-0.735-1.242-1-0.851-0.293-1.851-0.414-3-0.36-1.148 0.028-2.105 0.188-2.879 0.481-0.8 0.293-1.214 0.652-1.242 1.078 0 0.402 0.414 0.734 1.242 1 0.852 0.269 1.852 0.387 3 0.363 1.145-0.054 2.121-0.215 2.918-0.48 0.774-0.297 1.176-0.656 1.203-1.082z" inkscape:connector-curvature="0"/>
      <path id="path212" style="fill-rule:evenodd;fill:#87abae" d="m114.95 5.064c0.028-0.613-0.613-1.121-1.918-1.519-1.308-0.426-2.828-0.586-4.558-0.481-1.762 0.106-3.243 0.414-4.442 0.918-1.172 0.508-1.746 1.067-1.719 1.684 0.051 0.613 0.704 1.09 1.958 1.437 1.281 0.375 2.789 0.508 4.519 0.403 1.734-0.11 3.188-0.387 4.363-0.84 1.172-0.457 1.774-0.989 1.797-1.602z" inkscape:connector-curvature="0"/>
      <path id="path214" style="fill-rule:evenodd;fill:#87abae" d="m115.67 46.783c0.133-0.801-1.027-1.531-3.481-2.199-1.066-0.293-2.039-0.414-2.921-0.36-0.852 0.078-1.348 0.305-1.481 0.68-0.105 0.398 0.16 0.828 0.801 1.281 0.64 0.453 1.508 0.825 2.601 1.117 1.121 0.297 2.133 0.375 3.039 0.243 0.907-0.106 1.387-0.36 1.442-0.762z" inkscape:connector-curvature="0"/>
      <path id="path216" style="fill-rule:evenodd;fill:#87abae" d="m138.79 45.822c0.137-0.238-0.023-0.531-0.477-0.879-0.48-0.371-1.082-0.641-1.8-0.801-0.746-0.183-1.426-0.226-2.039-0.117-0.59 0.106-0.895 0.293-0.922 0.559-0.028 0.238 0.187 0.492 0.64 0.761 0.426 0.266 1 0.477 1.719 0.637 1.656 0.403 2.613 0.348 2.879-0.16z" inkscape:connector-curvature="0"/>
      <path id="path218" style="fill-rule:evenodd;fill:#87abae" d="m192.83 31.463c0.051-0.321-0.227-0.625-0.84-0.918-0.586-0.321-1.347-0.535-2.281-0.641-0.906-0.133-1.707-0.121-2.399 0.039-0.695 0.16-1.066 0.402-1.121 0.723-0.027 0.316 0.254 0.625 0.84 0.918 0.614 0.293 1.375 0.508 2.281 0.64 0.907 0.106 1.719 0.094 2.438-0.043 0.695-0.156 1.055-0.398 1.082-0.718z" inkscape:connector-curvature="0"/>
      <path id="path220" style="fill-rule:evenodd;fill:#87abae" d="m211.43 30.064c0.32-0.426 0.027-0.949-0.879-1.558-0.985-0.668-2.199-1.028-3.641-1.082-1.414-0.055-2.598 0.082-3.558 0.398-0.907 0.32-1.387 0.723-1.442 1.199-0.027 0.457 0.442 0.856 1.402 1.203 0.934 0.348 2.04 0.547 3.321 0.598 1.41 0.055 2.437 0.043 3.078-0.039 0.879-0.106 1.453-0.348 1.719-0.719z" inkscape:connector-curvature="0"/>
    </g>
  </g>
<metadata><rdf:RDF><cc:Work><dc:format>image/svg+xml</dc:format><dc:type rdf:resource="http://purl.org/dc/dcmitype/StillImage"/><cc:license rdf:resource="http://creativecommons.org/licenses/publicdomain/"/><dc:publisher><cc:Agent rdf:about="http://openclipart.org/"><dc:title>Openclipart</dc:title></cc:Agent></dc:publisher></cc:Work><cc:License rdf:about="http://creativecommons.org/licenses/publicdomain/"><cc:permits rdf:resource="http://creativecommons.org/ns#Reproduction"/><cc:permits rdf:resource="http://creativecommons.org/ns#Distribution"/><cc:permits rdf:resource="http://creativecommons.org/ns#DerivativeWorks"/></cc:License></rdf:RDF></metadata></svg>
